<?xml version="1.0" standalone="no"?><!DOCTYPE svg PUBLIC "-//W3C//DTD SVG 1.1//EN" "http://www.w3.org/Graphics/SVG/1.1/DTD/svg11.dtd"><svg class="icon" width="200px" height="200.00px" viewBox="0 0 1024 1024" version="1.1" xmlns="http://www.w3.org/2000/svg"><path d="M512 959.52A447.63 447.63 0 0 1 337.79 99.66a447.63 447.63 0 0 1 348.42 824.68A444.77 444.77 0 0 1 512 959.52z m0-795.6a348.07 348.07 0 1 0 246.13 101.95A345.8 345.8 0 0 0 512 163.93z" fill="#3B8FD9" /><path d="M338 487.14v49.72h149.14V686h49.72V536.86H686v-49.72H536.86V338h-49.72v149.14z" fill="#D8D8D8" /><path d="M561.73 710.9h-99.45V561.73H313.1v-99.45h149.18V313.1h99.45v149.18H710.9v99.45H561.73zM512 661.18V512z" fill="#3B8FD9" /></svg>