<?xml version="1.0" standalone="no"?><!DOCTYPE svg PUBLIC "-//W3C//DTD SVG 1.1//EN" "http://www.w3.org/Graphics/SVG/1.1/DTD/svg11.dtd"><svg class="icon" width="200px" height="200.00px" viewBox="0 0 1024 1024" version="1.1" xmlns="http://www.w3.org/2000/svg"><path fill="#333333" d="M512 1024C229.68 1024 0 794.32 0 512S229.68 0 512 0s512 229.68 512 512-229.68 512-512 512z m0-921.6c-225.85 0-409.6 183.74-409.6 409.6S286.15 921.6 512 921.6 921.6 737.86 921.6 512 737.86 102.4 512 102.4z"  /><path fill="#333333" d="M460.8 460.8V307a51 51 0 0 1 51.2-51c28.28 0 51.2 23.33 51.2 51v153.8H717a51 51 0 0 1 51 51.2c0 28.28-23.33 51.2-51 51.2H563.2V717a51 51 0 0 1-51.2 51c-28.28 0-51.2-23.33-51.2-51V563.2H307a51 51 0 0 1-51-51.2c0-28.28 23.33-51.2 51-51.2z"  /></svg>