<?xml version="1.0" standalone="no"?><!DOCTYPE svg PUBLIC "-//W3C//DTD SVG 1.1//EN" "http://www.w3.org/Graphics/SVG/1.1/DTD/svg11.dtd"><svg class="icon" width="200px" height="200.00px" viewBox="0 0 1024 1024" version="1.1" xmlns="http://www.w3.org/2000/svg"><path fill="#333333" d="M554.86 635a109.88 109.88 0 0 1 21.53-59.18 255.54 255.54 0 0 0 51.82-94.17c28.68-21.15 46.9-51.58 50.72-84.68 3.28-50.35-10.58-53-10.58-53C688.78 289.12 695 82.48 546.83 106.35 523.48 62.53 368 28.53 295.4 144.6c-39.07 61.28-46.78 134.67-21.16 201.4 0 4.58-9.85-4.58-13.14 24.85-1.57 31.49 8 62.62 27.37 88.93a62 62 0 0 0 25.18 16.68c9.24 36 27.6 69.52 53.64 98.09 4.78 23.71-8.24 47.44-32.11 58.53-140.86 25.83-269.67 95.47-269.67 171v58.53C81.93 968.22 402 960.7 618 956.45c8.53-5.24 11.21-15.43 6.2-23.54-13.67-17.27-32.89-30.39-55.1-37.6 0-1.63-6.57-2.62-7.3-4.25a78.65 78.65 0 0 1-8.39-52.31S554.13 638 554.86 635z"  /><path fill="#333333" d="M903.43 568.19H678.29c-29.18-0.73-53.55 20.86-54.66 48.42V839a59.12 59.12 0 0 0 13.67 29l129.82 84a38.48 38.48 0 0 0 23.88 6.42 31.25 31.25 0 0 0 23.57-9.68L941 868a32.14 32.14 0 0 0 17.08-25.82V619.83a44.64 44.64 0 0 0-13.91-38.5 50.62 50.62 0 0 0-40.74-13.14z m2.39 127.17l-48.17 43.9 12 61a10.07 10.07 0 0 1-4.44 10.65 11 11 0 0 1-6.83 2.26 15.17 15.17 0 0 1-5.47 0l-60.51-28.08-60.81 28.08a15.18 15.18 0 0 1-5.12 0 11 11 0 0 1-7.17-2.26 10.69 10.69 0 0 1-4.44-10.65l12.64-61L679.31 697a10.26 10.26 0 0 1-3.07-11.3 11.82 11.82 0 0 1 9.57-7.42l67-12.59 29-55.52a12.29 12.29 0 0 1 21.18 0L832.71 667l66.62 11a11.79 11.79 0 0 1 9.22 7.42 10.55 10.55 0 0 1-2.73 9.94z"  /></svg>