<?xml version="1.0" standalone="no"?><!DOCTYPE svg PUBLIC "-//W3C//DTD SVG 1.1//EN" "http://www.w3.org/Graphics/SVG/1.1/DTD/svg11.dtd"><svg class="icon" width="200px" height="200.00px" viewBox="0 0 1024 1024" version="1.1" xmlns="http://www.w3.org/2000/svg"><path d="M416.7 714.8s181.9 2.5 198.6 9.2c17.3 7-22.8 159.1-22.8 159.1L429 894l-12.3-179.2z" fill="#DEEDFF" /><path d="M430.4 767.7s-17.5-3-13.3 16.8c4.6 21.7 90.5 204.8 90.5 204.8l91-196.1s8.3-26.1-12.8-24" fill="#E591AB" /><path d="M269 760.2c76.6-37.5 147.7-45.2 147.7-45.2l90.9 274.6 93-267.7s71.1 7.8 147.7 45.2c60.4 29.6 121.4 74.1 135.5 91.4 0.9 1 1.5 2.2 2 3.5 85.7-91.6 138.2-214.7 138.2-350C1024 229.2 794.8 0 512 0S0 229.2 0 512c0 131.9 49.8 252 131.6 342.8 0.5-1.2 1-2.2 1.8-3.2 14.2-17.3 75.2-62 135.6-91.4z" fill="#DBEBFA" /><path d="M417.5 620.2h184.7v166.9H417.5V620.2z" fill="#FFDECC" /><path d="M512 1024c147.4 0 280.3-62.4 373.7-162-0.5-1.3-1-2.4-2-3.5-14.2-17.3-75.1-61.8-135.5-91.4-76.5-37.5-147.6-45.3-147.6-45.3l-93 267.6-90.9-274.6S345.6 722.6 269 760c-60.4 29.6-121.4 74.1-135.5 91.4-0.8 1-1.4 2.1-1.8 3.2C225.3 958.6 361 1024 512 1024z" fill="#FFFFFF" /><path d="M723 912.1h-36.8c-4.8 0-8.7-3.9-8.7-8.6s3.9-8.6 8.7-8.6h19.3V863c0-4.7 3.9-8.6 8.7-8.6 4.8 0 8.7 3.9 8.7 8.6l0.1 49.1z m-80.8 0h-36.8v-49c0-4.7 3.9-8.6 8.7-8.6 4.8 0 8.7 3.9 8.7 8.6v31.8h19.3c4.8 0 8.7 3.9 8.7 8.6s-3.7 8.6-8.6 8.6z" fill="#3B82BC" /><path d="M351.6 899c31.2 0 56.5-25.1 56.5-55.9 0-26.1-18.2-48.1-42.7-54.2 0.1-0.6 0.1-1.2 0.1-1.7V725c-8.6 2.2-17.3 4.6-25.8 7.2 0 1.7-0.1 3.6-0.1 5.3v49.7c0 0.5 0 0.8 0.1 1.3-25.5 5.4-44.6 27.8-44.6 54.7 0 30.8 25.3 55.8 56.5 55.8z m0-84.9c16.1 0 29.2 13 29.2 29s-13.1 29-29.2 29-29.2-13-29.2-29 13.1-29 29.2-29zM726.8 858v-12.7c0-29.7-21.5-54.5-49.9-60.1v-46.1c-9-2.8-18.1-5.3-27.3-7.6v54.3c-27.2 6.4-47.4 30.7-47.4 59.5V858c0 6.9 5.6 12.4 12.5 12.4s12.5-5.5 12.5-12.4v-12.7c0-20 16.5-36.4 36.8-36.4h0.8c20.2 0 36.8 16.3 36.8 36.4V858c0 6.9 5.6 12.4 12.5 12.4 7.1 0 12.7-5.6 12.7-12.4z" fill="#707C92" /><path d="M423.4 627.5s30.1 17.9 73.3 17.9c50.6 2.1 83.8-14.8 83.8-14.8v15.3s-55.7 29.7-80.8 29.7-76.2-35.1-76.2-35.1l-0.1-13z" fill="#F7C5AA" /><path d="M690.7 460.7c0 100.9-84.6 194.6-188.8 194.6-22.1 0-49.4-3.7-66.7-16-64.5-44.9-122.1-98.9-122.1-178.6 0-100.9 84.6-182.7 188.8-182.7s188.8 81.8 188.8 182.7z" fill="#FFDECC" /><path d="M351.5 696.6s89.1 90.4 90.8-56.3c0-1.4 0.1-3-1-3.8-11.5-8.5-19.1-16.1-20.7-17.8-0.1-0.1-0.1-0.2-0.2-0.2-8.4-7.7-57.1-53-63.2-80-0.1-0.5-0.2-0.9-0.5-1.3-0.3-0.6-0.7-1.4-0.8-2.1v-0.2c-0.3-2.4-2.5-4.1-4.9-4-4.5 0.2-9.2-0.9-13.3-3.3-10-5.9-14.2-17.5-15.4-28.4-1.2-9.7-0.9-21.4 4.7-29.9h0.2c134.7-18.5 172.9-85 183.7-121.8 1.4-4.5 7.7-4.5 9.1 0 22.9 76.3 111.7 107.3 160.3 118.7 1.5 0.3 2.6 1.4 3.2 2.8 9.4 21.4 0.1 59.3-24.7 60.7-2.1 0.1-3.9 1.6-4.4 3.7-0.6 2.1-1 4.1-1.6 6.2-11 41.5-42.5 63.4-75.6 91.5-0.2 0.1-0.3 0.3-0.5 0.5-5.6 6.4-17.3 16.1-17.3 16.1s-1.3 2.5-1.8 3.9c-24.4 59 38.1 70.2 38.1 70.3 45.3 9.7 91.2 28.9 134 46.4 0.7 0.2 1.2 0.8 1.5 1.4 1.3-0.8 13.1 18.9 17 28.1 1.5 3.5 6.1 4 8.3 1 15.8-21.7 32.3-61.7 30.5-73.9l-8.5-17.5c-1.5-3.1 0.7-6.8 4.1-6.9l15.1-0.6c1.8-0.1 3.6-1.3 4.3-3l9.3-23.6c0.9-2.3 0-4.8-2.2-6-15.4-8.5-74.3-42.1-84.1-66.7-10.2-26.4-7.1-155.3-8.9-174.7-3.3-35.9-14.5-68.2-26-97.1C640.3 191 525.3 211.4 515.8 213.3c-0.5 0.1-0.8 0.1-1.3 0.1-88.8-7.6-141.6 32-172.5 83.4-7.2 10.5-13.8 22.4-19.8 35.9-22 50.3-33.4 122.6-23.7 226.8 0.1 0 8.5 89.6 53 137.1z" fill="#AF919B" /></svg>