<?xml version="1.0" standalone="no"?><!DOCTYPE svg PUBLIC "-//W3C//DTD SVG 1.1//EN" "http://www.w3.org/Graphics/SVG/1.1/DTD/svg11.dtd"><svg class="icon" width="200px" height="200.00px" viewBox="0 0 1024 1024" version="1.1" xmlns="http://www.w3.org/2000/svg"><path fill="#333333" d="M700.76 484L485.93 717.22A39.4 39.4 0 0 1 457 729.85h-0.2a39.34 39.34 0 0 1-29-13L323 600.24a38.79 38.79 0 0 1 21.23-64 39.31 39.31 0 0 1 37.18 12.17l76 84.55 185.53-201.47a39.38 39.38 0 0 1 54.51-1.58 38.72 38.72 0 0 1 3.31 54.09m163.4-379.44H786c-0.08 0 0 25 0 39.26v77c0.15 43-34.77 78-78.06 78.21H316.11c-43.3-0.19-78.26-35.17-78.13-78.18v-77c0-14.38-0.16-26.08-0.16-39.26h-78.45c-43 0-77.91 34.66-78 77.4v700.36c0 42.72 35 77.44 78 77.44H864.7c43-0.09 77.84-34.69 77.9-77.4V182c0-42.68-35.23-77.44-78.45-77.44"  /><path fill="#333333" d="M703.58 90.25a52.13 52.13 0 0 0-45-26H369.9a52.94 52.94 0 0 0-52.46 52.4v51.62a52.48 52.48 0 0 0 52.46 52.48h288.66a52.47 52.47 0 0 0 52.38-52.48v-51.66a51.61 51.61 0 0 0-7.36-26.36"  /></svg>