<?xml version="1.0" standalone="no"?><!DOCTYPE svg PUBLIC "-//W3C//DTD SVG 1.1//EN" "http://www.w3.org/Graphics/SVG/1.1/DTD/svg11.dtd"><svg class="icon" width="200px" height="200.00px" viewBox="0 0 1024 1024" version="1.1" xmlns="http://www.w3.org/2000/svg"><path fill="#333333" d="M809.8 512H586.45V284.18H809.8z m-372.25 38c0 21-16.67 38-37.22 38h-148.9c-20.56 0-37.22-17-37.22-38s16.67-38 37.22-38h148.9a36.52 36.52 0 0 1 25.5 10.56A38.06 38.06 0 0 1 437.55 550z m148.9 151.88c0 21-16.67 38-37.22 38h-297.8c-20.56 0-37.22-17-37.22-38s16.67-38 37.22-38h297.8a36.52 36.52 0 0 1 25.5 10.56 38.06 38.06 0 0 1 11.72 27.41z m297.69-569.57H139.83c-41 0-74.38 33.81-74.52 75.67V816a76 76 0 0 0 5.14 27.07c0.3 0.76 0.41 1.59 0.71 2.35 0.89 2.13 2.2 4 3.28 6.08a68.39 68.39 0 0 0 3.56 6.78c0.74 1.14 1.71 2 2.49 3.08a69.43 69.43 0 0 0 6.63 8.13c1.15 1.18 2.53 2.05 3.72 3.15a70.84 70.84 0 0 0 7.33 6.11c0.52 0.38 1.19 0.61 1.75 1a67.84 67.84 0 0 0 10.91 6 69.38 69.38 0 0 0 11.84 3.72c0.71 0.19 1.38 0.53 2.12 0.68a72.47 72.47 0 0 0 15 1.56h744.38c41 0 74.38-33.81 74.52-75.67V208c-0.12-41.88-33.48-75.76-74.55-75.69z"  /></svg>