<?xml version="1.0" standalone="no"?><!DOCTYPE svg PUBLIC "-//W3C//DTD SVG 1.1//EN" "http://www.w3.org/Graphics/SVG/1.1/DTD/svg11.dtd"><svg class="icon" width="200px" height="200.00px" viewBox="0 0 1024 1024" version="1.1" xmlns="http://www.w3.org/2000/svg"><path fill="#333333" d="M848.15 64.84v130.48h-137V64.84L596 64.8v130.48H450.48V64.8H337.37v130.48H177.79V64.8H65.56l-0.15 893.82 893.82 0.15 0.14-813.82v-80zM177.26 308.65l670.36 0.12-0.1 558.45-670.36-0.12z m55.83 221.61h111.73V365.01H233.09z m0 279.32h111.73V644.33H233.09z m223.45 0h111.73V644.33H456.54z m223.45 0h111.73V644.33H679.99zM456.54 530.3h111.73V365.05H456.54z m223.45 0h111.73V365.05H679.99z"  /></svg>