<?xml version="1.0" standalone="no"?><!DOCTYPE svg PUBLIC "-//W3C//DTD SVG 1.1//EN" "http://www.w3.org/Graphics/SVG/1.1/DTD/svg11.dtd"><svg class="icon" width="200px" height="200.00px" viewBox="0 0 1024 1024" version="1.1" xmlns="http://www.w3.org/2000/svg"><path fill="#333333" d="M66.93 325a32.76 32.76 0 1 0 32.76-32.76A32.76 32.76 0 0 0 66.93 325z"  /><path fill="#333333" d="M891.54 325a32.76 32.76 0 1 0 16.38-28.37A32.76 32.76 0 0 0 891.54 325z"  /><path fill="#333333" d="M512 594.7c-182 0-338.21-89.7-440-252.52l55.44-34.78C216.63 450.55 353.23 529.18 512 529.18s295.37-78.63 384.58-221.78L952 342.18C850.21 505 694 594.7 512 594.7z"  /><path fill="#333333" d="M356.75 729.79A32.72 32.72 0 0 1 337.1 688l46.37-128A32.69 32.69 0 1 1 445 582.1l-46.37 128a32.72 32.72 0 0 1-41.88 19.69zM103.22 595.71a33.17 33.17 0 0 1 0-46.37l96.27-96.27a32.79 32.79 0 1 1 46.37 46.37l-96.27 96.27c-13.1 12.6-33.77 12.6-46.37 0z m819.07 0a33.17 33.17 0 0 0 0-46.37L826 453.07a32.79 32.79 0 1 0-46.37 46.37l96.27 96.27c12.62 12.6 33.29 12.6 46.39 0z m-255 134.08A32.72 32.72 0 0 0 686.9 688l-46.37-128A32.69 32.69 0 1 0 579 582.1l46.37 128a32.72 32.72 0 0 0 41.88 19.69z"  /></svg>