<?xml version="1.0" standalone="no"?><!DOCTYPE svg PUBLIC "-//W3C//DTD SVG 1.1//EN" "http://www.w3.org/Graphics/SVG/1.1/DTD/svg11.dtd"><svg class="icon" width="200px" height="200.00px" viewBox="0 0 1024 1024" version="1.1" xmlns="http://www.w3.org/2000/svg"><path fill="#333333" d="M0 391.4c0 20.8 16.9 37.7 37.7 37.7s37.7-16.9 37.7-37.7c0-20.8-16.9-37.7-37.7-37.7S0 370.6 0 391.4zM948.6 391.4c0 20.8 16.9 37.7 37.7 37.7s37.7-16.9 37.7-37.7c0-20.8-16.9-37.7-37.7-37.7-6.6 0-13.1 1.7-18.8 5-11.7 6.8-18.9 19.2-18.9 32.7zM512 701.7c-209.4 0-389.1-103.2-506.2-290.5l63.8-40C172.2 535.8 329.4 626.3 512 626.3s339.8-90.5 442.4-255.1l63.8 40C901.1 598.5 721.4 701.7 512 701.7zM333.4 857.1c-19.5-7.1-29.6-28.6-22.6-48.1l53.3-147.3c6.9-19.6 28.4-29.9 48-23s29.9 28.4 23 48c-0.1 0.2-0.1 0.3-0.2 0.5l-53.3 147.3c-7.1 19.5-28.6 29.6-48.2 22.6zM41.7 702.8c-14.5-14.8-14.5-38.5 0-53.3l110.7-110.7c14.6-14.9 38.5-15.1 53.3-0.5 14.9 14.6 15.1 38.5 0.5 53.3l-0.5 0.5L95.1 702.8c-15.1 14.5-38.9 14.5-53.4 0z m942.3 0c14.5-14.8 14.5-38.5 0-53.3L873.2 538.7c-14.6-14.9-38.5-15.1-53.3-0.5-14.9 14.6-15.1 38.5-0.5 53.3l0.5 0.5 110.7 110.7c14.6 14.6 38.3 14.6 53.4 0.1zM690.7 857.1c19.5-7.1 29.6-28.6 22.6-48.1L660 661.7c-6.9-19.6-28.4-29.9-48-23s-29.9 28.4-23 48c0.1 0.2 0.1 0.3 0.2 0.5l53.3 147.3c7 19.5 28.5 29.6 48.2 22.6-0.1 0-0.1 0 0 0z" /></svg>