<?xml version="1.0" standalone="no"?><!DOCTYPE svg PUBLIC "-//W3C//DTD SVG 1.1//EN" "http://www.w3.org/Graphics/SVG/1.1/DTD/svg11.dtd"><svg class="icon" width="200px" height="200.00px" viewBox="0 0 1024 1024" version="1.1" xmlns="http://www.w3.org/2000/svg"><path fill="#333333" d="M956.75 414.25c-6.46-24.24-27.47-42-51.7-45.24L674 328.61l-103.41-210c-9.69-22.62-33.93-37.16-58.17-37.16s-46.86 14.54-58.17 37.16l-103.41 210-231.05 42c-25.85 3.23-45.24 21-53.32 45.24-6.46 22.62 0 50.09 17.77 67.86l166.42 155.13L207 865c-4.85 24.24 6.46 50.09 25.85 64.63s46.86 16.16 67.86 4.85l211.67-105 210 105c9.69 4.85 21 8.08 30.7 8.08 14.54 0 27.47-4.85 37.16-12.93 19.47-14.5 30.76-38.73 25.94-64.63l-42-226.21 166.41-156.68a65.87 65.87 0 0 0 16.16-67.86zM904.18 445L717.86 620.44 765 874.54c1.35 7.2-3.7 11.86-5.93 13.54l-1.07 0.8-1 0.85a6.56 6.56 0 0 1-3.65 0.87 26.62 26.62 0 0 1-7.67-2.59L512.5 771.4 276.86 888.33l-0.76 0.41a11.82 11.82 0 0 1-5.41 1.21 11.39 11.39 0 0 1-6.6-1.87c-4.29-3.22-6.74-9.43-6.06-12.83l49.15-254.82-186.57-173.88a19.66 19.66 0 0 1-4.37-15.49c2.08-5.3 5.43-8.27 10-8.84l1.43-0.18 258.25-47L500.8 141.72c2.49-4.9 7.25-8.32 11.61-8.32s9.28 3.09 10.37 5.65l0.54 1.26L639 375.28l258.12 45.13 1 0.14a10.37 10.37 0 0 1 8.33 7.1l0.41 1.53 0.5 1.51a13.87 13.87 0 0 1-3.18 14.31z"  /></svg>