<?xml version="1.0" standalone="no"?><!DOCTYPE svg PUBLIC "-//W3C//DTD SVG 1.1//EN" "http://www.w3.org/Graphics/SVG/1.1/DTD/svg11.dtd"><svg class="icon" width="200px" height="200.00px" viewBox="0 0 1024 1024" version="1.1" xmlns="http://www.w3.org/2000/svg"><path fill="#333333" d="M753.16 942.6c-9.69 0-21-3.23-30.7-8.08l-210-105-211.67 105c-21 11.31-48.47 9.69-67.86-4.85S202.19 889.28 207 865l43.63-226.21L84.24 483.72C66.46 466 60 438.48 66.46 415.86c8.08-24.24 27.47-42 53.32-45.24l231.05-42 103.41-210c11.31-22.62 33.93-37.16 58.17-37.16s48.47 14.54 58.17 37.16L674 328.61 905 369c24.24 3.23 45.24 21 51.7 45.24a65.87 65.87 0 0 1-16.16 67.86L774.17 638.84l42 226.21c4.85 25.85-6.46 50.09-25.85 64.63-9.69 8.07-22.62 12.92-37.16 12.92z"  /></svg>