<?xml version="1.0" standalone="no"?><!DOCTYPE svg PUBLIC "-//W3C//DTD SVG 1.1//EN" "http://www.w3.org/Graphics/SVG/1.1/DTD/svg11.dtd"><svg class="icon" width="200px" height="200.00px" viewBox="0 0 1024 1024" version="1.1" xmlns="http://www.w3.org/2000/svg"><path fill="#333333" d="M787.50543 1004c-11.1 0-24-3.7-35.1-9.2l-240-120-241.9 120c-24 12.9-55.4 11.1-77.5-5.5-22.2-16.6-35.1-46.2-29.6-73.9l49.9-258.5L23.10543 479.7C2.80543 459.4-4.59457 428 2.80543 402.1c9.2-27.7 31.4-48 60.9-51.7l264-48 118.2-240C458.80543 36.6 484.70543 20 512.40543 20s55.4 16.6 66.5 42.5l118.2 240 264 46.2c27.7 3.7 51.7 24 59.1 51.7 9.2 27.3 2 57.3-18.5 77.5l-190.2 179 48 258.5c5.5 29.5-7.4 57.2-29.5 73.9-11.1 9.2-25.9 14.7-42.5 14.7z"  /></svg>