<?xml version="1.0" standalone="no"?><!DOCTYPE svg PUBLIC "-//W3C//DTD SVG 1.1//EN" "http://www.w3.org/Graphics/SVG/1.1/DTD/svg11.dtd"><svg class="icon" width="200px" height="200.00px" viewBox="0 0 1024 1024" version="1.1" xmlns="http://www.w3.org/2000/svg"><path fill="#333333" d="M74.7 1024H448c35.2 0 63.8-28.6 63.8-63.8V63.8C511.8 28.6 483.2 0 448 0H74.7C39.4 0 10.9 28.6 10.9 63.8v896.3c0 35.3 28.5 63.9 63.8 63.9z m276.1-640h71.6c14.8 0 26.9 12 26.9 26.9v74.3c0 14.8-12 26.9-26.9 26.9h-71.6c-14.8 0-26.9-12-26.9-26.9v-74.3c0-14.8 12-26.9 26.9-26.9z m-249.3 0h71.6c14.8 0 26.9 12 26.9 26.9v74.3c0 14.8-12 26.9-26.9 26.9h-71.6c-14.8 0-26.9-12-26.9-26.9v-74.3c0.1-14.8 12.1-26.9 26.9-26.9z m249.3-253.8h71.6c14.8 0 26.9 12 26.9 26.9v74.3c0 14.8-12 26.9-26.9 26.9h-71.6c-14.8 0-26.9-12-26.9-26.9v-74.3c0-14.8 12-26.9 26.9-26.9z m-249.3 0h71.6c14.8 0 26.9 12 26.9 26.9v74.3c0 14.8-12 26.9-26.9 26.9h-71.6c-14.8 0-26.9-12-26.9-26.9v-74.3c0.1-14.8 12.1-26.9 26.9-26.9zM346.4 640h80.4c12.4 0 22.5 10.1 22.5 22.5v83.1c0 12.4-10.1 22.5-22.5 22.5h-80.4c-12.4 0-22.5-10.1-22.5-22.5v-83.1c0-12.4 10.1-22.5 22.5-22.5z m-249.2 0h80.4c12.4 0 22.5 10.1 22.5 22.5v83.1c0 12.4-10.1 22.5-22.5 22.5H97.2c-12.4 0-22.5-10.1-22.5-22.5v-83.1c0-12.4 10-22.5 22.5-22.5z m915.5-299.3v22.6c0 11.4-9.3 20.7-20.7 20.7H595.1c-11.4 0-20.7-9.3-20.7-20.7v-22.6c0-11.4 9.3-20.7 20.7-20.7H992c11.4 0 20.7 9.3 20.7 20.7zM608.5 1024h57.2c18.8 0 34.1-15.2 34.1-34.1V802c0-18.8 15.2-34.1 34.1-34.1h119.7c18.8 0 34.1 15.2 34.1 34.1v187.9c0 18.8 15.2 34.1 34.1 34.1H979c18.8 0 34.1-15.2 34.1-34.1V482.1c0-18.8-15.2-34.1-34.1-34.1H608.5c-18.8 0-34.1 15.2-34.1 34.1v507.8c0 18.9 15.2 34.1 34.1 34.1z" /></svg>