<?xml version="1.0" standalone="no"?><!DOCTYPE svg PUBLIC "-//W3C//DTD SVG 1.1//EN" "http://www.w3.org/Graphics/SVG/1.1/DTD/svg11.dtd"><svg class="icon" width="200px" height="200.00px" viewBox="0 0 1024 1024" version="1.1" xmlns="http://www.w3.org/2000/svg"><path fill="#333333" d="M512 1024C229.68 1024 0 794.32 0 512S229.68 0 512 0s512 229.68 512 512-229.68 512-512 512z m0-921.61c-225.85 0-409.6 183.75-409.6 409.6S286.15 921.61 512 921.61 921.61 737.85 921.61 512 737.85 102.39 512 102.39z"  /><path fill="#333333" d="M256 512c0-28.28 23.33-51.2 51-51.2h410a51 51 0 0 1 51 51.2c0 28.28-23.33 51.2-51 51.2H307a51 51 0 0 1-51-51.2z"  /></svg>