<?xml version="1.0" standalone="no"?><!DOCTYPE svg PUBLIC "-//W3C//DTD SVG 1.1//EN" "http://www.w3.org/Graphics/SVG/1.1/DTD/svg11.dtd"><svg class="icon" width="200px" height="200.00px" viewBox="0 0 1024 1024" version="1.1" xmlns="http://www.w3.org/2000/svg"><path fill="#333333" d="M109.5 109.5c32.2-32.2 64.4-32.2 96.6 0l708.4 708.4c32.2 32.2 32.2 64.4 0 96.6-32.2 32.2-64.4 32.2-96.6 0L109.5 206.1c-32.2-32.3-32.2-64.4 0-96.6z"  /><path fill="#333333" d="M109.5 914.5c-32.2-32.2-32.2-64.4 0-96.6L818 109.5c32.3-32.2 64.4-32.2 96.6 0 32.2 32.2 32.2 64.4 0 96.6L206.1 914.5c-32.2 32.2-64.4 32.2-96.6 0z"  /></svg>