<?xml version="1.0" standalone="no"?><!DOCTYPE svg PUBLIC "-//W3C//DTD SVG 1.1//EN" "http://www.w3.org/Graphics/SVG/1.1/DTD/svg11.dtd"><svg class="icon" width="200px" height="200.00px" viewBox="0 0 1024 1024" version="1.1" xmlns="http://www.w3.org/2000/svg"><path fill="#333333" d="M759.83 816c0 25.15-22.17 45.51-49.57 45.51S660.7 841.16 660.7 816V360.93c0-25.15 22.17-45.51 49.57-45.51s49.57 20.36 49.57 45.51z m-198.27 0c0 25.15-22.17 45.51-49.57 45.51s-49.56-20.35-49.56-45.51V360.93c0-25.15 22.17-45.51 49.57-45.51s49.57 20.36 49.57 45.51z m-198.26 0c0 25.15-22.17 45.51-49.57 45.51s-49.56-20.35-49.56-45.51V360.93c0-25.15 22.17-45.51 49.57-45.51s49.57 20.36 49.57 45.51z m550.19-659.44h-223c0-49.13-40.17-89.36-89.22-89.36H422.78c-49.05 0-89.22 40.23-89.22 89.36h-223a44.68 44.68 0 0 0 0 89.36h44.61v625.52c0 49.13 40.17 89.36 89.22 89.36h535.27c49.05 0 89.22-40.23 89.22-89.36V245.92h44.61a44.68 44.68 0 0 0 0-89.36z"  /></svg>