<?xml version="1.0" standalone="no"?><!DOCTYPE svg PUBLIC "-//W3C//DTD SVG 1.1//EN" "http://www.w3.org/Graphics/SVG/1.1/DTD/svg11.dtd"><svg class="icon" width="200px" height="200.00px" viewBox="0 0 1024 1024" version="1.1" xmlns="http://www.w3.org/2000/svg"><path fill="#333333" d="M29.011792 28.999292c38.599058-38.599058 77.298113-38.599058 115.89717 0L994.988208 879.078538c38.599058 38.599058 38.599058 77.298113 0 115.897171-38.599058 38.599058-77.298113 38.599058-115.89717 0L29.011792 144.896462C-9.687263 106.197407-9.687263 67.59835 29.011792 28.999292z"  /><path fill="#333333" d="M29.011792 994.975709c-38.599058-38.599058-38.599058-77.298113 0-115.897171L879.091038 28.999292C917.790093-9.699763 956.389151-9.699763 994.988208 28.999292c38.599058 38.599058 38.599058 77.298113 0 115.89717L144.908962 994.975709c-38.599058 38.699055-77.298113 38.699055-115.89717 0z"  /></svg>