<?xml version="1.0" standalone="no"?><!DOCTYPE svg PUBLIC "-//W3C//DTD SVG 1.1//EN" "http://www.w3.org/Graphics/SVG/1.1/DTD/svg11.dtd"><svg class="icon" width="200px" height="200.00px" viewBox="0 0 1024 1024" version="1.1" xmlns="http://www.w3.org/2000/svg"><path fill="#333333" d="M753.39 666.68v29.51a36.88 36.88 0 0 1-73.76 0v-29.51H344.37v29.51a36.88 36.88 0 1 1-73.76 0v-29.51H64.3v207a29.49 29.49 0 0 0 29.5 29.5h836.4a29.49 29.49 0 0 0 29.51-29.51v-207z m-482.78-73.77V563.4a36.88 36.88 0 1 1 73.76 0v29.51h335.26V563.4a36.88 36.88 0 0 1 73.76 0v29.51H959.7v-286a29.49 29.49 0 0 0-29.51-29.51h-176.8V157.7a36.88 36.88 0 0 0-36.88-36.88h-409a36.88 36.88 0 0 0-36.88 36.88v119.7H93.8a29.49 29.49 0 0 0-29.5 29.5v286h206.31z m73.76-398.33h335.26v82.81H344.37z"  /></svg>