<?xml version="1.0" standalone="no"?><!DOCTYPE svg PUBLIC "-//W3C//DTD SVG 1.1//EN" "http://www.w3.org/Graphics/SVG/1.1/DTD/svg11.dtd"><svg class="icon" width="200px" height="200.00px" viewBox="0 0 1024 1024" version="1.1" xmlns="http://www.w3.org/2000/svg"><path fill="#333333" d="M788.1 689v33.7a42.2 42.2 0 1 1-84.4 0V689H320.3v33.7a42.2 42.2 0 0 1-84.4 0V689H0v236.7a33.72 33.72 0 0 0 33.7 33.7h956.5a33.72 33.72 0 0 0 33.7-33.7V689z m-552.2-84.5v-33.7a42.2 42.2 0 0 1 84.4 0v33.7h383.4v-33.7a42.2 42.2 0 0 1 84.4 0v33.7H1024v-327a33.72 33.72 0 0 0-33.7-33.7H788.1v-137a42.21 42.21 0 0 0-42.2-42.2H278.1a42.21 42.21 0 0 0-42.2 42.2v136.9H33.7A33.72 33.72 0 0 0 0 277.4v327.1zM320.3 149h383.4v94.7H320.3z" /></svg>