<?xml version="1.0" standalone="no"?><!DOCTYPE svg PUBLIC "-//W3C//DTD SVG 1.1//EN" "http://www.w3.org/Graphics/SVG/1.1/DTD/svg11.dtd"><svg class="icon" width="200px" height="200.00px" viewBox="0 0 1024 1024" version="1.1" xmlns="http://www.w3.org/2000/svg"><path fill="#333333" d="M512 62.94c-247.35 0-447.79 200.49-447.79 447.78S264.7 958.5 512 958.5 959.79 758 959.79 510.72 759.32 62.94 512 62.94z m0 811.6c-200.95 0-363.83-162.88-363.83-363.82S311.11 146.9 512 146.9s363.8 162.88 363.8 363.82S712.94 874.54 512 874.54z m176-554.29c-19-11.37-43.35-4.62-54.29 15.11l-150.15 269.7-83.62-101.79c-15.14-17.44-35.26-26.48-54.27-15.11s-26.9 38.79-14.58 56.37l116.37 141.64c8.7 11.3 18.64 18.08 29 20l0.08 0.17 1.06 0.05c2.35 0.36 37.51 6.85 52.64-20.24l172.38-309.54c10.94-19.76 4.38-44.97-14.62-56.36z"  /></svg>