<?xml version="1.0" standalone="no"?><!DOCTYPE svg PUBLIC "-//W3C//DTD SVG 1.1//EN" "http://www.w3.org/Graphics/SVG/1.1/DTD/svg11.dtd"><svg class="icon" width="200px" height="200.00px" viewBox="0 0 1024 1024" version="1.1" xmlns="http://www.w3.org/2000/svg"><path d="M512 0C229.2 0 0 229.2 0 512s229.2 512 512 512 512-229.3 512-512S794.8 0 512 0z" fill="#4ACFB1" /><path d="M753.5 409.2L479.4 683.5c-22.9 22.9-45.7 22.9-68.6 0-22.9-22.9-22.9-45.8 0-68.6l274.1-274.3c22.9-22.9 45.7-22.9 68.6 0 22.9 22.8 22.9 45.7 0 68.6z" fill="#FFFFFF" /><path d="M409.3 683.5L270.5 544.6c-22.9-22.9-22.9-45.8 0-68.6 22.9-22.9 45.7-22.9 68.6 0l138.8 138.9c22.9 22.9 22.9 45.8 0 68.6-22.9 22.9-45.8 22.9-68.6 0z" fill="#FFFFFF" /></svg>