<?xml version="1.0" standalone="no"?><!DOCTYPE svg PUBLIC "-//W3C//DTD SVG 1.1//EN" "http://www.w3.org/Graphics/SVG/1.1/DTD/svg11.dtd"><svg class="icon" width="200px" height="200.00px" viewBox="0 0 1024 1024" version="1.1" xmlns="http://www.w3.org/2000/svg"><path fill="#333333" d="M841.25 454.38A57.76 57.76 0 0 0 783.52 512v330.55h-602V241.67h318.06a57.63 57.63 0 1 0 0-115.26H123.76A57.76 57.76 0 0 0 66 184.06v716.15a57.76 57.76 0 0 0 57.74 57.66h717.51a57.53 57.53 0 0 0 53.16-35.18 56.75 56.75 0 0 0 4.59-22.48V512a57.75 57.75 0 0 0-57.75-57.62z m-493.46 101A26.37 26.37 0 0 0 329 563.2c-2.35 2.43-4.11 5.08-6.43 11.2l-49.8 145.53a26.07 26.07 0 0 0 7 24.66 26.34 26.34 0 0 0 18.54 7.59c2 0 4-0.22 9.81-1.89l145.37-49.85a24.56 24.56 0 0 0 8-5.44 26.41 26.41 0 0 0 0-37l-95.08-95a26.17 26.17 0 0 0-18.62-7.64z m595.7-405.26l-68.82-68.26c-9.89-10.3-23.23-15.46-37.42-15.46s-27.53 5.16-37.42 15.46l-40 40.36L902.19 263.9l41.29-39.07a53.57 53.57 0 0 0 0.01-74.71zM556.81 606.07L836 327.44a19.89 19.89 0 0 0 7.31-7.29l6.88-6.86L709.05 172.9 416.16 465.25l-49 48.94c-0.43 0.43-0.87 1.29-1.72 1.72l141.5 141.25z"  /></svg>