<?xml version="1.0" standalone="no"?><!DOCTYPE svg PUBLIC "-//W3C//DTD SVG 1.1//EN" "http://www.w3.org/Graphics/SVG/1.1/DTD/svg11.dtd"><svg class="icon" width="200px" height="200.00px" viewBox="0 0 1024 1024" version="1.1" xmlns="http://www.w3.org/2000/svg"><path d="M727.6 69.82H223.66v256.31h68.64V138.4h378.58v187.2h186.78v568H292.3v-84.01h-0.71v-68.58h0.71v-52.88h-68.64v274.05H926.3v-700.7L727.6 69.82z" fill="#819292" /><path d="M659.57 422.9H788.7v66.87H659.57z m0 159.49H788.7v66.87H659.57z m0 159.49H788.7v66.87H659.57z" fill="#819292" /><path d="M585.5 413.31h-68.64v327.7H291.59v68.58H585.5V413.31z" fill="#50A135" /><path d="M460 688.13v-362H97.7v362zM226.11 618l-85.73 0.72 93.78-110.52-93.78-112.7 81.75 0.22 53.71 63.33 53.71-63.33 81.75-0.22-93.78 112.69 93.78 110.57-85.73-0.76-49.73-59.76L226.11 618z" fill="#50A135" /><path d="M325.57 618.04l85.73 0.72-93.78-110.57L411.3 395.5l-81.75 0.23-53.71 63.32-53.71-63.32-81.75-0.23 93.78 112.69-93.78 110.57 85.73-0.72 49.73-59.76 49.73 59.76z" fill="#FFFFFF" /></svg>