<?xml version="1.0" standalone="no"?><!DOCTYPE svg PUBLIC "-//W3C//DTD SVG 1.1//EN" "http://www.w3.org/Graphics/SVG/1.1/DTD/svg11.dtd"><svg class="icon" width="200px" height="200.00px" viewBox="0 0 1024 1024" version="1.1" xmlns="http://www.w3.org/2000/svg"><path fill="#333333" d="M18.41 405.76L982.49 4a30 30 0 0 1 40.62 35L783 999.59a30 30 0 0 1-48.27 15.74L526.19 841.6a30 30 0 0 0-40.4 1.87l-107 106.88a30 30 0 0 1-51.12-21.14v-225.9a30 30 0 0 1 8.77-21.21l434.99-434.93-513.48 385.17a30 30 0 0 1-37.18-1l-210-174.93a30 30 0 0 1 7.64-50.67z"  /></svg>