<?xml version="1.0" standalone="no"?><!DOCTYPE svg PUBLIC "-//W3C//DTD SVG 1.1//EN" "http://www.w3.org/Graphics/SVG/1.1/DTD/svg11.dtd"><svg class="icon" width="200px" height="200.00px" viewBox="0 0 1024 1024" version="1.1" xmlns="http://www.w3.org/2000/svg"><path d="M0 509.8c0 281.6 229.2 509.8 512 509.8s512-228.3 512-509.8S794.8 0 512 0 0 228.3 0 509.8z" fill="#D8D8D8" /><path d="M1023.8 512c0.3 172.5-86.7 333.5-231.4 428.4-18.8 12.4-38.4 23.5-58.7 33.2-9.9 4.8-20 9.2-30.3 13.3-42.9 17.3-88 28.7-134.1 33.8-15.5 1.8-31.1 2.8-47 3.1-4.6 0.1-7.4 0.1-10.1 0.1-2.9 0-5.9 0-8.8-0.1-17.6-0.4-33.1-1.4-48.3-3.1-40.6-4.5-80.6-13.8-118.9-27.9-1.5-0.6-2.9-1.1-4.4-1.7-3.4-1.3-4.1-1.5-4.8-1.8-1.7-0.6-3.3-1.3-5-2-9.5-3.7-18.8-7.7-27.9-12.1l-4.5-2.1c-1.4-0.8-3-1.5-4.6-2.3-1.6-0.7-3.1-1.5-4.7-2.3-16.7-8.5-32.8-17.9-48.5-28.1C87.2 845.5 0.2 684.4 0.5 512 0.5 229.3 229.6 0 512.2 0s511.6 229.3 511.6 512z" fill="#FFD978" /><path d="M509.1 549.1c35.5 19.5 89.9-127.8-3.2-119.5-93 8.4 3.2 119.5 3.2 119.5z" fill="#FFE1CC" /><path d="M486.5 894.4c0.1 13.7 11.3 24.8 25.1 24.8 13.8-0.1 24.9-11.3 24.9-25-0.1-13.7-11.2-24.8-25-24.8-13.9 0-25.1 11.2-25 25z" fill="#5A7C88" /><path d="M689.1 827.9c-0.1 0.1-0.2 0.2-0.4 0.3-36.5 32.3-82.2 52.5-133.1 54.9-3.3 0.1-6.6 0.3-10 0.3h-66.9c-3.3 0-6.6-0.1-9.9-0.3-2.7-0.1-5.3-0.3-8-0.5-7.3-0.6-14.5-1.6-21.7-3-1.8-0.3-3.5-0.6-5.2-1-10.5-2.2-20.7-5.3-30.7-9.1-6.6-2.5-13.1-5.3-19.4-8.5-17.4-8.8-33.6-19.8-48.1-32.7-0.1 0-0.3-0.2-0.4-0.3-3.1-2.7-6.1-5.5-9.1-8.5-55-54.1-86.6-137.1-79.6-226.2l8.4-107.6 2.4-30.6 2.2-28.4 1.8-23.3c9.9-126.4 109.7-221.8 223.7-221.8h54.2c114 0 213.8 95.4 223.7 221.8l1.3 16.8 13.5 173c7.3 93.9-28.2 180.9-88.7 234.7z" fill="#332115" /><path d="M304.5 549c-35 20.4-93.3-125.4 0-119.6 93.3 6 0 119.6 0 119.6z m408.4 0c35 20.4 93.3-125.4 0-119.6-93.3 6 0 119.6 0 119.6z" fill="#FFE1CC" /><path d="M734.7 473.1c0 123-99.6 256.1-222.5 256.1S289.6 596 289.6 473.1s99.6-222.7 222.5-222.7 222.6 99.7 222.6 222.7z" fill="#FFE1CC" /><path d="M763 403.8c-9.9-126.4-109.7-221.4-223.7-221.4h-54.2c-114 0-213.8 95-223.7 221.4l-1.8 22.9c7.2 1.8 14.4 3.5 21.7 5.2 3.8 0.9 7.7 1.7 11.7 2.6 15.5 3.3 31 6.2 46.7 8.7 16.5 2.6 33.1 4.9 49.7 6.7 7.1 0.7 13.6-4 15.2-11l15.1-68.8s6.9 35.9 22.9 65.7c6.4 11.9 18.7 19.4 32.2 19.7 8.3 0.2 16.7 0.3 25.1 0.3 62.5 0.1 124.9-5.6 186.3-17.1 14.3-2.7 28.5-5.7 42.3-9l1.8-0.5c11.5-2.7 22.8-5.7 33.9-8.9l-1.2-16.5z" fill="#332115" /><path d="M716.7 870.7c0 54.2-91.6 98.1-204.5 98.1s-204.5-43.9-204.5-98.1c0-54.2 91.6-71 204.5-71s204.5 16.8 204.5 71z" fill="#FFE1CC" /><path d="M792.4 940.3c-18.8 12.4-38.4 23.5-58.7 33.2-9.9 4.8-20 9.2-30.3 13.3-42.9 17.3-88 28.7-134.1 33.8-15.5 1.8-31.1 2.8-47 3.1h-1.9c-2.7 0.1-5.5 0.1-8.2 0.1-2.9 0-5.9 0-8.8-0.1h-2c-15.7-0.4-31.1-1.4-46.3-3.1-40.6-4.5-80.6-13.8-118.9-27.9-1.5-0.6-2.9-1.1-4.4-1.7-0.9-0.3-1.9-0.7-2.8-1.1-0.7-0.2-1.3-0.5-2-0.8-1.7-0.6-3.3-1.3-5-2-9.5-3.7-18.8-7.7-27.9-12.1l-4.5-2.1c-1.4-0.8-3-1.5-4.6-2.3-1.6-0.7-3.1-1.5-4.7-2.3-16.7-8.5-32.8-17.9-48.5-28.1 15.3-30.9 34.5-56.7 56.9-77.7 10.3-9.7 21.3-18.5 33.1-26.2l0.1-0.1c4.3-2.9 8.7-5.6 13.2-8.3 3.2-1.9 6.4-3.7 9.7-5.4 0.1-0.1 0.2-0.2 0.3-0.2 4.7-2.4 9.4-4.8 14.2-7 1.1-0.5 2.1-1 3.2-1.4 5.7-2.5 11.4-4.9 17.3-7 1.8-0.7 3.4-1.3 5.2-1.9 0.2 0 0.4-0.1 0.6-0.2 2.7-0.9 5.3-1.8 8-2.6 2.6-0.9 5.2-1.6 7.8-2.4 0 0.5 0 1 0.1 1.5 0.3 1.2 0.7 2.4 1.1 3.5 0.3 0.7 0.6 1.3 0.9 2.1 1.5 3.3 3.2 6.4 5.1 9.5 4.7 7.7 9.8 15.2 15.4 22.3 0 0 0.1 0.1 0.1 0.2 1.7 2.2 3.6 4.4 5.4 6.7v0.1c0.1 0 0.1 0.1 0.2 0.2l6.9 8.1c2.8 3 5.7 6.1 8.6 9.1 1.3 1.3 2.6 2.6 4 3.9 1.3 1.3 2.8 2.7 4.3 4 1.2 1.2 2.5 2.3 3.9 3.4 2 1.7 4 3.4 6.1 5 1.6 1.2 3.2 2.5 4.9 3.7 5.6 4.1 11.5 7.7 17.8 10.7 7.2 3.6 15.1 5.8 23.1 6.4 0.8 0.1 1.7 0.1 2.5 0.1s1.7 0 2.5-0.1c7.6-0.6 15-2.5 21.8-5.8 6.8-3.1 13.2-6.9 19.2-11.3 2.1-1.5 4.2-3.1 6.3-4.8 2.9-2.3 5.7-4.8 8.6-7.4 1.4-1.2 2.7-2.5 4.1-3.8 2-1.8 3.9-3.8 5.7-5.7 2.7-2.7 5.2-5.5 7.8-8.3 1.3-1.5 2.6-3 3.9-4.6 1.3-1.6 2.8-3.3 4.2-5 5-6.2 9.7-12.5 14.2-19.1 3.9-5.6 7.4-11.4 10.4-17.5 0.1-0.4 0.4-0.8 0.5-1.1 1.1-2.7 1.8-4.8 1.7-6 5.3 1.5 10.5 3.1 15.6 5 1.9 0.6 3.7 1.3 5.5 2 5.1 1.8 10.1 3.8 15 6 6.7 2.8 13.2 6 19.6 9.4h0.1c3.6 1.8 7.1 3.8 10.5 5.8 42.7 25 78.2 61.8 103.3 112.5l0.1-0.2z" fill="#FFFDF8" /><path d="M439.9 623.7v208h142v-208h-142z" fill="#FFE1CC" /><path d="M623 824.2l-0.3 0.8-10.7 39.3-2.5 9.1-1.1 4.2-0.9 3.3-1.4 5-8.5 31.2-12.4 45.2-16 58.5c-15.5 1.8-31.1 2.8-47 3.1h-1.9c-2.7 0.1-5.5 0.1-8.2 0.1-2.9 0-5.9 0-8.8-0.1h-2c-15.7-0.4-31.1-1.4-46.3-3.1-4.9-18.9-9.9-38.7-14.9-58.2-4-15.7-8-31.4-12.1-47.1-1.6-6.2-3.2-12.4-4.8-18.5-0.1-0.4-0.2-0.8-0.3-1.1-1.1-4.6-2.3-8.9-3.4-13.1-0.4-1.7-0.9-3.3-1.3-4.9-0.3-1.1-0.6-2.3-0.9-3.3-1.8-7.1-3.6-13.6-5.1-19.6-3.1-11.8-5.7-21.5-7.6-28.3-0.4-1.4-0.8-2.8-1.2-4.3-0.5-2.2-1.2-4.3-2.1-6.3l7.5 0.7 30.9 2.8 64.5 5.7h9.5l68-0.5 28.5-0.2 10.5-0.1h2.1l0.2-0.3z" fill="#79C4FF" /><path d="M501.4 1023.8c-15.7-0.4-31.1-1.4-46.3-3.1-40.6-4.5-80.5-13.8-118.9-27.9-1.5-0.6-2.9-1.1-4.4-1.7-0.9-0.3-1.9-0.7-2.8-1.1-0.7-0.2-1.3-0.5-2-0.8-1.7-0.6-3.3-1.3-5-2-9.5-3.7-18.8-7.7-27.9-12.1l-4.5-2.1c-1.4-0.8-3-1.5-4.6-2.3 0.4-0.2 0.7-0.5 1-0.8 2.4-1.8 4.9-3.7 7.3-5.5 2.7-2.1 5.3-4.1 7.9-6.2 14.6-11.5 27.8-22.7 39.9-33.7 3.8-3.5 7.6-7 11.3-10.5 4.5-4.4 9-8.8 13.4-13.3 3.6-3.7 7.1-7.4 10.6-11.2 1.3-1.4 2.7-2.8 5.6-2.6 1.9 0.3 3.8 0.8 5.6 1.6 14.1 5.8 27.2 15.3 38.6 25.3 0.7 0.6 1.3 1.1 1.9 1.7 17 15.2 32 32.5 44.5 51.5 11.8 17.7 21.5 36.8 28.8 56.8z" fill="#E5EAF9" /><path d="M503.4 1023.8h-2c-15.7-0.4-31.1-1.4-46.3-3.1-40.6-4.5-80.5-13.8-118.9-27.9-1.5-0.6-2.9-1.1-4.4-1.7-0.9-0.3-1.9-0.7-2.8-1.1-0.6-0.4-1.1-0.9-1.7-1.3-1.5-1.1-2.9-2.3-4.4-3.4-8.4-6.5-16.8-12.6-25.4-18.1-1.4-1-2.7-1.8-4.2-2.7-2.3-1.5-4.6-3-7-4.4 7-5.1 14-10.4 20.8-15.7 10.3-8.1 20-16 29-23.7 5.3-4.6 10.6-9.2 15.7-14 3.9-3.6 7.8-7.3 11.6-11 4.9-4.8 9.7-9.7 14.3-14.7 1.7-2.2 3.6-4.2 5.5-6.1 0.9-1 2.1-1.6 3.4-1.8 1.7 0.1 5.1-0.7 6.9 0 2.1 0.8 4.5 0.5 6.2-0.9h0.1c1.1-0.8 2.2-1.7 3-2.7 0.5-0.5 0.9-1 1.3-1.6 3-4.1 5.7-8.5 8-13 2.7-4.8 5.3-9.5 7.9-12.6 0.6-0.7 1.2-1.4 1.9-2 0.6-0.6 1.4-1.1 2.2-1.4 1.6-0.7 3.5-0.3 4.7 0.9 0.3 2.1 0.7 4.1 1.1 6.2v0.1c0.3 1.4 0.6 2.9 0.9 4.4 2 9.5 4.5 18.9 7.6 28.2l0.3 1.1c0.4 1 0.7 2.1 1.1 3.1 0.2 0.5 0.4 0.9 0.5 1.4 0.5 1.3 0.9 2.6 1.4 3.9 9.8 27.2 23.1 54.1 35.5 79.4 10.2 20 19.6 39 26.2 56.2z" fill="#F3F7FF" /><path d="M456.4 862.3c-26.1 16.9-2 9.1-23.7 31.2-16-28.9-103.1-12.9-128.5-31.4 103.8-111.2 72.4-25.3 152.2 0.2z" fill="#E5EAF9" /><path d="M454.3 857c-26.1 16.9-1.9 9.1-23.7 31.1-16-28.8-103.1-12.9-128.5-31.4 103.8-111.1 72.4-25.2 152.2 0.3z" fill="#F3F7FF" /><path d="M733.7 973.6c-9.9 4.8-20 9.2-30.3 13.3-42.9 17.3-88 28.7-134.1 33.8-15.5 1.8-31.1 2.8-47 3.1 7.8-20.1 18-39.2 30.4-56.9 12.3-17.7 26.7-33.8 42.9-48 0.7-0.6 1.4-1.1 2.1-1.7 10.9-9.4 23.2-18.1 36.5-23.5 1.8-0.8 3.6-1.4 5.6-1.6 2.8-0.2 4.4 1.3 5.6 2.6 9.8 10.8 20.9 21.8 33.2 33.1 14.7 13.5 31.2 27.4 49.9 41.8 1.7 1.2 3.5 2.5 5.2 4z" fill="#E5EAF9" /><path d="M735.5 965.1c-2.4 1.4-4.7 2.9-7 4.4-8.4 5.3-16.7 11.1-25 17.4-42.9 17.3-88 28.7-134.1 33.8-15.5 1.8-31.1 2.8-47 3.1h-1.9c7-17.3 16.5-36.3 26.4-56.4 11.2-22.7 22.9-46.8 31.8-71 0.9-2.4 1.8-4.8 2.6-7.2 0.7-1.9 1.3-3.8 1.9-5.6 0.4-1.3 0.9-2.6 1.3-3.9 2.5-8.2 4.7-16.3 6.4-24.4 0.4-1.5 0.7-3 0.9-4.5 0.1-0.8 0.3-1.6 0.4-2.4 0.2-1.2 0.5-2.5 0.7-3.8 0.9-0.9 2.2-1.4 3.5-1.2s2.5 0.8 3.4 1.7c0.7 0.6 1.3 1.3 1.9 2 3.4 4.1 6.9 11 10.5 17.2 1 1.7 1.9 3.3 2.9 4.9 0.5 0.7 0.9 1.4 1.3 2 1.5 2.3 3.4 4.3 5.5 5.9 1.8 1.5 4.2 1.9 6.3 1 1.9-0.8 5.3 0.1 7 0 1.3 0.1 2.5 0.7 3.3 1.7 2 1.9 3.8 4 5.5 6.1 12.6 13.4 25.8 26.1 39.7 38.1 15.3 13.3 32.5 27 51.8 41.1z" fill="#F3F7FF" /><path d="M565.4 867.3c26.1 16.9 2 9.1 23.7 31.2 16-28.9 103.1-12.9 128.5-31.4-103.8-111.1-72.5-25.2-152.2 0.2z" fill="#E5EAF9" /><path d="M567.4 862.1c26.1 16.9 2 9.1 23.7 31.2 16-28.9 103.1-12.9 128.5-31.4-103.8-111.2-72.4-25.3-152.2 0.2z" fill="#F3F7FF" /><path d="M448.4 785.5l-80.9 27.2 59.2 88.4 87.9-75.7-66.2-39.9z" fill="#8FA5B0" /><path d="M440.7 776l-83.4 29.5 61 95.7 93.9-79.9c0-0.1-71.5-45.3-71.5-45.3z" fill="#64C4F4" /><path d="M583.6 776l80.8 29.5-77.5 99.9-77.5-84.1 74.2-45.3z" fill="#64C4F4" /><path d="M502.4 838.5c0 5.4 4.4 9.7 9.8 9.7s9.8-4.4 9.7-9.8c0-5.4-4.4-9.7-9.8-9.7-5.4 0.1-9.7 4.5-9.7 9.8z m0 71.1c0 5.4 4.4 9.7 9.8 9.7s9.8-4.4 9.7-9.8c0-5.4-4.4-9.7-9.8-9.7s-9.7 4.4-9.7 9.8z m0 81.2c0 5.4 4.4 9.7 9.8 9.7s9.8-4.4 9.7-9.8c0-5.4-4.4-9.7-9.8-9.7s-9.7 4.4-9.7 9.8z" fill="#FFFDF8" /><path d="M338.4 885l13.5 6.3c30.6-68 57.2-100.8 87.4-116.4v-17C409.1 773.2 373.1 808 338.4 885z m243.9-130.4v17c29.1 13.4 53 45.8 84.9 124.7l13.8-5.7c-36.4-89.9-63.8-123.3-98.7-136z" fill="#5A7C88" /><path d="M290.2 971.3c-0.1 0.6-0.4 1.1-0.6 1.7-1.5-0.7-3.1-1.5-4.6-2.3 0.1-0.4 0.2-0.7 0.3-1l0.7 0.2 4.2 1.4z m42.3 18.4l-0.8 1.4c-0.9-0.3-1.9-0.7-2.8-1.1-0.7-0.2-1.3-0.5-2-0.8l0.3-0.6c0.3-0.5 0.5-1 0.8-1.4l4.5 2.5z" fill="#879BA0" /><path d="M365.5 923.4l-5.4 12.8-23.9 56.6c-1.5-0.6-2.9-1.1-4.4-1.7-0.9-0.3-1.9-0.7-2.8-1.1-0.7-0.2-1.3-0.5-2-0.8-1.7-0.6-3.3-1.3-5-2l0.9-2 23.9-56.8 4.6-11c0.5-1.1 0.8-2.2 1-3.4 1.1-6.9-2.6-13.7-9.1-16.5-7.7-3.3-16.6 0.3-19.9 8v0.1l-0.8 1.9-15.5 36.8-5.9 13.9-3.7 8.9-3.4 8-4.5-2.1c-1.4-0.8-3-1.5-4.6-2.3-1.6-0.7-3.1-1.5-4.7-2.3l29-68.8c1-2.3 2.2-4.5 3.7-6.4 6.3-8.4 16.5-12.9 27-12 3.2 0.3 6.3 1 9.2 2.3 5.8 2.5 10.7 6.7 14.1 12.1 1 1.6 1.8 3.3 2.5 5.1 2.8 7.4 2.7 15.5-0.3 22.7z" fill="#5A7C88" /><path d="M581.3 714.5v20.4c-40.6 22.2-91.3 18.6-142 0.7v-22.1c0.8 0.2 1.7 0.3 2.5 0.4 22.4 9.8 45.6 15.3 70.6 15.3 24.4-0.1 48.6-5.3 68.9-14.7z" fill="#F4C7A8" /></svg>