<?xml version="1.0" standalone="no"?><!DOCTYPE svg PUBLIC "-//W3C//DTD SVG 1.1//EN" "http://www.w3.org/Graphics/SVG/1.1/DTD/svg11.dtd"><svg class="icon" width="200px" height="200.00px" viewBox="0 0 1024 1024" version="1.1" xmlns="http://www.w3.org/2000/svg"><path d="M512.02 509.68m-446.75 0a446.75 446.75 0 1 0 893.5 0 446.75 446.75 0 1 0-893.5 0Z" fill="#D8D8D8" /><path d="M958.61 511.61A448.7 448.7 0 0 1 756.69 887a444 444 0 0 1-51.24 29.12q-13 6.28-26.42 11.69a440 440 0 0 1-117 29.61q-20.25 2.33-41 2.71c-4 0.09-6.42 0.09-8.81 0.09-2.57 0-5.13 0-7.66-0.09-15.4-0.31-28.85-1.2-42.17-2.71A442.35 442.35 0 0 1 358.6 933c-1.28-0.49-2.57-1-3.85-1.51-3-1.12-3.6-1.34-4.16-1.6q-2.2-0.8-4.34-1.73-12.38-4.86-24.38-10.63-2-0.87-3.89-1.87t-4-2q-2.07-0.93-4.07-2A439.93 439.93 0 0 1 267.62 887 448.69 448.69 0 0 1 65.7 511.61C65.7 263.86 265.58 63 512.15 63s446.46 200.86 446.46 448.61z" fill="#FFD978" /><path d="M509.52 544.18c31 17.06 78.43-112-2.79-104.74s2.79 104.74 2.79 104.74z" fill="#FFE1CC" /><path d="M489.73 846.71a21.81 21.81 0 1 0 21.81-21.91 21.86 21.86 0 0 0-21.81 21.91z" fill="#5A7C88" /><path d="M666.54 788.45a2 2 0 0 1-0.31 0.27c-31.86 28.32-71.73 46-116.16 48.07-2.88 0.13-5.8 0.22-8.72 0.22h-58.41c-2.92 0-5.8-0.09-8.67-0.22q-3.5-0.12-7-0.44a165.44 165.44 0 0 1-18.9-2.62q-2.3-0.34-4.56-0.89a170.63 170.63 0 0 1-26.77-8 174 174 0 0 1-16.9-7.42 195.62 195.62 0 0 1-42-28.68c-0.13 0-0.22-0.18-0.31-0.27-2.7-2.4-5.35-4.85-7.92-7.42-48-47.44-75.54-120.1-69.47-198.18l7.3-94.27 2.12-26.81 1.9-24.9 1.59-20.41C302 305.7 389.08 222.1 488.52 222.1h47.3c99.43 0 186.52 83.59 195.15 194.35l1.15 14.76 11.77 151.62c6.42 82.26-24.51 158.51-77.35 205.6z" fill="#332115" /><path d="M331 544.1c-30.52 17.89-81.38-109.88 0-104.77s0 104.77 0 104.77z m356.28 0c30.52 17.89 81.38-109.88 0-104.77s0.04 104.77 0.04 104.77z" fill="#FFE1CC" /><path d="M706.33 477.48c0 107.75-86.93 224.38-194.17 224.38S318 585.23 318 477.48s86.93-195.1 194.17-195.1 194.16 87.34 194.16 195.1z" fill="#FFE1CC" /><path d="M731 416.77c-8.63-110.76-95.72-194-195.15-194h-47.3c-99.43 0-186.56 83.28-195.19 194l-1.59 20.1c6.24 1.6 12.57 3.11 18.94 4.58q5 1.13 10.22 2.27 20.26 4.32 40.71 7.6 21.61 3.48 43.37 5.83a12.25 12.25 0 0 0 13.22-9.61l13.19-60.29s6 31.5 20 57.54a32.84 32.84 0 0 0 28.12 17.29q10.9 0.27 21.91 0.28a868.83 868.83 0 0 0 162.58-15c12.52-2.36 24.83-5 36.91-7.92l1.59-0.4c10-2.4 19.87-5 29.6-7.78L731 416.77z" fill="#332115" /><path d="M690.6 826c0 47.48-79.89 86-178.44 86s-178.44-38.49-178.44-86 79.89-62.25 178.44-62.25S690.6 778.48 690.6 826z" fill="#FFE1CC" /><path d="M756.69 887a444 444 0 0 1-51.24 29.12q-13 6.28-26.42 11.69a440 440 0 0 1-117 29.61q-20.25 2.33-41 2.71h-1.64c-2.39 0.09-4.78 0.09-7.17 0.09-2.57 0-5.13 0-7.66-0.09h-1.73c-13.67-0.31-27.13-1.2-40.44-2.71A442.35 442.35 0 0 1 358.6 933c-1.28-0.49-2.57-1-3.85-1.51a23 23 0 0 1-2.43-0.93 13.81 13.81 0 0 1-1.73-0.67q-2.2-0.8-4.34-1.73-12.38-4.86-24.38-10.63-2-0.87-3.89-1.87t-4-2q-2.07-0.93-4.07-2A439.93 439.93 0 0 1 267.62 887c13.36-27.12 30.09-49.67 49.65-68.12a212.78 212.78 0 0 1 28.9-23l0.13-0.13c3.76-2.53 7.61-4.94 11.5-7.25 2.79-1.64 5.62-3.25 8.5-4.71a0.77 0.77 0 0 1 0.22-0.18q6.14-3.21 12.43-6.14c0.93-0.45 1.86-0.84 2.79-1.25q7.43-3.35 15.09-6.14c1.55-0.58 3-1.16 4.56-1.69 0.18 0 0.35-0.13 0.53-0.18q3.49-1.19 7-2.31c2.26-0.76 4.51-1.42 6.77-2.09a3.44 3.44 0 0 0 0.13 1.29 18.41 18.41 0 0 0 1 3.11c0.22 0.58 0.49 1.16 0.8 1.82a81.43 81.43 0 0 0 4.47 8.31 194.31 194.31 0 0 0 13.41 19.52s0.09 0.13 0.13 0.18c1.5 1.91 3.1 3.87 4.69 5.87a0.14 0.14 0 0 0 0 0.09c0.09 0 0.13 0.13 0.18 0.18q3 3.58 6.06 7.07c2.43 2.67 5 5.34 7.52 8 1.15 1.11 2.3 2.27 3.45 3.38s2.46 2.34 3.72 3.47q1.63 1.56 3.36 3 2.62 2.24 5.31 4.4 2.11 1.64 4.25 3.25a96.55 96.55 0 0 0 15.49 9.38 53.51 53.51 0 0 0 20.18 5.65 17.72 17.72 0 0 0 2.17 0.09 18.1 18.1 0 0 0 2.17-0.09 52.19 52.19 0 0 0 19-5.11 97.77 97.77 0 0 0 16.73-9.92c1.86-1.33 3.67-2.76 5.49-4.22 2.57-2 5-4.22 7.52-6.49q1.82-1.61 3.54-3.33c1.73-1.6 3.36-3.29 5-5 2.35-2.4 4.56-4.8 6.77-7.25 1.15-1.33 2.26-2.67 3.41-4s2.43-2.89 3.63-4.36q6.54-8.1 12.35-16.76a121.18 121.18 0 0 0 9.11-15.34c0.13-0.36 0.31-0.67 0.44-1 1-2.4 1.55-4.22 1.46-5.29 4.6 1.33 9.12 2.76 13.59 4.36q2.44 0.8 4.82 1.73c4.42 1.6 8.81 3.33 13.1 5.25q8.74 3.73 17.13 8.23h0.09q4.67 2.4 9.2 5.07c37.25 21.88 68.27 54.16 90.13 98.54z" fill="#FFFDF8" /><path d="M449.1 609.57v182.3H573v-182.3H449.1z" fill="#FFE1CC" /><path d="M608.89 785.2l-0.22 0.71-9.38 34.46-2.17 8-1 3.69-0.75 2.85-1.19 4.36-7.43 27.3-10.8 39.62L562 957.41q-20.25 2.33-41 2.71h-1.64c-2.39 0.09-4.78 0.09-7.17 0.09-2.57 0-5.13 0-7.66-0.09h-1.73c-13.67-0.31-27.13-1.2-40.44-2.71-4.25-16.59-8.63-33.88-13-51q-5.22-20.64-10.53-41.26-2.08-8.12-4.2-16.23a4.37 4.37 0 0 0-0.27-1c-1-4-2-7.78-3-11.52-0.35-1.47-0.75-2.89-1.11-4.31-0.27-1-0.49-2-0.75-2.89-1.59-6.18-3.1-11.92-4.47-17.21-2.74-10.32-5-18.81-6.64-24.77q-0.54-1.86-1.06-3.73a39.08 39.08 0 0 0-1.81-5.56l6.55 0.58 27 2.49 56.31 5h8.31l59.34-0.44 24.87-0.18 9.16-0.09h1.86z" fill="#79C4FF" /><path d="M502.77 960.13c-13.67-0.31-27.13-1.2-40.44-2.71A442.35 442.35 0 0 1 358.6 933c-1.28-0.49-2.57-1-3.85-1.51a23 23 0 0 1-2.43-0.93 13.81 13.81 0 0 1-1.73-0.67q-2.2-0.8-4.34-1.73-12.38-4.86-24.38-10.63-2-0.87-3.89-1.87t-4-2a5.79 5.79 0 0 0 0.88-0.67c2.12-1.6 4.25-3.25 6.33-4.85 2.35-1.82 4.65-3.6 6.9-5.42 12.74-10.09 24.29-19.92 34.83-29.57q5-4.55 9.87-9.2 5.92-5.74 11.68-11.65 4.7-4.85 9.25-9.83c1.11-1.2 2.39-2.49 4.91-2.31a16.63 16.63 0 0 1 4.87 1.42c12.3 5.07 23.72 13.38 33.68 22.14 0.58 0.49 1.11 1 1.64 1.47a230.77 230.77 0 0 1 38.85 45.13 239 239 0 0 1 25.09 49.8z" fill="#E5EAF9" /><path d="M504.5 960.13h-1.73c-13.67-0.31-27.13-1.2-40.44-2.71A442.35 442.35 0 0 1 358.6 933c-1.28-0.49-2.57-1-3.85-1.51a23 23 0 0 1-2.43-0.93c-0.49-0.36-1-0.76-1.46-1.16-1.28-1-2.57-2-3.85-3-7.3-5.69-14.69-11-22.17-15.87q-1.77-1.25-3.63-2.36-3-2-6.15-3.87 9.18-6.75 18.19-13.74 13.54-10.61 25.31-20.81 7-6 13.67-12.27 5.12-4.74 10.09-9.65 6.4-6.31 12.52-12.89a61.81 61.81 0 0 1 4.82-5.38 4.7 4.7 0 0 1 3-1.56c1.46 0.13 4.47-0.62 6.06 0a5.53 5.53 0 0 0 5.44-0.8h0.09a14.36 14.36 0 0 0 2.66-2.4c0.4-0.45 0.75-0.89 1.15-1.38a90.48 90.48 0 0 0 7-11.43c2.34-4.18 4.6-8.31 6.86-11a13.08 13.08 0 0 1 1.68-1.78 6.64 6.64 0 0 1 1.9-1.25 3.67 3.67 0 0 1 4.11 0.8c0.27 1.82 0.58 3.6 0.93 5.42v0.09c0.22 1.25 0.49 2.53 0.8 3.82a215.71 215.71 0 0 0 6.66 24.69l0.27 0.93c0.31 0.89 0.62 1.82 0.93 2.76 0.18 0.4 0.31 0.8 0.44 1.2 0.4 1.16 0.8 2.27 1.24 3.42 8.54 23.83 20.18 47.44 31 69.59 8.67 17.7 16.86 34.37 22.61 49.45z" fill="#F3F7FF" /><path d="M463.5 818.59c-22.79 14.82-1.73 8-20.72 27.31-14-25.31-90-11.27-112.13-27.48 90.63-97.42 63.25-22.16 132.85 0.17z" fill="#E5EAF9" /><path d="M461.69 814c-22.79 14.79-1.69 8-20.69 27.28C427 816 351 830 328.84 813.8c90.62-97.42 63.24-22.16 132.85 0.2z" fill="#F3F7FF" /><path d="M705.44 916.11q-13 6.28-26.42 11.69a440 440 0 0 1-117 29.61q-20.25 2.33-41 2.71a240.26 240.26 0 0 1 26.51-49.89 231.23 231.23 0 0 1 37.44-42.06c0.58-0.53 1.19-1 1.81-1.51 9.52-8.23 20.27-15.87 31.86-20.63a16.6 16.6 0 0 1 4.87-1.42c2.48-0.18 3.81 1.11 4.91 2.31q12.88 14.14 29 29c12.83 11.83 27.26 24 43.5 36.64 1.5 1.15 3.05 2.31 4.6 3.51z" fill="#E5EAF9" /><path d="M707 908.72q-3.11 1.89-6.15 3.87-11 6.94-21.82 15.21a440 440 0 0 1-117 29.61q-20.25 2.33-41 2.71h-1.64c6.11-15.16 14.43-31.84 23-49.44 9.78-19.92 20-41 27.79-62.25q1.18-3.12 2.3-6.27c0.58-1.64 1.11-3.29 1.64-4.89 0.35-1.16 0.75-2.27 1.11-3.38 2.21-7.16 4.12-14.27 5.58-21.39 0.31-1.33 0.58-2.62 0.8-3.91 0.13-0.71 0.27-1.42 0.35-2.13q0.32-1.64 0.58-3.29a3.77 3.77 0 0 1 3.05-1.07 5.28 5.28 0 0 1 3 1.51 13 13 0 0 1 1.68 1.78c3 3.6 6 9.6 9.12 15.07 0.84 1.47 1.68 2.93 2.57 4.27 0.4 0.62 0.8 1.2 1.15 1.73a21 21 0 0 0 4.82 5.16 5.51 5.51 0 0 0 5.53 0.89c1.64-0.67 4.65 0.09 6.11 0a4.43 4.43 0 0 1 2.92 1.51 55.23 55.23 0 0 1 4.82 5.38 453.42 453.42 0 0 0 34.65 33.39q20 17.48 45.13 36z" fill="#F3F7FF" /><path d="M558.58 823c22.79 14.82 1.73 8 20.72 27.31 14-25.31 90-11.27 112.13-27.48-90.62-97.39-63.24-22.13-132.85 0.17z" fill="#E5EAF9" /><path d="M560.4 818.42c22.79 14.82 1.73 8 20.72 27.31 14-25.31 90-11.27 112.13-27.48-90.62-97.42-63.25-22.15-132.85 0.17z" fill="#F3F7FF" /><path d="M456.52 751.33l-70.62 23.85 51.64 77.46 76.69-66.36-57.71-34.95z" fill="#8FA5B0" /><path d="M449.85 742.96l-72.8 25.82 53.23 83.86 81.94-70.01-62.37-39.67z" fill="#64C4F4" /><path d="M574.47 742.96l70.51 25.82-67.59 87.57-67.59-73.72 64.67-39.67z" fill="#64C4F4" /><path d="M503.62 797.8a8.53 8.53 0 1 0 8.53-8.57 8.55 8.55 0 0 0-8.53 8.57zM503.62 860.05a8.53 8.53 0 1 0 8.53-8.57 8.55 8.55 0 0 0-8.53 8.57zM503.62 931.19a8.53 8.53 0 1 0 8.53-8.57 8.55 8.55 0 0 0-8.53 8.57z" fill="#FFFDF8" /><path d="M360.56 838.53l11.8 5.48c26.68-59.56 49.9-88.34 76.27-102v-14.9c-26.37 13.46-57.84 43.94-88.07 111.42z m212.81-114.26v14.93c25.35 11.78 46.23 40.09 74.07 109.26l12-5c-31.69-78.84-55.64-108.09-86.07-119.19z" fill="#5A7C88" /><path d="M318.47 914.15c-0.13 0.49-0.31 1-0.49 1.51q-2-0.95-4-2c0.09-0.31 0.18-0.58 0.27-0.84l0.62 0.18 3.58 1.16z m36.95 16.14l-0.66 1.2a23 23 0 0 1-2.43-0.93 13.81 13.81 0 0 1-1.73-0.67 4.73 4.73 0 0 1 0.27-0.49c0.22-0.45 0.44-0.84 0.66-1.25l3.89 2.13z" fill="#879BA0" /><path d="M384.18 872.17l-4.73 11.25L358.6 933c-1.28-0.49-2.57-1-3.85-1.51a23 23 0 0 1-2.43-0.93 13.81 13.81 0 0 1-1.73-0.67q-2.2-0.8-4.34-1.73l0.75-1.78 20.89-49.8 4-9.6a14.78 14.78 0 0 0 0.89-3 13.49 13.49 0 0 0-7.92-14.45 13.25 13.25 0 0 0-17.39 7.11l-0.71 1.64-13.54 32.28-5.13 12.18-3.27 7.78-3 7q-2-0.87-3.89-1.87t-4-2q-2.07-0.93-4.07-2l25.31-60.25a25.38 25.38 0 0 1 3.27-5.65 26.39 26.39 0 0 1 23.58-10.49 25.8 25.8 0 0 1 8 2 27.13 27.13 0 0 1 12.26 10.58 27.94 27.94 0 0 1 2.17 4.49 26.44 26.44 0 0 1-0.31 19.88z" fill="#5A7C88" /><path d="M572.51 689.11v17.83c-35.4 19.43-79.65 16.27-123.9 0.58v-19.38a18.64 18.64 0 0 0 2.18 0.36c19.56 8.58 39.82 13.38 61.59 13.38 21.24 0 42.43-4.58 60.13-12.76z" fill="#F4C7A8" /></svg>