<?xml version="1.0" standalone="no"?><!DOCTYPE svg PUBLIC "-//W3C//DTD SVG 1.1//EN" "http://www.w3.org/Graphics/SVG/1.1/DTD/svg11.dtd"><svg class="icon" width="200px" height="200.00px" viewBox="0 0 1024 1024" version="1.1" xmlns="http://www.w3.org/2000/svg"><path d="M128.1 0H896c85.3 0 128 42.7 128 128.1v767.8c0 85.4-42.7 128.1-128.1 128.1H128.1C42.7 1023.9 0 981.2 0 895.8V128.1C0 42.7 42.7 0 128.1 0z" fill="#FF82AA" /><path d="M759.7 264.3c-94.4-94.4-247.4-94.4-341.9-0.1-84.8 84.8-94.6 218.9-23.2 315.1l-41.5 41.6-99.3-99.3c-13.8-13.8-36.2-13.8-50 0-13.8 13.8-13.8 36.2 0 50l99.3 99.3-38.5 38.5c-13.4 14.2-12.6 36.6 1.6 50 13.6 12.8 34.8 12.8 48.4 0l38.5-38.5 99.3 99.3c13.8 13.8 36.2 13.8 50 0s13.8-36.2 0-50l-99.3-99.3 41.6-41.6c107.2 79.6 258.6 57.2 338.2-49.9 71.4-96.2 61.6-230.3-23.2-315.1z m-50 291.9c-66.8 66.8-175 66.8-241.8 0s-66.8-175 0-241.8 175-66.8 241.8 0c32.1 32.1 50.1 75.6 50.1 120.9 0.1 45.3-18 88.8-50.1 120.9z" fill="#FFFFFF" /></svg>