<?xml version="1.0" standalone="no"?><!DOCTYPE svg PUBLIC "-//W3C//DTD SVG 1.1//EN" "http://www.w3.org/Graphics/SVG/1.1/DTD/svg11.dtd"><svg class="icon" width="200px" height="200.00px" viewBox="0 0 1024 1024" version="1.1" xmlns="http://www.w3.org/2000/svg"><path d="M394.34 165.73l36.37 45H936a25.66 25.66 0 0 1 25.78 25.54v623.6H64.18V181.7a25.43 25.43 0 0 1 7.55-18.06A25.9 25.9 0 0 1 90 156.16h284.21a25.87 25.87 0 0 1 20.13 9.57z" fill="#FFC652" /><path d="M64.18 856.57V289.24a10 10 0 0 1 10-9.92h877.6a10 10 0 0 1 10 9.92v567.33z" fill="#FFEEC5" /><path d="M64.18 859.87V292a9.39 9.39 0 0 1 9.44-9.35h878.75a9.39 9.39 0 0 1 9.43 9.35v567.9z" fill="#FFE28B" /></svg>