<?xml version="1.0" standalone="no"?><!DOCTYPE svg PUBLIC "-//W3C//DTD SVG 1.1//EN" "http://www.w3.org/Graphics/SVG/1.1/DTD/svg11.dtd"><svg class="icon" width="200px" height="200.00px" viewBox="0 0 1024 1024" version="1.1" xmlns="http://www.w3.org/2000/svg"><path d="M376.7 121.5l41.5 51.3h576.4c16.2-0.1 29.3 13 29.4 29.1v711.4H0V139.7c0-7.7 3.1-15.2 8.6-20.6 5.5-5.5 13-8.6 20.8-8.5h324.2c9 0 17.4 4 23.1 10.9z" fill="#FFC652" /><path d="M0 909.6V262.4c0.1-6.3 5.1-11.3 11.4-11.3h1001.2c6.3 0 11.4 5.1 11.4 11.3v647.2H0z" fill="#FFEEC5" /><path d="M0 913.4V265.6c0-5.9 4.8-10.7 10.8-10.7h1002.5c5.9 0 10.7 4.8 10.8 10.7v647.9L0 913.4z" fill="#FFE28B" /></svg>