<?xml version="1.0" standalone="no"?><!DOCTYPE svg PUBLIC "-//W3C//DTD SVG 1.1//EN" "http://www.w3.org/Graphics/SVG/1.1/DTD/svg11.dtd"><svg class="icon" width="200px" height="200.00px" viewBox="0 0 1024 1024" version="1.1" xmlns="http://www.w3.org/2000/svg"><path fill="#333333" d="M66.77 512.25C66.77 266 266.4 66.33 512.69 66.33S958.61 266 958.61 512.25s-199.7 445.92-445.92 445.92S66.77 758.6 66.77 512.25z m621.85 265.39l-441.2-441.2a316.21 316.21 0 0 0-53.25 175.87c0 175.87 142.58 318.51 318.51 318.51a317.19 317.19 0 0 0 175.94-53.18zM336.88 247l441.19 441.12a316.89 316.89 0 0 0 53.13-175.81c0-175.93-142.59-318.51-318.51-318.51A316.79 316.79 0 0 0 336.88 247z"  /></svg>