<?xml version="1.0" standalone="no"?><!DOCTYPE svg PUBLIC "-//W3C//DTD SVG 1.1//EN" "http://www.w3.org/Graphics/SVG/1.1/DTD/svg11.dtd"><svg class="icon" width="200px" height="200.00px" viewBox="0 0 1024 1024" version="1.1" xmlns="http://www.w3.org/2000/svg"><path d="M192 0h640c106 0 192 86 192 192v640c0 106-86 192-192 192H192C86 1024 0 938 0 832V192C0 86 86 0 192 0z" fill="#B3B3B3" /><path d="M192 128c-35.3 0-64 28.7-64 64v640c0 35.3 28.7 64 64 64h640c35.3 0 64-28.7 64-64V192c0-35.3-28.7-64-64-64H192z" fill="#E8E8E8" /><path d="M470.7 795.8l-304.9-281 86.7-94.1 203.6 187.6 301.8-380.2 100.3 79.6-387.5 488.1z" fill="#B3B3B3" /></svg>