<?xml version="1.0" standalone="no"?><!DOCTYPE svg PUBLIC "-//W3C//DTD SVG 1.1//EN" "http://www.w3.org/Graphics/SVG/1.1/DTD/svg11.dtd"><svg class="icon" width="200px" height="200.00px" viewBox="0 0 1024 1024" version="1.1" xmlns="http://www.w3.org/2000/svg"><path fill="#333333" d="M512 0C229.3 0 0 229.3 0 512s229.3 512 512 512 512-229.3 512-512S794.7 0 512 0zM351.9 320.2c52.8 0 96.2 42.8 96.2 96.2S404.7 512 351.9 512c-52.8 0-96.2-42.8-96.2-96.2 0.6-52.8 43.4-95.6 96.2-95.6zM191.8 703.8c0-57.5 7-69.2 31.7-94.4C251.1 581.8 302.7 576 349 576c41.6 0 102.6 7 130.8 33.4 31.7 29.3 31.1 47.5 31.1 94.4H191.8z m575.9-63.9H575.9V576h191.8v63.9zM832.2 512H576.5v-63.9h255.7V512z m0-127.9H576.5v-63.9h255.7v63.9z" /></svg>