<?xml version="1.0" standalone="no"?><!DOCTYPE svg PUBLIC "-//W3C//DTD SVG 1.1//EN" "http://www.w3.org/Graphics/SVG/1.1/DTD/svg11.dtd"><svg class="icon" width="200px" height="200.00px" viewBox="0 0 1024 1024" version="1.1" xmlns="http://www.w3.org/2000/svg"><path fill="#333333" d="M661.74 864.11H262.06V864H363V724.16c0-0.94 0.26-1.81 0.26-2.71 1.49-81.89 67.66-148.12 149.11-148.12S660 639.59 661.48 721.45c0 0.9 0.26 1.77 0.26 2.71z m281.11-503.22l-94.4-62.35V177.71a37.34 37.34 0 1 0-74.68 0v71.54L532.83 90a42.49 42.49 0 0 0-41.67 0l-410 270.91a37.84 37.84 0 0 0-10.77 52.13 37.16 37.16 0 0 0 51.7 10.86l16.88-11.18v462.54c0 35.39 31.7 64.23 70.69 64.23H815.1c39 0 70.69-28.84 70.69-64.23v-462L902 423.92A37.15 37.15 0 0 0 953.64 413a37.83 37.83 0 0 0-10.79-52.11z"  /></svg>