<?xml version="1.0" standalone="no"?><!DOCTYPE svg PUBLIC "-//W3C//DTD SVG 1.1//EN" "http://www.w3.org/Graphics/SVG/1.1/DTD/svg11.dtd"><svg class="icon" width="200px" height="200.00px" viewBox="0 0 1024 1024" version="1.1" xmlns="http://www.w3.org/2000/svg"><path fill="#333333" d="M341.6 914.6v-160c0-1.1 0.3-2.1 0.3-3.1 1.7-93.6 77.4-169.4 170.5-169.4s168.8 75.8 170.5 169.4c0 1 0.3 2 0.3 3.1v160m321.6-575.4l-107.9-71.3V129.7c0-23.6-19.1-42.7-42.7-42.7s-42.7 19.1-42.7 42.7v81.8L535.8 29.4c-14.8-8.3-32.9-8.3-47.7 0L19.3 339.2C-0.4 352.3-5.9 378.9 7 398.8c12.7 19.7 39 25.4 58.7 12.7 0.1-0.1 0.3-0.2 0.4-0.2l19.3-12.8v529c0 40.5 36.2 73.4 80.8 73.4h692.4c44.6 0 80.8-33 80.8-73.4V399.1l18.5 12.2c19.6 12.9 45.9 7.4 58.8-12.2 0.1-0.1 0.1-0.2 0.2-0.3 13.1-19.9 7.6-46.5-12.1-59.6z" /></svg>