<?xml version="1.0" standalone="no"?><!DOCTYPE svg PUBLIC "-//W3C//DTD SVG 1.1//EN" "http://www.w3.org/Graphics/SVG/1.1/DTD/svg11.dtd"><svg class="icon" width="200px" height="200.00px" viewBox="0 0 1024 1024" version="1.1" xmlns="http://www.w3.org/2000/svg"><path d="M78.925 593.5L51.425 566c-3.5-3.5-3.5-7 0-10.6l27.5-27.5c3.5-3.5 7-3.5 10.6 0l27.5 27.5c3.5 3.5 3.5 7 0 10.6l-27.5 27.5c-3.6 3.5-7.1 3.5-10.6 0z" fill="#4385F5" /><path d="M176.425 496l-27.5-27.5c-3.5-3.5-3.5-7 0-10.6l27.5-27.5c3.5-3.5 7-3.5 10.6 0l27.5 27.5c3.5 3.5 3.5 7 0 10.6L186.925 496c-3.5 3.5-7 3.5-10.5 0zM51.425 458L79.025 430.5c3.5-3.5 7-3.5 10.6 0L117.025 458c3.5 3.5 3.5 7 0 10.6l-27.5 27.5c-3.5 3.5-7 3.5-10.6 0l-27.5-27.5c-3.5-3.5-3.5-7 0-10.6z" fill="#E94434" /><path d="M148.925 555.5l27.5-27.5c3.5-3.5 7-3.5 10.6 0l27.5 27.5c3.5 3.5 3.5 7 0 10.6L187.025 593.6c-3.5 3.5-7 3.5-10.6 0l-27.5-27.5c-3.5-3.5-3.5-7 0-10.6zM100.125 506.7l27.5-27.5c3.5-3.5 7-3.5 10.6 0l27.5 27.5c3.5 3.5 3.5 7 0 10.6l-27.5 27.5c-3.5 3.5-7 3.5-10.6 0l-27.5-27.5c-3.5-3.6-3.5-7.1 0-10.6zM30.225 544.8L2.625 517.2c-3.5-3.5-3.5-7 0-10.6l27.5-27.5c3.5-3.5 7-3.5 10.6 0l27.5 27.5c3.5 3.5 3.5 7 0 10.6l-27.5 27.5c-3.5 3.6-7 3.6-10.5 0.1zM225.125 544.8l-27.5-27.5c-3.5-3.5-3.5-7 0-10.6l27.5-27.5c3.5-3.5 7-3.5 10.6 0l27.5 27.5c3.5 3.5 3.5 7 0 10.6l-27.5 27.5c-3.6 3.5-7.1 3.5-10.6 0z" fill="#4385F5" /><path d="M100.125 409.3l27.5-27.5c3.5-3.5 7-3.5 10.6 0l27.5 27.5c3.5 3.5 3.5 7 0 10.6l-27.5 27.5c-3.5 3.5-7 3.5-10.6 0l-27.5-27.5c-3.5-3.6-3.5-7.1 0-10.6zM100.125 604.1l27.5-27.5c3.5-3.5 7-3.5 10.6 0l27.5 27.5c3.5 3.5 3.5 7 0 10.6l-27.5 27.5c-3.5 3.5-7 3.5-10.6 0l-27.5-27.5c-3.5-3.5-3.5-7 0-10.6z" fill="#E94434" /><path d="M1014.225 601.6V615h-6.8v-13.3l-10-19.7h7.7l5.8 11.9 5.5-12h7.4l-9.6 19.7zM361.725 582l-8.9 32.8h-5.6l-4.5-17.5-4.8 17.5h-5.8l-8.6-32.8h7.2l4.6 19.5 4.8-19.4h5.2l4.1 19.4 5-19.4h7.3z m97.2 0l-8.9 32.8h-5.6l-4.5-17.5-4.8 17.5h-5.8l-8.6-32.8h7.2l4.6 19.5 4.8-19.4h5.1l4.4 19.4 5-19.4h7.1z m-56.1 22.3c-0.7 6.4-6.4 11-12.7 10.4-5.5-0.6-9.8-4.9-10.4-10.4v-11.8c0.7-6.4 6.4-11 12.7-10.4 5.5 0.6 9.8 4.9 10.4 10.4v11.8z m-6.8-11.2c0-2.7-2.2-4.8-4.8-4.8-2.7 0-4.8 2.2-4.8 4.8v10.5c0 2.7 2.2 4.8 4.8 4.8 2.7 0 4.8-2.2 4.8-4.8v-10.5z m101.8 11.7c0.2 5.4-3.9 9.9-9.3 10.1h-1.4c-5.2 0.4-9.7-3.4-10.1-8.6v-2.7h6.5v1c0 2.8 1.5 4.1 3.4 4.1 2.8 0 4.1-1.7 4.1-4.5v-15.6h-6.2V582h12.9l0.1 22.8z m41.1-0.4c-0.7 6.4-6.4 11-12.7 10.4-5.5-0.6-9.8-4.9-10.4-10.4v-11.9c0.7-6.4 6.4-11 12.7-10.4 5.5 0.6 9.8 4.9 10.4 10.4v11.9z m-6.7-11.2c0-2.7-2.2-4.8-4.8-4.8s-4.8 2.2-4.8 4.8v10.7c0 2.7 2.2 4.8 4.8 4.8s4.8-2.2 4.8-4.8v-10.7z m41.5 8.4v13.1h-6.8v-13.1l-10-19.6h7.8l5.8 11.9L576.025 582h7.4l-9.7 19.6z m80.6-13h-7.8V615h-6.8v-26.4h-7.9V582h22.5v6.6z m39.8 26.1h-21.8V582h21.1v6.6H679.025v5.6h12.8v6.3H679.025v7.8h15l0.1 6.4z m30 0.3c-6 0.4-11.1-4.1-11.5-10.1V592.7c0.2-6 5.2-10.7 11.1-10.5h0.4c5.5-0.5 10.4 3.4 11.2 8.8 0.1 0.5 0.1 0.9 0 1.4h-6.4c0-0.5-0.1-1-0.3-1.4-0.9-1.6-2.6-2.4-4.4-2.2-2.4-0.2-4.5 1.5-4.8 3.9V604c-0.2 2.4 1.7 4.5 4.1 4.7h0.7c2.3 0 4.1-0.9 4.5-3.2 0.1-0.6 0.1-1.1 0-1.7h6.5s0.2 0.3 0.2 1.6c-0.6 5.6-5.5 9.9-11.3 9.6z m52.4-33v33h-6.8v-13.8h-9.6V615h-6.7v-33h6.8v12.2h9.6V582h6.7z m41 0v32.8h-6.2l-10-19.4V615h-6.8v-33h6.3l10.1 17.9V582h6.6z m41 22.3c-0.5 6.3-6.1 11.1-12.5 10.5-5.6-0.5-10-4.9-10.5-10.5v-11.9c0.5-6.3 6.1-11.1 12.5-10.5 5.6 0.5 10 4.9 10.5 10.5v11.9z m-6.7-11.3c-0.2-2.6-2.6-4.6-5.2-4.3-2.3 0.2-4.1 2-4.3 4.3v10.6c0 2.6 2.1 4.8 4.8 4.8 2.6 0 4.8-2.1 4.8-4.8l-0.1-10.6z m45.1 22h-20.3v-33h6.8v26.4H897.025l-0.1 6.6z m41.1-10.6c-0.7 6.4-6.4 11-12.7 10.4-5.5-0.6-9.8-4.9-10.4-10.4v-11.9c0.7-6.4 6.4-11 12.7-10.4 5.5 0.6 9.8 4.9 10.4 10.4v11.9z m-6.7-11.3c0-2.7-2.2-4.8-4.8-4.8s-4.8 2.2-4.8 4.8v10.7c0 2.7 2.2 4.8 4.8 4.8s4.8-2.2 4.8-4.8v-10.7z m47.7 12.2c-0.6 5.8-5.7 10.1-11.5 9.7-5.7 0.6-10.9-3.6-11.4-9.3V592.3c0.2-5.9 5.1-10.6 11-10.4h0.4c5.3 0 11.5 3.3 11.5 9.5 0.1 0.4 0.1 0.9 0 1.3h-6.2c0-2.4-2-4.4-4.4-4.4-0.3 0-0.5 0-0.8 0.1-2.5-0.1-4.6 2-4.7 4.5v11c0.1 2.6 2.2 4.6 4.9 4.6 2.6-0.1 4.6-2.2 4.6-4.9h-5.1v-6.3h11.8l-0.1 8zM815.825 414.2h13.8v142.9h-13.8V414.2z" fill="#504A47" /><path d="M765.725 523.5l-2-13.8 74.1-10.7 2 13.8-74.1 10.7z m7.1-99.3l11.3-8.1 23.3 32.8L796.025 457l-23.2-32.8z m-7.2 36.9l11.2-8 26.6 37.6-11.2 8-26.6-37.6z m-9.5-38.8l-3.2-13.4c-22 4.1-40.6 7.1-59.7 10.1l2.7 13.4c23.4-3.3 37.7-5.6 60.2-10.1z m-41.9 41.5h-12.7c-0.6 27.3-2 60.9-9.5 79.8h14.4c6.3-23.1 7.6-52.5 7.8-79.8z m23.5 0c-0.7 26.8 2 53.6 7.8 79.8h14.7c-5.9-26.2-9.1-53-9.5-79.8h-13z" fill="#504A47" /><path d="M719.925 423.2h13.8v133.9h-13.8V423.2z" fill="#504A47" /><path d="M761.325 447.8v13.9h-66.6v-13.9h66.6z m252.4 33.2l-10-9.9c-10.6 21-69 73.7-85.2 86.1h22.8c17.2-16.6 58.5-52.6 72.4-76.2z m0-53v13.9h-79.5V428h79.5z" fill="#504A47" /><path d="M1013.825 467.2v13.9h-79.5v-13.9h79.5z" fill="#504A47" /><path d="M968.125 409H982.025l-0.4 69.8h-13.8c-0.1 0 0.3-69.8 0.3-69.8z m55.9 148.3l-70.7-69.2-12.4 10 60 59.3 23.1-0.1zM922.225 482l5.4 12.8-46.3 19.6-5.4-12.8 46.3-19.6z" fill="#504A47" /><path d="M896.525 409l13.8-0.1 0.7 148.1-13.8 0.1-0.7-148.1z" fill="#504A47" /><path d="M925.725 440.8l0.1 13.9-48.1 0.2-0.1-13.9 48.1-0.2zM910.925 544l0.1 13.1-35.1 0.1-0.1-13.1 35.1-0.1zM574.525 409.9h14.2l-0.1 34.9h-14.2l0.1-34.9z" fill="#504A47" /><path d="M588.625 433.4v-14.3l56.5 0.1v14.3l-56.5-0.1z m-80.5 96.4v-14.3l147.8 0.2V530l-147.8-0.2z" fill="#504A47" /><path d="M575.125 505.8h14.2l-0.1 51.7H575.025l0.1-51.7z m-39.3 0h-14.2l0.1-61.2h14.2l-0.1 61.2z m107 0h-14.2l0.1-61.2h14.2l-0.1 61.2z" fill="#504A47" /><path d="M521.525 505.7v-14.3l121.3 0.2v14.3l-121.3-0.2z m0-46.7v-14.3l121.3 0.2v14.3l-121.3-0.2z m0 23.3V468l121.3 0.2v14.3l-121.3-0.2z m-62.7-51.4l-7-10.8c-29.3 18.7-58.2 35.4-82.7 45.5l5.2 11.9c29.6-12.8 57.9-28.4 84.5-46.6z" fill="#504A47" /><path d="M398.625 414.6h14.2v73.6h-14.2v-73.6z" fill="#504A47" /><path d="M471.725 473.8v14.3h-73.1v-14.3h73.1zM359.825 499H346.025v-50.9l13.8-12V499z m-35.9 22.5v-14.3l148-1 0.1 14.3-148.1 1z" fill="#504A47" /><path d="M406.725 557l-14.2 0.1-0.5-60.4 14.2-0.1 0.5 60.4zM324.025 456.7l10.2 9.7c8.8-6.5 17.1-13.6 24.8-21.5 8.1-7.5 15.1-16.2 20.6-25.8l-9.8-10.1c-5.6 9.1-12.3 17.6-19.8 25.2-7.9 8.3-16.6 15.8-26 22.5z" fill="#504A47" /></svg>