<?xml version="1.0" standalone="no"?><!DOCTYPE svg PUBLIC "-//W3C//DTD SVG 1.1//EN" "http://www.w3.org/Graphics/SVG/1.1/DTD/svg11.dtd"><svg class="icon" width="200px" height="200.00px" viewBox="0 0 1024 1024" version="1.1" xmlns="http://www.w3.org/2000/svg"><path fill="#333333" d="M512.15 64.36C265 64.36 64.69 264.71 64.69 511.81S265 959.25 512.15 959.25s447.44-200.31 447.44-447.44S759.26 64.36 512.15 64.36z m0 811c-200.8 0-363.56-162.76-363.56-363.55s162.79-363.55 363.56-363.55S875.68 311 875.68 511.81 712.92 875.36 512.15 875.36z m-17.57-634.72a52.17 52.17 0 1 1-36.92 15.27 52.8 52.8 0 0 1 36.92-15.27zM609.1 706.85c20.59 0 37.29 16.44 37.29 36.72s-16.69 36.72-37.29 36.72H459.95c-20.59 0-37.29-16.44-37.29-36.72s16.69-36.72 37.29-36.72h37.29V486h-37.29c-20.59 0-37.29-16.44-37.29-36.72s16.69-36.72 37.29-36.72h74.58c20.59 0 37.29 16.44 37.29 36.72v257.57z"  /></svg>