<?xml version="1.0" standalone="no"?><!DOCTYPE svg PUBLIC "-//W3C//DTD SVG 1.1//EN" "http://www.w3.org/Graphics/SVG/1.1/DTD/svg11.dtd"><svg class="icon" width="200px" height="200.00px" viewBox="0 0 1024 1024" version="1.1" xmlns="http://www.w3.org/2000/svg"><path fill="#333333" d="M512 959.55C264.83 959.55 64.45 759.17 64.45 512S264.83 64.45 512 64.45 959.55 264.83 959.55 512 759.17 959.55 512 959.55z m-37.3-679.36c0 20.28 16.7 36.72 37.3 36.72s37.3-16.44 37.3-36.72-16.7-36.72-37.3-36.72-37.3 16.44-37.3 36.72z m111.89 404.52H549.3V427.08c0-20.28-16.7-36.72-37.3-36.72h-74.59c-20.6 0-37.3 16.44-37.3 36.72s16.7 36.72 37.3 36.72h37.29v220.9h-37.29c-20.6 0-37.3 16.44-37.3 36.72s16.7 36.72 37.3 36.72h149.18c20.6 0 37.3-16.44 37.3-36.72s-16.7-36.71-37.3-36.71z"  /></svg>