<?xml version="1.0" standalone="no"?><!DOCTYPE svg PUBLIC "-//W3C//DTD SVG 1.1//EN" "http://www.w3.org/Graphics/SVG/1.1/DTD/svg11.dtd"><svg class="icon" width="200px" height="200.00px" viewBox="0 0 1024 1024" version="1.1" xmlns="http://www.w3.org/2000/svg"><path fill="#333333" d="M895.14 179.86c-0.77-0.41-1.47-0.92-2.24-1.35-1.35-0.71-2.71-1.3-4.09-2-2.3-1.16-4.62-2.38-7-3.4-0.37-0.16-0.82-0.24-1.18-0.45a127.14 127.14 0 0 0-35.27-8.86c-0.79-0.1-1.63-0.06-2.48-0.12-3.44-0.27-6.95-0.53-10.48-0.53H683.81v-44.78a36.52 36.52 0 0 0-36.47-36.51H376a36.52 36.52 0 0 0-36.47 36.51v44.82H191a127 127 0 0 0-127 127v525a126.86 126.86 0 0 0 64.22 110.29c0.77 0.43 1.47 0.94 2.24 1.35 1.06 0.57 2.2 1 3.3 1.61a126 126 0 0 0 44.28 13.08c0.81 0.06 1.65 0 2.46 0.12 3.46 0.27 6.95 0.53 10.47 0.53h641.4a127 127 0 0 0 127-127v-525a126.91 126.91 0 0 0-64.22-110.31z m-483.2-5.24c0-6.21 8.46-11.27 18.85-11.27h161.82c10.39 0 18.81 5.05 18.81 11.27v19.32c0 6.22-8.42 11.27-18.81 11.27H430.79c-10.39 0-18.85-5.05-18.85-11.27z m-32 153a136.86 136.86 0 1 1-136.87 136.86 136.86 136.86 0 0 1 136.84-136.84zM192.33 813.56a23.06 23.06 0 0 1-22.84-25.92c12.78-104.87 102.12-186.1 210.42-186.1h2.24c108.78 0 198.43 81.93 210.61 187.44a22.13 22.13 0 0 1-22 24.59zM860.92 515.4H672.67a19.48 19.48 0 0 1 0-39h188.25a19.48 19.48 0 0 1 0 39z m0-123.35H672.67a19.47 19.47 0 0 1 0-38.94h188.25a19.47 19.47 0 1 1 0 38.94z"  /></svg>