<?xml version="1.0" standalone="no"?><!DOCTYPE svg PUBLIC "-//W3C//DTD SVG 1.1//EN" "http://www.w3.org/Graphics/SVG/1.1/DTD/svg11.dtd"><svg class="icon" width="200px" height="200.00px" viewBox="0 0 1024 1024" version="1.1" xmlns="http://www.w3.org/2000/svg"><path fill="#333333" d="M950.6 132.2c-0.9-0.5-1.7-1.1-2.6-1.5-1.5-0.8-3.1-1.5-4.7-2.3-2.6-1.3-5.3-2.7-8-3.9-0.4-0.2-0.9-0.3-1.3-0.5-12.9-5.3-26.5-8.7-40.3-10.1-0.9-0.1-1.9-0.1-2.8-0.1-3.9-0.3-7.9-0.6-12-0.6H709V61.9c0-23-18.7-41.7-41.7-41.8H356.8c-23 0-41.7 18.7-41.7 41.8v51.3H145.2C65 113.2 0 178.2 0 258.4v600.5c0 52.1 28.1 100.3 73.4 126 0.9 0.5 1.7 1.1 2.6 1.5 1.2 0.7 2.5 1.1 3.8 1.8 15.8 8.1 33 13.1 50.6 15 0.9 0.1 1.9 0 2.8 0.1 4 0.3 7.9 0.6 12 0.6h733.6c80.2 0 145.2-65 145.2-145.2V258.4c0.1-52.2-28-100.4-73.4-126.2z m-552.7-6c0-7.1 9.7-12.9 21.6-12.9h185.1c11.9 0 21.5 5.8 21.5 12.9v22.1c0 7.1-9.6 12.9-21.5 12.9H419.5c-11.9 0-21.6-5.8-21.6-12.9v-22.1z m-36.6 175c86.4 0 156.5 70.1 156.5 156.5s-70.1 156.5-156.5 156.5-156.5-70.1-156.5-156.5 70.1-156.4 156.5-156.5zM146.8 857c-14.6 0-26.4-11.9-26.3-26.4 0-1.1 0.1-2.2 0.2-3.2 14.6-119.9 116.8-212.8 240.6-212.8h2.6c124.4 0 226.9 93.7 240.9 214.4 1.6 13.9-8.4 26.4-22.3 28-0.9 0.1-1.9 0.2-2.8 0.2l-432.9-0.2z m764.7-341H696.2c-12.3 0-22.3-10-22.3-22.3s10-22.3 22.3-22.3h215.3c12.3 0 22.3 10 22.3 22.3s-10 22.3-22.3 22.3z m0-141.1H696.2c-12.3 0-22.3-10-22.3-22.3s10-22.3 22.3-22.3h215.3c12.3 0 22.3 10 22.3 22.3s-10 22.3-22.3 22.3z" /></svg>