<?xml version="1.0" standalone="no"?><!DOCTYPE svg PUBLIC "-//W3C//DTD SVG 1.1//EN" "http://www.w3.org/Graphics/SVG/1.1/DTD/svg11.dtd"><svg class="icon" width="200px" height="200.00px" viewBox="0 0 1024 1024" version="1.1" xmlns="http://www.w3.org/2000/svg"><path d="M187.31 67.25c-16.26 0-29.52 14.6-29.52 32.5v828.87c0 17.9 13.26 32.5 29.52 32.5h649.38c16.26 0 29.52-14.6 29.52-32.5V262.28l-177.1-195z" fill="#30A6E5" /><path d="M688.53 66.87V229.4c0 17.9 13.26 32.5 29.52 32.5h147.58z" fill="#86DDFF" /><path d="M378.71 383.79c0 20 9.69 38.49 25.42 48.49a46.83 46.83 0 0 0 50.85 0c15.73-10 25.42-28.49 25.42-48.49s-9.68-38.49-25.4-48.49a46.83 46.83 0 0 0-50.85 0c-15.75 10-25.44 28.49-25.44 48.49zM608.51 426.2l-68.26 143c-3.46 7.11-11.76 9.4-17.87 4.82L418 494.38c-5.77-4.32-13.61-2.54-17.3 3.94L297 679.89c-5.88 10.28 0.81 23.74 11.88 23.74h436c10.72 0 17.53-12.7 12.34-23L630.07 425.95c-4.73-9.4-17.07-9.27-21.56 0.25z" fill="#FFFFFF" /></svg>