<?xml version="1.0" standalone="no"?><!DOCTYPE svg PUBLIC "-//W3C//DTD SVG 1.1//EN" "http://www.w3.org/Graphics/SVG/1.1/DTD/svg11.dtd"><svg class="icon" width="200px" height="200.00px" viewBox="0 0 1024 1024" version="1.1" xmlns="http://www.w3.org/2000/svg"><path d="M729.13 64.48H221.94v251.94h69.62V130.78h381.21v188.95h188.96V889.9H291.56V677.75h-69.62v281.77h706.08V260.06L729.13 64.48z" fill="#819292" /><path d="M659.51 419.18H788.8v66.3H659.51z m0 159.12H788.8v66.3H659.51z m0 159.12H788.8v66.3H659.51z" fill="#819292" /><path d="M291.56 803.71h295V405.92H517V734.1H291.56z" fill="#F7A937" /><path d="M460.62 677.75V313.1H96v364.65z m-242-53H159V366.14h59.67v162.43l59.67-59.67L338 528.57V369.46h59.67v255.25H338L278.3 565l-59.67 59.67z" fill="#51B9ED" /><path d="M95.98 313.1h364.64v364.64H95.98z" fill="#F7A937" /><path d="M400.95 386H175.53c-13.26 0-26.53 13.29-26.53 26.55v172.38c0 13.26 13.26 26.52 26.52 26.52h225.43c13.26 0 26.52-13.26 26.52-26.52V412.55c0-19.89-13.26-26.55-26.52-26.55z m3.31 169.06l-53-72.93s-3.31-6.63-13.26-6.63c-13.26 0-16.57 6.63-16.57 6.63L275 555.09s-3.31 3.31-9.94 3.31-9.94-3.31-9.94-3.31l-26.52-26.52s-6.63-9.94-13.26-9.94c-9.94 0-16.57 9.94-16.57 9.94l-26.52 33.15V412.55c0-3.31 3.31-9.94 9.94-9.94h215.44c3.31 0 9.94 3.31 9.94 9.94l-3.31 142.54zM275 459a29.83 29.83 0 1 1-29.83-29.83C261.72 432.44 275 442.39 275 459z" fill="#FFFFFF" /></svg>