<?xml version="1.0" standalone="no"?><!DOCTYPE svg PUBLIC "-//W3C//DTD SVG 1.1//EN" "http://www.w3.org/Graphics/SVG/1.1/DTD/svg11.dtd"><svg class="icon" width="200px" height="200.00px" viewBox="0 0 1024 1024" version="1.1" xmlns="http://www.w3.org/2000/svg"><path fill="#333333" d="M732.31 263.87c-21.62-133-139.26-221.71-262.7-198.32-123.28 23.39-227.45 125.8-205.68 258.62 4.7 28.74 17.7 73.51 33.05 105.76L73 774.6c-8.3 12.7-13 35.59-10.5 51l9.71 59c-9.24-56.8 2.51 20.55 9.71 20.21l73.78 1.17c14.26-2.67 32.11-15.54 39.95-28.57l88.66-147.86 0.78-1 77.37 6.45L466 561.91s23-50.29 108.39-98.68C652.51 424.66 718 432.71 718 432.71c19-50.71 23.94-110.52 14.31-168.84zM133.59 798.25l-19.38 13 4.51-23.37L329 467l14.54 10.86z m489.53-466.39c-34 52.13-68.61 15.38-117-21.22s-92.42-59-58.43-111.27c34-52.12 100.72-65 149.13-28.4 48.39 36.76 60.29 108.77 26.3 160.89z"  /><path fill="#333333" d="M709 455.73c-139.89 0-253.24 113.35-253.24 253.23S569.07 962.19 709 962.19 962.19 848.85 962.19 709 848.85 455.73 709 455.73z m140.5 346.46c0 38.61-72.27 47.46-140.13 47.46s-141.05-8.85-141.05-47.46v-10.73c0-28.44 50-57.25 92.51-72.88 3.12-1.13 17.83-9.42 9.56-31.45-21.15-22-37-57.82-37-93 0-53.86 34.76-82.1 75.58-82.1 40.65 0 75.77 28.25 75.77 82.1 0 35-16 70.62-37 92.84h0.18c-8.09 25 4.78 31.07 6.8 31.63 44.7 15.06 94.9 43.69 94.9 72.88z"  /></svg>