<?xml version="1.0" standalone="no"?><!DOCTYPE svg PUBLIC "-//W3C//DTD SVG 1.1//EN" "http://www.w3.org/Graphics/SVG/1.1/DTD/svg11.dtd"><svg class="icon" width="200px" height="200.00px" viewBox="0 0 1024 1024" version="1.1" xmlns="http://www.w3.org/2000/svg"><path fill="#333333" d="M763.2 302.4c-5.2-7.6-12-14-19.8-18.9 0-14.7-1.1-29.4-3.2-44 1.6-21 8-137.7-66.2-189.9C628 16.9 576.7 0 526 0c-41.2 0-80.1 11.3-110.6 31.7-27.2 18.4-42.2 38.4-49.7 52.2-23.5 1-71.6 9.7-93 69.1-20.3 55.8-3.7 90.6 8 106.4-0.5 9.2-1.1 17.4-1.1 24-7.9 4.8-14.7 11.2-19.8 18.9-13.4 20-15.5 46.6-6.9 78.8 16.6 60.9 55.6 74.2 76.4 76.8 12.8 24.6 40.6 74.2 68.9 99.3 11.2 10.3 25.6 18.4 43.3 25.1 22.3 8.6 46.1 12.9 70 12.8 24 0 48.1-4.1 70-12.8 17.6-6.7 32-15.3 43.3-25.1 28.3-25.1 56.1-75.2 68.9-99.3 20.8-2.6 59.3-15.9 76.4-77.3 9.1-32.1 6.4-58.7-6.9-78.2z m-40.6 67.1c-10.1 37.4-28.3 42.5-37.9 42.5h-1.6c-11.2-2.6-21.9 3.1-26.7 13.3-9.6 20-40 76.3-64.6 98.2-6.9 6.1-16 11.3-27.8 15.9-33.5 12.8-70.6 12.8-104.1 0-11.8-4.6-21.4-9.7-27.8-15.9-25.1-22-55.6-78.3-65.2-98.2-4.3-8.7-12.3-13.8-20.8-13.8-2-0.1-3.9 0.1-5.9 0.5h-1.6c-9.6 0-27.8-5.6-37.9-42.5-4.8-18.4-4.8-32.7 0-40.9 2-3.1 5-5.4 8.5-6.7 13.4-1.5 20.8-12.3 19.8-25.1-0.7-9.2-0.7-18.4 0-27.6 16.6-7.2 43.8-20.5 66.2-44 11.8-11.8 19.8-26.6 26.2-40 21.5 16.5 45 30.3 70 41 52.3 22.5 157.6 32.7 201.9 36.3 1 11.4 1.2 22.8 0.5 34.3-1.1 12.8 6.9 23.5 19.8 25.1 3.5 1.2 6.5 3.6 8.5 6.7 5.8 7.6 5.8 22.5 0.5 40.9z m157 312.7L666 600.4c-5.9-2.6-12.8-2-19.2 0.5-5.9 2.6-10.5 7.4-12.8 13.3l-54 142.3-10.7-29.2 17.1-39.4c3.1-7.2 2.3-15.5-2.1-22-4.3-6.7-12.3-10.3-20.3-10.3H459.2c-8 0.2-15.5 3.9-20.3 10.3-4.7 6.4-5.5 14.8-2.1 22l17.1 39.4-10.7 29.2-53.9-142.3c-2.2-6-6.9-10.9-12.8-13.3-6.1-2.5-13-2.7-19.2-0.5l-213.7 81.9C77.8 707.4 0 765.6 0 833.6v165.3c0 12.8 11.2 23.5 24.6 23.5l974.8 1.6c13.4 0 24.6-10.7 24.6-23.5V835.2c-0.5-68-78.6-127.8-144.4-153z m-7.4 220.1c0 12.8-10.7 23.5-24.6 23.5h-164c-13.4 0-24.6-10.7-24.6-23.5v-73.2c0-12.8 10.7-23.5 24.6-23.5h164c13.4 0 24.6 10.3 24.6 23.5v73.2z" /></svg>