<?xml version="1.0" standalone="no"?><!DOCTYPE svg PUBLIC "-//W3C//DTD SVG 1.1//EN" "http://www.w3.org/Graphics/SVG/1.1/DTD/svg11.dtd"><svg class="icon" width="200px" height="200.00px" viewBox="0 0 1024 1024" version="1.1" xmlns="http://www.w3.org/2000/svg"><path fill="#333333" d="M731.67 328.48a59.38 59.38 0 0 0-17.27-16.58 261.92 261.92 0 0 0-2.8-38.54c1.4-18.37 7-120.56-57.89-166.27-40.15-28.68-85-43.47-129.33-43.47-36 0-70 9.86-96.65 27.79-23.81 16.13-36.88 33.61-43.42 45.71-20.54 0.9-62.56 8.52-81.24 60.5-17.74 48.85-3.27 79.33 7 93.22-0.47 8.07-0.93 15.24-0.93 21.06a54.17 54.17 0 0 0-17.27 16.58c-11.67 17.48-13.54 40.78-6.07 69 14.47 53.33 48.56 65 66.76 67.23 11.21 21.51 35.48 65 60.23 86.94 9.8 9 22.41 16.13 37.82 22a167.82 167.82 0 0 0 61.16 11.2c21 0 42-3.59 61.16-11.2 15.41-5.83 28-13.44 37.82-22 24.74-22 49-65.88 60.23-86.94 18.21-2.24 51.82-13.89 66.76-67.67 7.94-28.23 5.6-51.54-6.07-68.57z m-35.48 58.71c-8.87 32.72-24.75 37.2-33.15 37.2h-1.4c-9.8-2.24-19.14 2.69-23.34 11.65-8.4 17.48-35 66.78-56.49 86-6.07 5.38-14 9.86-24.28 13.89a127.5 127.5 0 0 1-91 0c-10.27-4-18.68-8.52-24.28-13.89-21.94-19.27-48.56-68.57-57-86-3.73-7.62-10.74-12.1-18.21-12.1a21.79 21.79 0 0 0-5.14 0.45h-1.4c-8.4 0-24.28-4.93-33.15-37.2-4.2-16.13-4.2-28.68 0-35.85a14.59 14.59 0 0 1 7.47-5.83c11.67-1.34 18.21-10.76 17.27-22a170.58 170.58 0 0 1 0-24.2c14.47-6.27 38.28-17.93 57.89-38.54 10.27-10.31 17.27-23.3 22.88-35A288.64 288.64 0 0 0 494 261.7c45.75 19.72 137.73 28.68 176.48 31.82a217 217 0 0 1 0.47 30c-0.93 11.2 6.07 20.62 17.27 22a14.6 14.6 0 0 1 7.47 5.83c5.14 6.72 5.14 19.72 0.47 35.85zM833.45 661L646.7 589.31c-5.14-2.24-11.21-1.79-16.81 0.45a21.43 21.43 0 0 0-11.21 11.65L571.53 726l-9.34-25.55 14.94-34.51a20.31 20.31 0 0 0-1.87-19.27c-3.74-5.83-10.74-9-17.74-9H466a22.86 22.86 0 0 0-17.74 9 19.13 19.13 0 0 0-1.87 19.27l14.94 34.51L452 726l-47.15-124.59a20.08 20.08 0 0 0-11.21-11.65 24.05 24.05 0 0 0-16.81-0.45L190.08 661c-57.43 22-125.42 73-125.42 132.58v144.76c0 11.2 9.8 20.62 21.48 20.62l852 1.43c11.67 0 21.48-9.41 21.48-20.62V795c-0.47-59.61-68.73-112-126.15-134z m-6.54 192.71c0 11.2-9.34 20.62-21.48 20.62H662.1c-11.67 0-21.48-9.41-21.48-20.62v-64.07c0-11.2 9.34-20.62 21.48-20.62h143.34c11.67 0 21.48 9 21.48 20.62v64.09z"  /></svg>