<?xml version="1.0" standalone="no"?><!DOCTYPE svg PUBLIC "-//W3C//DTD SVG 1.1//EN" "http://www.w3.org/Graphics/SVG/1.1/DTD/svg11.dtd"><svg class="icon" width="200px" height="200.00px" viewBox="0 0 1024 1024" version="1.1" xmlns="http://www.w3.org/2000/svg"><path fill="#333333" d="M420.8 262.5h520.9c45.5 0 82.3-37.3 82.3-83.2s-36.8-83.2-82.3-83.2H420.8c-45.5 0-82.4 37.2-82.4 83.2s36.9 83.2 82.4 83.2zM181.1 96.1H82.4C36.9 96.1 0 133.4 0 179.3s36.9 83.2 82.4 83.2h98.8c45.5 0 82.4-37.3 82.4-83.2s-36.9-83.2-82.5-83.2z m760.7 332.7h-521c-45.5 0-82.4 37.2-82.4 83.2s36.9 83.2 82.4 83.2h520.9c45.5 0 82.3-37.3 82.3-83.2s-36.7-83.2-82.2-83.2z m-760.7 0H82.4C36.9 428.8 0 466 0 512s36.9 83.2 82.4 83.2h98.8c45.5 0 82.4-37.3 82.4-83.2s-36.9-83.2-82.5-83.2z m760.7 332.7h-521c-45.5 0-82.4 37.3-82.4 83.2 0 45.9 36.9 83.2 82.4 83.2h520.9c45.5 0 82.3-37.3 82.3-83.2 0-45.9-36.7-83.2-82.2-83.2z m-760.7 0H82.4C36.9 761.5 0 798.8 0 844.7c0 45.9 36.9 83.2 82.4 83.2h98.8c45.5 0 82.4-37.3 82.4-83.2 0-45.9-36.9-83.2-82.5-83.2z" /></svg>