<?xml version="1.0" standalone="no"?><!DOCTYPE svg PUBLIC "-//W3C//DTD SVG 1.1//EN" "http://www.w3.org/Graphics/SVG/1.1/DTD/svg11.dtd"><svg class="icon" width="200px" height="200.00px" viewBox="0 0 1024 1024" version="1.1" xmlns="http://www.w3.org/2000/svg"><path fill="#333333" d="M432.7 295h453c39.58 0 71.61-32.41 71.61-72.36s-32-72.34-71.61-72.34h-453c-39.56 0-71.63 32.39-71.63 72.34S393.14 295 432.7 295zM224.25 150.27h-85.91c-39.57 0-71.64 32.39-71.64 72.34S98.77 295 138.34 295h85.91c39.58 0 71.65-32.41 71.65-72.36s-32.07-72.34-71.65-72.34z m661.44 289.39h-453c-39.56 0-71.63 32.39-71.63 72.34s32.07 72.36 71.63 72.36h453c39.58 0 71.61-32.4 71.61-72.36s-32-72.34-71.61-72.34z m-661.44 0h-85.91C98.77 439.66 66.7 472 66.7 512s32.07 72.36 71.64 72.36h85.91c39.58 0 71.65-32.4 71.65-72.36s-32.07-72.34-71.65-72.34zM885.69 729h-453c-39.56 0-71.63 32.4-71.63 72.35s32.07 72.35 71.63 72.35h453c39.58 0 71.61-32.4 71.61-72.35S925.27 729 885.69 729z m-661.44 0h-85.91c-39.57 0-71.64 32.4-71.64 72.35s32.07 72.35 71.64 72.35h85.91c39.58 0 71.65-32.4 71.65-72.35S263.83 729 224.25 729z"  /></svg>