<?xml version="1.0" standalone="no"?><!DOCTYPE svg PUBLIC "-//W3C//DTD SVG 1.1//EN" "http://www.w3.org/Graphics/SVG/1.1/DTD/svg11.dtd"><svg class="icon" width="200px" height="200.00px" viewBox="0 0 1024 1024" version="1.1" xmlns="http://www.w3.org/2000/svg"><path d="M860.4 538.54A74.33 74.33 0 1 0 882.17 486a75.21 75.21 0 0 0-21.77 52.56z" fill="#D1E8FB" /><path d="M15 538.54A97.49 97.49 0 0 0 112.44 636a97.49 97.49 0 1 0-68.93-166.4A98.68 98.68 0 0 0 15 538.54z" fill="#5EAFF0" /><path d="M449.26 949.68A74.33 74.33 0 1 0 471 897.12a75.24 75.24 0 0 0-21.77 52.55z" fill="#A3D2F7" /><path d="M396.18 127.4a127.4 127.4 0 1 0 254.8 0 127.4 127.4 0 0 0-254.8 0z" fill="#198EEB" /><path d="M740 829.25a74.33 74.33 0 1 0 21.77-52.56A75.24 75.24 0 0 0 740 829.25z" fill="#BADCFA" /><path d="M121.3 247.82a111.56 111.56 0 0 0 190.45 78.88A111.56 111.56 0 0 0 154 168.93a112.92 112.92 0 0 0-32.67 78.89z" fill="#47A5EE" /><path d="M158.53 829.25a74.33 74.33 0 1 0 21.77-52.56 75.25 75.25 0 0 0-21.77 52.56z" fill="#8CC6F5" /><path d="M740 247.82a74.33 74.33 0 1 0 21.77-52.55A75.22 75.22 0 0 0 740 247.82z" fill="#E8F3FE" /></svg>