<?xml version="1.0" standalone="no"?><!DOCTYPE svg PUBLIC "-//W3C//DTD SVG 1.1//EN" "http://www.w3.org/Graphics/SVG/1.1/DTD/svg11.dtd"><svg class="icon" width="200px" height="200.00px" viewBox="0 0 1024 1024" version="1.1" xmlns="http://www.w3.org/2000/svg"><path d="M624.663 785.139c-10.735-18.595-4.316-42.397 14.337-53.168 18.653-10.77 42.479-4.427 53.213 14.168l90.123 156.099c10.736 18.595 4.317 42.398-14.336 53.169-18.653 10.77-42.479 4.426-53.214-14.169l-90.123-156.099z" fill="#AFAFAF" /><path d="M241.664 121.764c-10.735-18.594-4.317-42.398 14.336-53.169 18.653-10.77 42.479-4.426 53.214 14.168l90.124 156.099c10.735 18.594 4.316 42.398-14.337 53.168-18.653 10.77-42.478 4.426-53.213-14.168l-90.124-156.098z" fill="#D1D1D1" /><path d="M238.861 624.663c18.594-10.735 42.398-4.316 53.168 14.337 10.77 18.653 4.426 42.479-14.168 53.213l-156.098 90.124c-18.594 10.735-42.399 4.316-53.168-14.337-10.77-18.653-4.426-42.479 14.168-53.213l156.098-90.124z" fill="#9D9D9D" /><path d="M902.236 241.664c18.594-10.736 42.398-4.317 53.169 14.336 10.77 18.654 4.426 42.479-14.169 53.214l-156.099 90.123c-18.594 10.735-42.397 4.316-53.168-14.337-10.77-18.654-4.426-42.479 14.168-53.213l156.099-90.123z" fill="#C2C2C2" /><path d="M331.787 746.139c10.734-18.595 34.56-24.938 53.213-14.168 18.653 10.771 25.072 34.573 14.336 53.168l-90.123 156.099c-10.734 18.595-34.56 24.938-53.213 14.169-18.653-10.771-25.072-34.574-14.336-53.169l90.123-156.099z" fill="#A3A3A3" /><path d="M714.786 82.764c10.735-18.594 34.561-24.938 53.214-14.169 18.653 10.771 25.072 34.575 14.337 53.168l-90.123 156.099c-10.735 18.594-34.561 24.938-53.214 14.168-18.653-10.771-25.072-34.574-14.337-53.168l90.123-156.098z" fill="#C8C8C8" /><path d="M277.861 331.787c18.594 10.735 24.938 34.56 14.168 53.213s-34.574 25.072-53.168 14.336L82.763 309.213C64.169 298.478 57.825 274.653 68.595 256c10.771-18.653 34.574-25.072 53.168-14.336l156.098 90.123z" fill="#949494" /><path d="M941.236 714.786c18.595 10.734 24.938 34.561 14.169 53.214-10.771 18.653-34.574 25.072-53.169 14.337l-156.099-90.123C727.544 681.479 721.2 657.653 731.97 639c10.771-18.653 34.574-25.072 53.168-14.337l156.098 90.123z" fill="#B6B6B6" /><path d="M219.123 473c21.471 0 38.877 17.461 38.877 39s-17.406 39-38.877 39H38.877C17.406 551 0 533.539 0 512s17.406-39 38.877-39h180.246z" fill="#999999" /><path d="M985.123 473c21.471 0 38.877 17.461 38.877 39s-17.406 39-38.877 39H804.877c-21.471 0-38.877-17.461-38.877-39s17.406-39 38.877-39h180.246z" fill="#BBBBBB" /><path d="M551 219.123c0 21.471-17.461 38.877-39 38.877s-39-17.406-39-38.877V38.877c0-21.471 17.461-38.877 39-38.877s39 17.406 39 38.877v180.246z" fill="#CDCDCD" /><path d="M551 985.123c0 21.471-17.461 38.877-39 38.877s-39-17.406-39-38.877V804.877c0-21.471 17.461-38.877 39-38.877s39 17.406 39 38.877v180.246z" fill="#A9A9A9" /></svg>