<?xml version="1.0" standalone="no"?><!DOCTYPE svg PUBLIC "-//W3C//DTD SVG 1.1//EN" "http://www.w3.org/Graphics/SVG/1.1/DTD/svg11.dtd"><svg class="icon" width="200px" height="200.00px" viewBox="0 0 1024 1024" version="1.1" xmlns="http://www.w3.org/2000/svg"><path fill="#333333" d="M793.47 445.31v-109.2a12.15 12.15 0 0 0-18.78-10.18l-143.32 93.35a12.15 12.15 0 0 0-5.52 10.18v169.92a12.15 12.15 0 0 0 5.47 10.15l143.32 94.31a12.15 12.15 0 0 0 18.83-10.15V584.62a12.15 12.15 0 0 1 12.15-12.15h117a12.15 12.15 0 0 0 12.15-12.15v-90.71a12.15 12.15 0 0 0-12.15-12.15h-117a12.15 12.15 0 0 1-12.15-12.15z"  /><path fill="#333333" d="M618.9 660.23v206.89a6.1 6.1 0 0 0 6.1 6.1h118.51a6.1 6.1 0 0 0 6.1-6l-0.34-133.37a6.1 6.1 0 0 0-3-5.33L628.08 655a6.1 6.1 0 0 0-9.18 5.23zM628 102.15l0.22 263.95a8.18 8.18 0 0 0 12.67 6.84l104.29-68.33a8.18 8.18 0 0 0 3.7-6.76l-0.64-221.43a8.18 8.18 0 0 0-8.24-8.27H532c-9.92 0-11.29 14.34-1.55 16.22l90.93 9.76a8.18 8.18 0 0 1 6.62 8.02z"  /><path fill="#333333" d="M570.63 922.32V177.38a33.52 33.52 0 0 0-27.45-33l-403-66.88-11.36-2.09a33.52 33.52 0 0 0-39.6 33l-0.06 744.14a33.52 33.52 0 0 0 27.38 33L531 955.28a33.52 33.52 0 0 0 39.63-32.96z"  /></svg>