<?xml version="1.0" standalone="no"?><!DOCTYPE svg PUBLIC "-//W3C//DTD SVG 1.1//EN" "http://www.w3.org/Graphics/SVG/1.1/DTD/svg11.dtd"><svg class="icon" width="200px" height="200.00px" viewBox="0 0 1024 1024" version="1.1" xmlns="http://www.w3.org/2000/svg"><path d="M33.4 546.4l-11.9-11.9c-1.4-1.4-1.4-2.7 0-4.1l11.9-11.9c1.4-1.4 2.7-1.4 4.1 0l11.9 11.9c1.4 1.4 1.4 2.7 0 4.1l-11.9 11.9c-1.4 1.4-2.8 1.4-4.1 0z" fill="#4385F5" /><path d="M74.3 505.5l-11.9-11.9c-1.4-1.4-1.4-2.7 0-4.1l11.9-11.9c1.4-1.4 2.7-1.4 4.1 0l11.9 11.9c1.4 1.4 1.4 2.7 0 4.1l-11.9 11.9c-1.4 1.4-2.8 1.4-4.1 0zM21.5 489.5l11.9-11.9c1.4-1.4 2.7-1.4 4.1 0l11.9 11.9c1.4 1.4 1.4 2.7 0 4.1l-11.9 11.9c-1.4 1.4-2.7 1.4-4.1 0l-11.9-11.9c-1.4-1.4-1.4-2.7 0-4.1z" fill="#E94434" /><path d="M62.4 530.5l11.9-11.9c1.4-1.4 2.7-1.4 4.1 0l11.9 11.9c1.4 1.4 1.4 2.7 0 4.1l-11.9 11.9c-1.4 1.4-2.7 1.4-4.1 0l-11.9-11.9c-1.4-1.4-1.4-2.8 0-4.1zM41.9 510l11.9-12c1.4-1.4 2.7-1.4 4.1 0l11.9 12c1.4 1.4 1.4 2.7 0 4.1L57.9 526c-1.4 1.4-2.7 1.4-4.1 0l-11.9-12c-1.3-1.3-1.3-2.7 0-4zM12.9 526L1 514c-1.4-1.4-1.4-2.7 0-4.1L12.9 498c1.4-1.4 2.7-1.4 4.1 0l11.9 12c1.4 1.4 1.4 2.7 0 4.1L17 526c-1.4 1.3-2.7 1.3-4.1 0zM94.7 526l-11.9-12c-1.4-1.4-1.4-2.7 0-4.1L94.7 498c1.4-1.4 2.7-1.4 4.1 0l11.9 11.9c1.4 1.4 1.4 2.7 0 4.1l-11.9 12c-1.4 1.3-2.7 1.3-4.1 0z" fill="#4385F5" /><path d="M41.9 469.1l11.9-11.9c1.4-1.4 2.7-1.4 4.1 0l11.9 11.9c1.4 1.4 1.4 2.7 0 4.1l-11.9 11.9c-1.4 1.4-2.7 1.4-4.1 0l-11.9-11.9c-1.3-1.4-1.3-2.8 0-4.1zM41.9 550.9L53.8 539c1.4-1.4 2.7-1.4 4.1 0l11.9 11.9c1.4 1.4 1.4 2.7 0 4.1l-11.9 11.9c-1.4 1.4-2.7 1.4-4.1 0L41.9 555c-1.3-1.4-1.3-2.8 0-4.1z" fill="#E94434" /><path d="M345.1 473.6l-2.9-4.4c-12.2 7.8-24.3 14.7-34.5 19l2.2 5c12.2-5.5 24-12 35.2-19.6z" fill="#4B4948" /><path d="M319.9 466.8h5.9v30.7h-5.9v-30.7z" fill="#4B4948" /><path d="M349 491.5v6h-29v-6h29zM302 502h-5.8v-21.2l5.8-5V502z m-15.2 9.4v-6l62.1-0.4v6c0.1-0.1-62.1 0.4-62.1 0.4z" fill="#4B4948" /><path d="M314.8 501h5.9l0.2 25.3H315l-0.2-25.3z m-27.7-16.7l4.2 4c3.7-2.7 7.2-5.7 10.4-9 3.4-3.1 6.3-6.7 8.6-10.7l-4.2-4.2c-2.3 3.8-5.1 7.3-8.3 10.5-3.2 3.5-6.8 6.7-10.7 9.4z m102.7-19.8h6v15.3h-6v-15.3z" fill="#4B4948" /><path d="M395.7 475.1v-6h23.6v6h-23.6zM362 515.2v-6l62 0.1v6l-62-0.1z" fill="#4B4948" /><path d="M390.1 505.2h6v21.3h-6v-21.3z m-16.5 0h-6v-25.5h6v25.5z m44.8 0.1h-6v-25.5h6v25.5z" fill="#4B4948" /><path d="M367.7 505.2v-6l50.8 0.1v6l-50.8-0.1z m0-19.5v-6l50.8 0.1v6l-50.8-0.1z m0 9.8v-6l50.8 0.1v6l-50.8-0.1z m650-31.1h6l-0.1 61.9h-6l0.1-61.9z" fill="#4B4948" /><path d="M1019.6 464.4v6l-53.3-0.1v-6l53.3 0.1z m-12.6 14.2v6l-45.4-0.1v-6l45.4 0.1z m-4.7 13.1v5.9h-36.2v-5.9h36.2z" fill="#4B4948" /><path d="M972.1 515.8h-6v-24.1h6v24.1z m30.2 0h-6v-24.2h6v24.2z" fill="#4B4948" /><path d="M1002.3 509.9v6l-36.2-0.1v-6l36.2 0.1z m21.3 10.6v6h-24.5v-6h24.5z m-277-32.6h6l-0.1 38.7h-6l0.1-38.7z m41.3-1.8h6l-0.1 40.5h-6l0.1-40.5z" fill="#4B4948" /><path d="M793.9 484.5v6l-43.5-0.1v-6l43.5 0.1z m-0.1 10.6v6l-43.4-0.1v-6l43.4 0.1z m0 11.1v6l-43.2-0.1v-6l43.2 0.1z m0 14.4v6h-19v-6h19z" fill="#4B4948" /><path d="M766.7 466.5l-4.9-2.1c-7.7 12.4-17.3 27.5-25.2 34.5l5.2 3.1c8.6-9.2 17.4-23.1 24.9-35.5z" fill="#4B4948" /><path d="M798.6 470.5v6h-62v-6h62z m-333.2 55.2h-6V504h6v21.7z m31.6 0.5h-6v-21.9h6v21.9z" fill="#4B4948" /><path d="M459.4 526.4v-6l37.7 0.1v6l-37.7-0.1z m0-16.4v-6l37.7 0.1v6l-37.7-0.1z m-12.9-35.5h5.8v52h-5.8v-52z m26.5-8.4l5.5-1.9 2.5 7.4-5.5 1.9-2.5-7.4z" fill="#4B4948" /><path d="M498.8 471.5v6l-41.1 0.3v-6l41.1-0.3z m-1.7 11.2v6l-37.7 0.3v-6l37.7-0.3z m-42.2-18.2l4.2 4.2-18.1 18.2-4.2-4.2 18.1-18.2z m42.2 28.5v6l-37.7 0.3v-6l37.7-0.3z m54 21.2l-4.7 3.4-6.1-8.6 4.7-3.4 6.1 8.6z m22.5 4.9l-5.2 2.6-6.4-13 5.2-2.6 6.4 13z m-56.7 5.9l-5.2-2.6 8.9-17.2 5.1 2.6-8.8 17.2z m16.6 1.5h-6v-19.6h6v19.6z m27.2-1h-6v-9.2h6v9.2z" fill="#4B4948" /><path d="M527.6 526.5v-6h33.1v6h-33.1z m-5.3-22.7h-6v-33.6h6v33.6z m44.8 0h-6v-33.6h6v33.6z" fill="#4B4948" /><path d="M516.4 503.8v-6l50.8 0.1v6l-50.8-0.1z m0-27.6v-6l50.8 0.1v6l-50.8-0.1z m0 9.3v-5l50.8 0.1v5l-50.8-0.1z m0 8.8v-4.9l50.5 0.1v4.9l-50.5-0.1z" fill="#4B4948" /><path d="M537.8 464.5l5.4 2.2-3 7.6-5.4-2.2 3-7.6z m325.9 51.2l-3.9-4.3 8-7.2 3.9 4.3-8 7.2z m-52-50.2h6l-0.1 60.8h-6l0.1-60.8z" fill="#4B4948" /><path d="M811.7 470.6v-6.1h21.5v6.1h-21.5z m55.3-6.1v6h-31.4v-6H867z m-0.1 15.3v6h-31.3v-6h31.3z m0 13.5v6h-31.3v-6h31.3z m-31.4 33.1v-6l19.2-4.3 1.3 5.6-20.5 4.7z" fill="#4B4948" /><path d="M835.5 465.9h6l-0.1 59.2-5.9 1.3v-60.5z m31.4 31.1h-6v-29.9h6V497z m-39.4-28.5l5.7 2.1-5 16.3-6.1-1.7 5.4-16.7z" fill="#4B4948" /><path d="M819.1 511.6l-0.1-5c7.2-0.2 8.3-0.8 8.5-1.8-0.7-4.5-1.8-8.9-3.1-13.2l-2.3-6.3 6 0.1s1.2 4.1 1.8 5.5c0.8 1.9 3.1 12.7 2.7 14.8-1.1 5.6-7.1 5.7-13.5 5.9z m23.8-13.6c8.3 10.8 15.4 20.9 22.5 28.9h8.5c-8.1-9.2-17-20.5-23.8-29.2l-7.2 0.3z m-204.6-31.1h5.8v59.6h-5.8v-59.6z" fill="#4B4948" /><path d="M617.4 512.4l-0.8-5.7 30.9-4.5 0.8 5.7-30.9 4.5z m2.9-41.4l4.7-3.3 9.7 13.7-4.7 3.4c0-0.1-9.7-13.8-9.7-13.8z m-2.9 15.4l4.7-3.4 11.1 15.7-4.7 3.4-11.1-15.7z m-4-16.1l-1.3-5.6c-9.2 1.7-16.9 2.9-24.9 4.2l1.1 5.6c9.8-1.4 15.7-2.4 25.1-4.2z m-17.5 17.3h-5.3c-0.3 11.4-0.8 25.4-4 33.3h6c2.7-9.7 3.2-22 3.3-33.3z m9.8 0c0 14 0.9 22.8 3.3 33.3h6.1c-2.5-10.9-3.8-22.1-4-33.3h-5.4z" fill="#4B4948" /><path d="M598.3 470.6h5.8v55.8h-5.8v-55.8z" fill="#4B4948" /><path d="M615.6 480.9v5.8h-27.8v-5.8h27.8z m104.9 13.8l-4.2-4.2c-4.4 8.8-28.8 30.7-35.5 35.9h9.5c7.2-6.9 24.4-21.9 30.2-31.7z m0-22.2v5.8h-33.2v-5.8h33.2z" fill="#4B4948" /><path d="M720.5 488.9v5.8h-33.2v-5.8h33.2z" fill="#4B4948" /><path d="M701.5 464.6h5.8l-0.2 29.1h-5.8l0.2-29.1z m22.1 61.9l-28.3-28.9-5.2 4.2 24.2 24.7h9.3zM682.3 495l2.2 5.3-20.2 8.1-2.2-5.3 20.2-8.1z" fill="#4B4948" /><path d="M671.6 464.6h5.8l0.3 61.8h-5.8l-0.3-61.8z" fill="#4B4948" /><path d="M685.6 477.9v5.8l-23.8 0.1V478l23.8-0.1z m-8 43v5.5l-15.9 0.1V521l15.9-0.1z m214.8-27.7l-5.6-3.8 18.8-24.8 5.5 3.8-18.7 24.8z m22.4-6.9l5 4.2-21.7 27.2 36.5-2.6-8.5-11.1 4.9-4.1c2.5 3.1 15.8 21.5 17.1 23.1l-5.3 3.5-3.8-5.3-46 3.1-3.3-6.4 25.1-31.6z m29.1 7.2l-20.2-24.8 5.1-4.3 20.1 24.8-5 4.3zM146.3 484H141c-0.3 11.4-0.8 25.4-4 33.3h6c2.7-9.6 3.3-21.9 3.3-33.3z m9.9 0c0 14 0.9 22.8 3.3 33.3h6.2c-2.5-10.9-3.8-22.1-4-33.3h-5.5z m-7.4-19.4h5.8v61.8h-5.8v-61.8z" fill="#4B4948" /><path d="M162.4 475.1v5.8h-23.7v-5.8h23.7z m36.6-0.7v5.8h-34.8v-5.8H199z" fill="#4B4948" /><path d="M186.2 475.5l-5.5 1.9-3.7-10.9 5.5-1.9 3.7 10.9z m6.2 9.4v5.8h-22v-5.8h22z" fill="#4B4948" /><path d="M192.8 526.5h-6l-0.3-41.5h6l0.3 41.5z" fill="#4B4948" /><path d="M186.9 526.5v-6l12.1-0.1v6l-12.1 0.1z m-10.5-41.6h-6.2c0 14.4-1.1 39-3.9 41.6h6.8c1.8-0.5 3.1-27.1 3.3-41.6z m56.1 6.6c-1 14.2-2.1 24.3-5.7 34.9h-8.1c4.7-9 6.5-19.2 7.8-34.8l0.6-26.8 5.7-0.1-0.3 26.8z m14.4-26.9h5.8v61.9h-5.8v-61.9z m21.1-0.1h5.8v62H268v-62z m-50.5 35.2l-5.5-1.9 5.9-16.9 5.5 1.9-5.9 16.9z m27.4-0.7l-5.7 1.2-3.7-17.8 5.7-1.2 3.7 17.8z m20.7 0l-5.7 1.2-3.7-17.8 5.7-1.2 3.7 17.8z m406.7 40.8v16.8h-3.1l-4.8-9.6v9.6H661v-16.7h3l5 9.6v-9.6h3.3z m-56.1 3.4h-3.7v13.4h-3.1v-13.4h-3.8v-3.3h10.6v3.3z m-19.7 13.4h-3.4l-0.8-2.8h-5.1l-0.8 2.8H583l5.2-16.8h3.2l5.1 16.8z m-5.2-6.5l-1.6-5.6-1.6 5.6h3.2zM492 539.7v16.8h-3.1l-4.8-9.6v9.6h-3.3v-16.7h3l5 9.6v-9.6h3.2z m-20.3 16.8h-7V553h1.9v-9.7h-1.9v-3.5h7v3.5h-1.8v9.7h1.8v3.5z m160.5 0.1h-7v-3.5h1.9v-9.7h-1.9v-3.5h7v3.5h-1.8v9.7h1.8v3.5z m-121-16.8v3.6h-6.9v3h6v3.5h-6v6.8H501v-16.8h10.2z m19.8 11.3c0.2 3-2.1 5.5-5.1 5.6-3 0.2-5.5-2.1-5.6-5.1v-6.3c-0.2-3 2.1-5.5 5.1-5.6 3-0.2 5.5 2.1 5.6 5.1v6.3z m-3.1-5.4c0.1-1.2-0.7-2.3-2-2.5-1.2-0.1-2.3 0.7-2.5 2v5.5c-0.1 1.2 0.7 2.3 2 2.5s2.3-0.7 2.5-2v-5.5z m20.1 10.8l-3-5.3v-3.7h1c1.1 0 2.1-0.9 2.1-2v-0.1c0.1-1.1-0.7-2-1.7-2.2h-3v13.2h-3.3v-16.8h5.9c1.6-0.2 3.1 0.4 4.2 1.6 0.9 1.1 1.3 2.6 1.2 4 0.1 2.1-1.1 4.1-2.9 5.1l3.4 6.1-3.9 0.1z m25.9 0.1h-3.2v-9.3l-2.3 4.9h-1.8l-2.4-5v9.3h-3.3v-16.7h3.3l3.2 7.1 3.3-7.1h3.1l0.1 16.8z m78.2-5.5c0 3-2.4 5.4-5.4 5.4s-5.4-2.4-5.4-5.4v-5.8c0-3 2.4-5.4 5.4-5.4s5.4 2.4 5.4 5.4v5.8z m-3.2-5.5c0.1-1.2-0.8-2.3-2-2.4-1.2-0.1-2.3 0.8-2.4 2v5.5c-0.1 1.2 0.8 2.3 2 2.4 1.2 0.1 2.3-0.8 2.4-2v-5.5z m-316.1-5.8l-4.2 16.8H326l-2.1-8.9-2.3 8.9h-2.7l-4-16.8h3.4l2.2 10 2.3-9.9h2.4l2 9.9 2.4-9.9 3.2-0.1z m47.1-0.1l-4.2 16.8H373l-2.1-8.9-2.3 8.9h-2.7l-4-16.8h3.4l2.2 10 2.3-9.9h2.5l2 10 2.4-9.9 3.2-0.2z m-27.1 11.4c0 3-2.4 5.4-5.4 5.4-3 0-5.4-2.4-5.4-5.4V545c0-3 2.4-5.4 5.4-5.4 3 0 5.4 2.4 5.4 5.4v6.1z m-3.2-5.7c0.1-1.3-0.8-2.3-2.1-2.5s-2.3 0.8-2.5 2.1V550.8c-0.1 1.3 0.8 2.3 2.1 2.5 1.3 0.1 2.3-0.8 2.5-2.1V545.4z m49.1 6c0.2 2.6-1.8 4.9-4.4 5.1h-0.6c-2.6 0.1-4.7-2-4.8-4.5V550.7h3.1v0.5c0 1.4 0.7 2 1.6 2 1.3 0 1.9-0.9 1.9-2.3v-7.8h-2.9v-3.3h6.2v11.6z m20-0.2c0 3-2.4 5.4-5.4 5.4s-5.4-2.4-5.4-5.4V545c0-3 2.4-5.4 5.4-5.4s5.4 2.4 5.4 5.4v6.2z m-3.1-5.8c0-1.2-1-2.3-2.3-2.3-1.2 0-2.3 1-2.3 2.3v5.4c0 1.2 1 2.3 2.3 2.3 1.2 0 2.3-1 2.3-2.3v-5.4z m20.1 4.3v6.8h-3.1v-6.8l-4.7-10h3.5l2.7 6.1 2.6-6.1h3.5l-4.5 10z m-287.3-10v16.8h-3.3V550h-4.7v6.5h-3.2v-16.7h3.3v6.5h4.7v-6.6h3.2z m102.1 0v16.7h-3.3V550h-4.7v6.4h-3.3v-16.7h3.3v6.5h4.7v-6.5h3.3z m-79.6 16.8h-3.4l-0.8-2.8h-5.1l-0.8 2.8h-3.4l5.2-16.8h3.2l5.1 16.8z m-5.1-6.4l-1.6-5.6-1.6 5.6h3.2z m25.3-10.4v16.7H188l-4.8-9.6v9.6h-3.3v-16.7h3l4.9 9.5v-9.5h3.3z m19.8 7.5v4.2c-0.1 2.9-2.5 5.1-5.4 5.1-2.8 0.1-5.2-2-5.4-4.8v-6.4c-0.1-2.9 2.2-5.3 5.1-5.5h0.3c2.8-0.1 5.2 2.1 5.4 4.9V545.5h-3c0-0.3-0.1-0.6-0.1-0.8-0.3-1-1.2-1.6-2.3-1.6-1.3 0-2.2 1.1-2.2 2.6v4.9c-0.2 1.2 0.7 2.3 1.8 2.4h0.3c1.3 0 2.2-0.7 2.2-2.6h-2.4v-3.3h5.7z m19.4 9.3H220v-2.7c0-0.3 0.1-0.7 0.3-1l5.6-9.5h-5.7v-3.5h9.5v2.7c0 0.3-0.1 0.7-0.3 1l-5.6 9.5h6.4l0.1 3.5z m40-5.5c0.2 3-2.1 5.5-5.1 5.6-3 0.2-5.5-2.1-5.6-5.1v-6.3c-0.2-3 2.1-5.5 5.1-5.6 3-0.2 5.5 2.1 5.6 5.1v6.3z m-3.1-5.4c0.1-1.2-0.7-2.3-2-2.5-1.2-0.1-2.3 0.7-2.5 2v5.5c-0.1 1.2 0.7 2.3 2 2.5 1.2 0.1 2.3-0.7 2.5-2v-5.5z m23.1-5.9v11.4c0 3-2.4 5.4-5.4 5.4s-5.4-2.4-5.4-5.4v-11.4h3.2v10.9c0 1.6 0.8 2.5 2.2 2.5 1.2 0 2.2-0.9 2.2-2.1v-11.3h3.2z m591.5 10.1v6.7h-3.2v-6.7l-4.7-10h3.6l2.7 6.1 2.6-6.1h3.5l-4.5 10z m-174.5-6.6h-3.7v13.4h-3.1v-13.4h-3.8v-3.4h10.6v3.4z m19.4 13.3h-10.3v-16.7h9.9v3.3h-6.7v2.8h6v3.2h-6v4h7.1v3.4z m14.5 0.1c-2.9 0.1-5.3-2.2-5.4-5.1v-6.3c-0.1-2.9 2.3-5.3 5.2-5.4h0.2c2.7-0.2 5.1 1.8 5.3 4.5v0.7h-3c0-0.3-0.1-0.5-0.2-0.7-0.4-0.8-1.2-1.2-2.1-1.1-1.2-0.1-2.2 0.9-2.3 2.1v5.7c-0.1 1.2 0.8 2.2 2 2.3h0.3c1 0.1 2-0.5 2.1-1.6v-0.9h3.1s0.1 0.1 0.1 0.8c-0.1 2.9-2.5 5.1-5.3 5z m25.3-16.8v16.7h-3.1v-7h-4.5v7h-3.1v-16.7h3.1v6.2h4.5v-6.2h3.1z m20 0v16.7h-2.9l-4.7-9.9v9.9h-3.1v-16.7h3l4.7 9.1v-9.1h3z m19.9 11.5c0 3-2.4 5.4-5.4 5.4s-5.4-2.4-5.4-5.4v-6.1c0-3 2.4-5.4 5.4-5.4s5.4 2.4 5.4 5.4v6.1z m-3.1-5.8c0.1-1.2-0.8-2.3-2.1-2.4-1.2-0.1-2.3 0.8-2.4 2.1V551c-0.1 1.2 0.8 2.3 2.1 2.4 1.2 0.1 2.3-0.8 2.4-2.1V545.5z m21.8 11.1h-9.6v-16.8h3.1v13.5h6.4l0.1 3.3z m19.9-5.3c0 3-2.4 5.4-5.4 5.4-3 0-5.4-2.4-5.4-5.4v-6.1c0-3 2.4-5.4 5.4-5.4 3 0 5.4 2.4 5.4 5.4v6.1z m-3.1-5.8c0.1-1.3-0.8-2.3-2.1-2.5-1.3-0.1-2.3 0.8-2.5 2.1V550.9c-0.1 1.3 0.8 2.3 2.1 2.5s2.3-0.8 2.5-2.1V545.5z m22.9 6.2c-0.2 2.8-2.5 4.9-5.3 4.9-2.8 0.2-5.2-1.9-5.4-4.7V545c0-2.9 2.3-5.2 5.2-5.2h0.2c2.8-0.2 5.2 2 5.4 4.8v0.7H862c0-0.3-0.1-0.5-0.1-0.8-0.3-0.9-1.3-1.5-2.3-1.4-1.2 0-2.2 1-2.2 2.3v5.6c-0.1 1.2 0.7 2.2 1.9 2.4h0.3c1.3 0 2.2-0.7 2.2-2.5h-2.4v-3.1h5.6l-0.2 3.9z m85.5 0.8h3.4v4.1h-3.4v-4.1z m-34.1 4.1c-2.9 0.1-5.3-2.2-5.4-5.1V545.1c-0.1-2.9 2.3-5.3 5.2-5.4h0.3c2.7-0.2 5 1.8 5.3 4.5v0.7h-3c0-0.3-0.1-0.5-0.2-0.7-0.4-0.8-1.2-1.2-2.1-1.1-1.2 0-2.2 0.9-2.2 2.1v5.7c-0.1 1.2 0.7 2.2 1.9 2.4h0.3c1 0.1 2-0.5 2.1-1.6v-0.9h3.1s0.1 0.1 0.1 0.8c-0.2 2.9-2.6 5.1-5.4 5z m25-5.6c0.2 2.9-2.1 5.5-5 5.6-2.9 0.2-5.5-2.1-5.6-5v-6.3c-0.2-2.9 2.1-5.5 5-5.6 2.9-0.2 5.5 2.1 5.6 5v6.3z m-3.1-5.4c0.1-1.2-0.8-2.3-2-2.4-1.2-0.1-2.3 0.8-2.4 2v5.4c-0.1 1.2 0.8 2.3 2 2.4 1.2 0.1 2.3-0.8 2.4-2v-5.4z m28 10.9l-1.6 3.2h-2.1l1.4-3.1h-1.2v-4.1h3.3l0.2 4z m18.6 0.1h-9.4v-16.8h3.1v13.4h6.3v3.4z m19.4-16.8v3.4h-3.6v13.3h-3.1v-13.3h-3.6v-3.4h10.3z m19.9 5.7v5.2c0.1 3-2.2 5.6-5.3 5.7h-5.5v-16.6h5.2c3 0 5.5 2.4 5.6 5.4v0.3z m-3.3 0.4c0.1-1.2-0.7-2.4-2-2.5h-2.3v9.6h2c1.2 0 2.3-0.9 2.3-2.2V545.9z" fill="#4B4948" /></svg>