<?xml version="1.0" standalone="no"?><!DOCTYPE svg PUBLIC "-//W3C//DTD SVG 1.1//EN" "http://www.w3.org/Graphics/SVG/1.1/DTD/svg11.dtd"><svg class="icon" width="200px" height="200.00px" viewBox="0 0 1024 1024" version="1.1" xmlns="http://www.w3.org/2000/svg"><path fill="#333333" d="M1002.663407 898.956106l-205.989941-205.889947c52.697427-73.796397 81.09604-161.7921 81.09604-254.287584C877.769506 196.490406 681.2791 0 438.99093 0 322.496619 0 210.902068 46.197744 128.606086 128.593721c-171.391631 171.291636-171.391631 449.078072-0.099995 620.469704 82.295982 82.295982 193.990528 128.593721 310.384844 128.593721 92.495484 0 180.491187-28.398613 254.287584-81.096041l205.889947 205.989942c28.598604 28.598604 74.896343 28.598604 103.394951 0s28.698599-74.996338 0.19999-103.594941zM438.890935 731.264294c-77.596211 0.099995-152.092574-30.698501-206.889898-85.695816-114.194424-114.194424-114.194424-299.385382 0-413.579806 114.194424-114.194424 299.485377-114.194424 413.679801 0s114.194424 299.485377 0 413.579806c-54.797324 54.997315-129.193692 85.795811-206.789903 85.695816zM585.183792 365.682144H511.987366v-73.196426c0.699966-40.398027-31.398467-73.696402-71.796494-74.396367-40.398027-0.699966-73.696402 31.398467-74.396367 71.796494v75.796299h-73.196426c-40.398027 0.699966-72.49646 33.99834-71.796495 74.396368 0.699966 39.398076 32.498413 71.096528 71.796495 71.796494h73.196426V584.971437c0.699966 40.398027 33.99834 72.49646 74.396367 71.796494 39.398076-0.699966 71.096528-32.498413 71.796494-71.796494v-73.096431h73.096431c40.398027-0.699966 72.49646-33.99834 71.796494-74.396367-0.599971-39.398076-32.398418-71.096528-71.696499-71.796495z" /></svg>