<?xml version="1.0" standalone="no"?><!DOCTYPE svg PUBLIC "-//W3C//DTD SVG 1.1//EN" "http://www.w3.org/Graphics/SVG/1.1/DTD/svg11.dtd"><svg class="icon" width="200px" height="200.00px" viewBox="0 0 1024 1024" version="1.1" xmlns="http://www.w3.org/2000/svg"><path fill="#333333" d="M938 850.17L759.14 671.33c45.74-64.06 70.42-140.55 70.42-220.85A381.07 381.07 0 0 0 179 181a381.07 381.07 0 0 0 269.49 650.56c80.29 0 156.79-24.67 220.85-70.42L848.17 940A63.51 63.51 0 1 0 938 850.17zM448.49 704.54a253.26 253.26 0 0 1-179.64-74.41c-99.21-99.21-99.21-260.07 0-359.28a254.05 254.05 0 0 1 359.28 0c99.21 99.21 99.21 260.07 0 359.28a253.26 253.26 0 0 1-179.64 74.41z"  /><path fill="#333333" d="M575.51 387H512v-63.54a63.51 63.51 0 1 0-127 0V387h-63.54a63.51 63.51 0 0 0 0 127H385v63.51a63.51 63.51 0 0 0 127 0V514h63.51a63.51 63.51 0 0 0 0-127z"  /></svg>