<?xml version="1.0" standalone="no"?><!DOCTYPE svg PUBLIC "-//W3C//DTD SVG 1.1//EN" "http://www.w3.org/Graphics/SVG/1.1/DTD/svg11.dtd"><svg class="icon" width="200px" height="200.00px" viewBox="0 0 1024 1024" version="1.1" xmlns="http://www.w3.org/2000/svg"><path fill="#333333" d="M350.5 41.8C397.4 9.8 457.2 0.8 514 0c32.1 0.6 65.7 4.7 93.6 20.7 10.1 5.8 18.7 13.8 25.3 23.4 27.1 3.9 54.3 13 74.6 30.6 29.7 25.5 43.4 63 47.4 99.6 6.9 61.6-6.3 123.5-25.2 182.2 14.9 10.9 22.9 29 21 47.4-2.1 20.3-6.5 41.2-18.9 58.4-6.8 9.4-17 15.9-28.4 17.9-4.6 30.9-15.7 60.9-31.7 88.3-7.7 12.9-16.4 25.7-29.1 34.7-0.1 35.4-1.7 70.9 2.7 106.1 9.4 25.7 33.5 43.3 57.4 56.9 71.7 38.2 155 54.4 223.3 98.7 34.6 21.6 64.6 51.1 80.7 87.5 10.5 22.6 15.4 46.9 17.3 71.3-341.3 0.1-682.7 0.1-1024 0 2.4-38 14.5-75.9 38.8-106.8 18.8-24.3 44.2-43.2 71-59.3 61.7-35.8 132.8-53.1 197.4-83.6 29.6-14.9 61.2-33.7 72.8-64.8 4.4-35.2 2.9-70.8 2.8-106.2-14.4-10.1-23.9-24.9-32.5-39.4-14.8-26-25.3-54.2-29.6-83.5-16.9-2.8-29.2-15.7-35.6-30-7.2-15.5-10.8-32.4-12-49.2-0.9-17.5 7-34.2 21.2-44.6-13.7-51.3-23.7-104.1-21.5-157.3 1.5-32.8 7.9-66 23.2-95.8 12.6-24.5 31.4-45.8 54.5-61.4z"  /></svg>