<?xml version="1.0" standalone="no"?><!DOCTYPE svg PUBLIC "-//W3C//DTD SVG 1.1//EN" "http://www.w3.org/Graphics/SVG/1.1/DTD/svg11.dtd"><svg class="icon" width="200px" height="200.00px" viewBox="0 0 1024 1024" version="1.1" xmlns="http://www.w3.org/2000/svg"><path d="M64.54 511.48c0 247.28 200.39 447.74 447.59 447.74s447.6-200.46 447.6-447.74-200.4-447.74-447.6-447.74S64.54 264.2 64.54 511.48z" fill="#00B3C1" /><path d="M510.11 526.25c31.06 17 78.63-111.82-2.8-104.54s2.8 104.54 2.8 104.54z" fill="#FFE1CC" /><path d="M490.27 828.21a21.86 21.86 0 1 0 21.86-21.87 21.87 21.87 0 0 0-21.86 21.87z" fill="#5A7C88" /><path d="M331.17 526.16c-30.6 17.85-81.59-109.68 0-104.57s0 104.57 0 104.57z m357.2 0C719 544 770 416.49 688.36 421.59s0 104.57 0 104.57z" fill="#FFE1CC" /><path d="M707.43 459.67c0 107.55-87.16 224-194.67 224s-194.67-116.41-194.67-224 87.16-194.73 194.67-194.73 194.67 87.18 194.67 194.73z m-15.78 347.82c0 47.39-80.09 85.8-178.9 85.8s-178.9-38.41-178.9-85.8 80.09-62.13 178.9-62.13 178.9 14.75 178.9 62.13z" fill="#FFE1CC" /><path d="M764 881.67A441.23 441.23 0 0 1 671.3 930q-13 5-26.26 9.1a441.36 441.36 0 0 1-87.36 17.8q-21 2.14-42.19 2.26h-6.34q-20.91-0.08-41.75-2.17a439.82 439.82 0 0 1-83.14-16.38q-12.06-3.52-23.87-7.81-6.76-2.38-13.4-5.1c-1.38-0.53-2.8-1.07-4.17-1.69-10.07-4.08-20-8.57-29.68-13.45q-2.05-0.93-4-2a442.35 442.35 0 0 1-47.91-28.31c14.29-33.33 33.36-60.4 56.17-81.88a217.24 217.24 0 0 1 29.24-23.21c3.73-2.49 7.5-4.88 11.36-7.14q4.33-2.55 8.78-4.88 6.11-3.26 12.42-6.12c0.93-0.44 1.86-0.84 2.79-1.24q7.45-3.35 15.13-6.12c1.73-0.67 3.42-1.29 5.15-1.86h0.09q3.42-1.19 6.88-2.26c2.26-0.75 4.52-1.42 6.79-2.09a3.44 3.44 0 0 0 0.13 1.29 19.26 19.26 0 0 0 1.15 3.6c0.22 0.44 0.4 0.89 0.62 1.38a81.11 81.11 0 0 0 4.48 8.3 194 194 0 0 0 13.44 19.48s0.09 0.13 0.13 0.18c1.51 1.91 3.11 3.86 4.7 5.86v0.09c0.09 0 0.13 0.13 0.18 0.18q3 3.58 6.08 7.06 3.7 4 7.54 7.94c1.15 1.11 2.31 2.26 3.46 3.37s2.46 2.33 3.73 3.46q1.64 1.56 3.37 3 2.63 2.24 5.32 4.39c1.42 1.11 2.84 2.17 4.26 3.24a97.23 97.23 0 0 0 15.57 9.36 53 53 0 0 0 20.23 5.64 26.53 26.53 0 0 0 4.35 0 53.33 53.33 0 0 0 19.23-5.03 101.3 101.3 0 0 0 16.77-9.94q2.83-2 5.55-4.22c2.53-2.09 5-4.22 7.45-6.48q1.85-1.63 3.59-3.37c1.69-1.6 3.37-3.24 5-4.93q3.48-3.5 6.74-7.19 1.83-2 3.59-4.13 1.82-2.14 3.59-4.3 6.56-8.09 12.38-16.73a120.83 120.83 0 0 0 8.87-15.22c0.22-0.49 0.4-0.93 0.62-1.38a12 12 0 0 0 1.29-4.88c4.84 1.42 9.63 2.93 14.33 4.57 1.38 0.49 2.8 1 4.13 1.51 4.44 1.6 8.83 3.33 13.13 5.24q8.84 3.72 17.3 8.25h0.09c3.11 1.55 6.08 3.24 9.1 5 41 24 74.44 60.4 96.45 111.62z" fill="#FFFDF8" /><path d="M449.51 591.51v181.96h124.23V591.51H449.51z" fill="#FFE1CC" /><path d="M609.72 766.81l-0.22 0.71-9.41 34.48-3.19 11.72-0.75 2.8-1.2 4.35-7.45 27.25-10.78 39.5-19 69.28q-21 2.14-42.19 2.26h-6.34q-20.91-0.08-41.75-2.17c-5.55-21.83-11.62-45.76-17.57-69.19-3.64-14.07-7.19-28-10.56-41.14-1.46-5.59-2.84-11-4.21-16.29a6.57 6.57 0 0 1-0.22-0.89c-1.06-4-2-7.86-3-11.63-0.4-1.46-0.75-2.88-1.11-4.3-1.86-7.23-3.64-13.89-5.24-20q-3.24-12.4-6.66-24.76-0.54-1.86-1.06-3.73a39 39 0 0 0-1.82-5.55l6.57 0.58 27.06 2.49 56.43 5.1h8.32l59.49-0.44 24.93-0.18 9.18-0.09h1.86z" fill="#79C4FF" /><path d="M509.14 959.2q-20.91-0.08-41.75-2.17a439.82 439.82 0 0 1-83.14-16.38q-12.06-3.52-23.87-7.81-5.41-4.83-11-9.41c-1.15-0.93-2.35-1.91-3.55-2.84-0.53-0.44-1.06-0.89-1.64-1.29a17.51 17.51 0 0 0-1.42-1.11q-10.77-8.41-22.18-15.93c-1.15-0.71-2.26-1.46-3.42-2.17s-2.62-1.64-3.91-2.44l-1.42-0.89c0.75-0.58 1.51-1.15 2.26-1.69 0.31-0.22 0.62-0.49 0.89-0.71 2.17-1.6 4.3-3.24 6.39-4.84 2.31-1.82 4.61-3.55 6.83-5.37 12.78-10.07 24.36-19.88 35-29.51q5-4.55 9.89-9.28c4.08-3.86 7.94-7.68 11.71-11.49q4.67-4.85 9.23-9.81c1.11-1.2 2.44-2.49 4.93-2.31a16.72 16.72 0 0 1 4.88 1.42c12.38 5.06 23.78 13.36 33.76 22.1 0.58 0.49 1.15 1 1.69 1.51a230.16 230.16 0 0 1 38.91 45 241.51 241.51 0 0 1 31 67.5z" fill="#E5EAF9" /><path d="M482.39 892.05c12.33 25 23.65 48 28.48 67.19h-1.73q-20.91-0.08-41.75-2.17a439.82 439.82 0 0 1-83.14-16.38c-8.56-8.65-17.35-16.78-26.35-24.23q-1.62-1.49-3.37-2.84c-1.15-1-2.35-1.91-3.5-2.84s-2.57-2-3.86-3c-7.32-5.73-14.73-11.05-22.23-15.89q-1.75-1.22-3.59-2.31-3.05-2-6.17-3.86c6.3-4.62 12.33-9.14 18.15-13.71q13.58-10.58 25.42-20.77 7-6 13.71-12.2c3.5-3.28 6.88-6.48 10.07-9.63 4.44-4.35 8.65-8.65 12.6-12.91a59.24 59.24 0 0 1 4.79-5.37 5 5 0 0 1 3-1.55c1.46 0.13 4.48-0.62 6.12 0a5.59 5.59 0 0 0 5.41-0.75s0.09 0 0.13-0.09a17.52 17.52 0 0 0 3.77-3.73 90.18 90.18 0 0 0 7.05-11.41c2.35-4.22 4.61-8.34 6.88-11.05a13.07 13.07 0 0 1 1.72-1.85 6.66 6.66 0 0 1 1.91-1.24 3.7 3.7 0 0 1 4.13 0.8c0.27 1.82 0.58 3.6 0.93 5.41v0.09c0.27 1.24 0.49 2.53 0.8 3.82a224.4 224.4 0 0 0 6.7 24.68c0.4 1.2 0.8 2.4 1.24 3.64 0.13 0.4 0.27 0.8 0.44 1.2 0.35 1.11 0.8 2.26 1.2 3.37 8.56 23.79 20.23 47.36 31.05 69.46z" fill="#F3F7FF" /><path d="M464 800.13c-22.85 14.79-1.73 8-20.77 27.26C429.15 802.12 353 816.14 330.78 800c90.86-97.28 63.41-22.15 133.22 0.13z" fill="#E5EAF9" /><path d="M462.15 795.53c-22.85 14.79-1.73 8-20.77 27.26-14.05-25.27-90.21-11.25-112.42-27.43 90.86-97.24 63.41-22.12 133.19 0.17z" fill="#F3F7FF" /><path d="M711.45 901.2A334.81 334.81 0 0 0 671.3 930q-13 5-26.26 9.1a441.37 441.37 0 0 1-87.36 17.8q-21 2.14-42.19 2.26a238.82 238.82 0 0 1 32.65-67.59 231.2 231.2 0 0 1 37.53-42c0.58-0.53 1.15-1 1.77-1.46 9.54-8.21 20.36-15.84 31.94-20.59a16.75 16.75 0 0 1 4.88-1.42c2.53-0.18 3.81 1.11 4.92 2.31q12.91 14.11 29.1 29c12.87 11.85 27.33 24 43.57 36.57 3.15 2.38 6.36 4.78 9.6 7.22z" fill="#E5EAF9" /><path d="M708.12 890.1q-3.12 1.9-6.21 3.9A358.59 358.59 0 0 0 645 939.14a441.36 441.36 0 0 1-87.36 17.8q-21 2.14-42.19 2.26h-1.86c5.63-19.44 17.21-42.43 29.37-67.19 9.8-19.88 20-40.92 27.86-62.18 0.8-2.09 1.55-4.17 2.31-6.26 0.58-1.64 1.11-3.28 1.64-4.88a225.71 225.71 0 0 0 6.7-24.63c0.31-1.29 0.53-2.57 0.8-3.86 0.13-0.75 0.27-1.46 0.35-2.17 0.18-1.07 0.36-2.17 0.53-3.24a3.79 3.79 0 0 1 3.06-1.07 5.12 5.12 0 0 1 3 1.55 10.46 10.46 0 0 1 1.69 1.73c3 3.6 6 9.59 9.14 15 0.84 1.46 1.69 2.88 2.62 4.22a23.72 23.72 0 0 0 6 6.92 5.53 5.53 0 0 0 5.55 0.89c1.6-0.67 4.61 0.09 6.08 0 0.84-0.09 1.91 0.58 3 1.51a61.76 61.76 0 0 1 4.83 5.37 461.07 461.07 0 0 0 34.69 33.33c13.4 11.63 28.44 23.56 45.3 35.9z" fill="#F3F7FF" /><path d="M559.3 804.57c22.85 14.79 1.73 8 20.77 27.26 14.05-25.27 90.21-11.25 112.42-27.43-90.86-97.24-63.41-22.11-133.19 0.17z" fill="#E5EAF9" /><path d="M561.12 800c22.85 14.79 1.73 8 20.77 27.26C595.94 802 672.1 816 694.31 799.8c-90.86-97.24-63.41-22.11-133.19 0.17z" fill="#F3F7FF" /><path d="M456.97 733l-70.8 23.81 51.77 77.31 76.89-66.23L456.97 733z" fill="#8FA5B0" /><path d="M450.29 724.65l-72.99 25.78 53.37 83.69 82.15-69.88-62.53-39.59z" fill="#64C4F4" /><path d="M575.23 724.65l70.68 25.78-67.76 87.39-67.76-73.58 64.84-39.59z" fill="#64C4F4" /><path d="M504.19 779.39a8.55 8.55 0 1 0 8.55-8.56 8.55 8.55 0 0 0-8.55 8.56zM504.19 841.52a8.55 8.55 0 1 0 8.55-8.56 8.55 8.55 0 0 0-8.55 8.56zM504.19 912.53a8.55 8.55 0 1 0 8.55-8.56 8.55 8.55 0 0 0-8.55 8.56z" fill="#FFFDF8" /><path d="M361.4 820l12.15 5.47c26.75-59.45 49.44-88.18 76.79-101.8v-14.83C423 722.27 391.71 752.69 361.4 820z m212.52-114v14.9c26.34 11.75 46.46 40 74.36 109.06l12-5c-31.79-78.69-54.96-107.88-86.36-118.96z" fill="#5A7C88" /><path d="M313.14 912.6q-2.05-0.93-4-2 0.9-2.7 1.73-5.41c0.44-1.38 0.89-2.66 1.29-3.95s0.75-2.44 1.11-3.6c0.31-0.89 0.58-1.73 0.84-2.57 0.09-0.31 0.18-0.62 0.27-0.89l0.62 0.18 3.64 1.15c-0.49 1.46-0.93 3-1.46 4.57q-0.4 1.2-0.8 2.53c-0.44 1.42-0.93 2.84-1.42 4.35-0.58 1.82-1.15 3.68-1.78 5.64z m42.46-1c-0.36 0.62-0.71 1.29-1.06 2q-1.25 2.26-2.4 4.57c-0.62 1.2-1.29 2.4-2 3.68-0.27 0.53-0.58 1.06-0.84 1.6-0.75 1.42-1.55 2.84-2.35 4.3-1.38-0.53-2.8-1.06-4.17-1.69 1-1.86 2-3.68 3-5.46a4.93 4.93 0 0 1 0.27-0.49c0.71-1.38 1.42-2.75 2.13-4 1-1.91 2-3.68 2.84-5.33 0.22-0.44 0.44-0.84 0.67-1.24l3.9 2.13z" fill="#879BA0" /><path d="M354.81 923.8l-12.26-5.18 29.63-70.19a13.31 13.31 0 1 0-24.52-10.36L318 908.26l-12.26-5.18 29.63-70.19a26.62 26.62 0 1 1 49 20.72l-29.56 70.19z" fill="#5A7C88" /><path d="M545.67 252.74c8.25-30.51 38.76-48.26 68.91-46s59 21.67 80.41 46.7A120.33 120.33 0 0 1 712.25 279c14.88 30.71 12.78 136.43 0 165.6z" fill="#332115" /><path d="M547.25 193.78C564.53 207.49 580.54 232 572 254c-20.43 29.8-59 28.23-91.07 37-25.05 6.89-48.11 21.48-73.13 28.54-29.38 8.29-61.68 5.45-88-11.65s-45.77-49.33-47-84.14c12.2 6.66 24.94 13.47 38.43 13.28 18.39-0.25 34.48-13.24 50.44-23.76 16.61-10.94 34.26-19.61 51.86-28.26 13.56-6.66 27.25-13.36 41.73-16.54 31.82-7 65.42 4 92.1 25.21z" fill="#332115" /><path d="M718.36 407.78c-0.36-10.27-1.36-19.67-1.36-24.31-0.42-34.19-11.1-64.08-31.47-91.55-35.39-47.72-88.83-76.82-148.66-76.82H489.4c-53.43 0-104.33 24.6-140.13 63.81a181 181 0 0 0-43.14 85 198.8 198.8 0 0 0-3.89 49.34c0.57 13-2 37.92 14.39 28.55 10.2-5.81 20.35-26.89 29-35.86a213.66 213.66 0 0 1 36.66-30.5 178.48 178.48 0 0 1 89.26-28.85c51.16-2.33 99.7 16.47 143.64 41.11 25.05 14 48.17 21.75 65.78 45.2 4.41 5.87 8.85 12.4 15.76 14.88 20.14 7.24 22.33-18.32 21.6-40z" fill="#332115" /><path d="M304.31 398.44c1.92-5.1 5.74-9.27 9.88-12.81A72.64 72.64 0 0 1 366 368.51c-18.55 19.25-36.55 42-37.73 68.72-0.78 17.5 5.74 35.94-1.13 52.06A190.14 190.14 0 0 1 303.23 416c-0.65-5.89-1-12 1.08-17.56z m410.57 0c-1.92-5.1-5.74-9.27-9.88-12.81a72.64 72.64 0 0 0-51.8-17.11c18.55 19.25 36.55 42 37.73 68.72 0.78 17.5-5.74 35.94 1.13 52.06A190.14 190.14 0 0 0 716 416c0.65-5.89 1-12-1.08-17.56z" fill="#332115" /><path d="M572.9 670.91v17.8c-35.52 19.39-80.13 16.24-124.74 0.58v-19.36c5 0.13 1.76 0.27 2 0.35a153.75 153.75 0 0 0 62.09 13.36 149.76 149.76 0 0 0 60.65-12.73z" fill="#F4C7A8" /></svg>