<?xml version="1.0" standalone="no"?><!DOCTYPE svg PUBLIC "-//W3C//DTD SVG 1.1//EN" "http://www.w3.org/Graphics/SVG/1.1/DTD/svg11.dtd"><svg class="icon" width="200px" height="200.00px" viewBox="0 0 1024 1024" version="1.1" xmlns="http://www.w3.org/2000/svg"><path d="M128.1 0H896c85.3 0 128 42.7 128 128.1v767.8c0 85.4-42.7 128.1-128.1 128.1H128.1C42.7 1023.9 0 981.2 0 895.8V128.1C0 42.7 42.7 0 128.1 0z" fill="#09BBFC" /><path d="M832.2 227.9c0-0.6-0.1-1.1-0.1-1.8s0-1.1-0.1-1.6-0.2-1.2-0.3-1.8c0-0.4-0.1-0.7-0.2-1.1v-0.4c-0.1-0.6-0.3-1.2-0.5-1.8s-0.2-1-0.4-1.4c-0.2-0.6-0.5-1.3-0.7-1.9l-0.2-0.6-0.1-0.4-0.1-0.3c-0.3-0.7-0.6-1.3-0.9-1.9-0.2-0.4-0.3-0.7-0.5-1.1-0.3-0.6-0.7-1.2-1.1-1.8-0.1-0.2-0.2-0.4-0.3-0.5l-0.2-0.3-0.1-0.1c-0.4-0.6-0.8-1.1-1.3-1.7-0.2-0.3-0.5-0.6-0.7-0.9-0.4-0.5-0.9-1-1.4-1.5-0.3-0.3-0.5-0.6-0.8-0.9-0.4-0.4-0.9-0.8-1.3-1.1-0.5-0.4-0.6-0.6-1-0.9-0.4-0.3-1-0.7-1.5-1.1s-0.8-0.6-1.1-0.9l-0.3-0.2-0.4-0.2c-0.3-0.2-0.6-0.4-0.9-0.5-0.3-0.2-0.8-0.5-1.2-0.8s-1.1-0.5-1.6-0.8-0.9-0.4-1.3-0.6c-0.1 0-0.3-0.1-0.4-0.1l-0.5-0.2-0.8-0.3c-0.5-0.2-1-0.4-1.5-0.5-0.5-0.2-1-0.3-1.5-0.4-0.5-0.1-1.1-0.3-1.7-0.4-0.1 0-0.2 0-0.4-0.1h-0.3l-1.3-0.2c-0.5-0.1-0.9-0.2-1.4-0.2-1.1-0.1-2.3-0.2-3.4-0.2h-0.1l-269.7 1c-18.8 0.4-33.8 15.9-33.4 34.8 0.4 18.3 15.2 33.1 33.5 33.4h0.1l187.4-0.7-123.5 123.6c-43.5-34.3-97.2-53-152.6-53h-3.3C300 335.3 190.1 448.1 191.9 584.9c1.7 135.1 113 244.9 248.1 244.9h3.3c136.8-1.5 246.4-113.6 244.9-250.4-0.6-51.8-17.4-102.2-48.1-143.9L764 310.7v186.9c-0.3 18.8 14.6 34.4 33.5 34.7 18.8 0.3 34.4-14.6 34.7-33.5V227.9zM560.9 699.4c-31.1 32.2-73.9 50.5-118.6 51H440c-91.8 0-167.4-74.7-168.6-166.5-1.2-93 73.4-169.7 166.4-170.9h2.3c91.8 0 167.4 74.7 168.6 166.5 0.7 44.7-16.5 87.9-47.8 119.9z" fill="#FFFFFF" /></svg>