<?xml version="1.0" standalone="no"?><!DOCTYPE svg PUBLIC "-//W3C//DTD SVG 1.1//EN" "http://www.w3.org/Graphics/SVG/1.1/DTD/svg11.dtd"><svg class="icon" width="200px" height="200.00px" viewBox="0 0 1024 1024" version="1.1" xmlns="http://www.w3.org/2000/svg"><path fill="#333333" d="M370.42 99.15c41.06-28 93.3-35.82 143-36.53 28.09 0.53 57.45 4.12 81.84 18.14a68.57 68.57 0 0 1 22.11 20.46c23.68 3.39 47.46 11.35 65.28 26.8 26 22.27 38 55.08 41.44 87.15 6 53.89-5.54 108-22.07 159.36A45.49 45.49 0 0 1 720.36 416c-1.81 17.74-5.71 36.06-16.52 51.08A39.07 39.07 0 0 1 679 482.74C675 509.8 665.27 536 651.3 560c-6.7 11.28-14.33 22.48-25.48 30.33-0.09 30.93-1.45 62 2.38 92.81 8.2 22.49 29.33 37.84 50.25 49.77 62.7 33.41 135.57 47.62 195.31 86.32 30.24 18.91 56.54 44.69 70.55 76.49 9.15 19.74 13.44 41.06 15.17 62.4q-447.89 0.13-895.76 0c2.1-33.21 12.68-66.41 33.91-93.4 16.41-21.24 38.7-37.82 62.13-51.84 54-31.28 116.2-46.47 172.65-73.11 25.85-13 53.53-29.43 63.67-56.65 3.87-30.78 2.51-61.9 2.49-92.85-12.63-8.84-20.87-21.77-28.45-34.45-12.92-22.72-22.12-47.44-25.92-73.03-14.78-2.48-25.53-13.71-31.1-26.2-6.34-13.57-9.46-28.33-10.46-43.06a45.41 45.41 0 0 1 18.51-39c-12-44.92-20.76-91.13-18.78-137.59 1.27-28.71 6.9-57.71 20.28-83.75a144.38 144.38 0 0 1 47.78-54z"  /></svg>