<?xml version="1.0" standalone="no"?><!DOCTYPE svg PUBLIC "-//W3C//DTD SVG 1.1//EN" "http://www.w3.org/Graphics/SVG/1.1/DTD/svg11.dtd"><svg class="icon" width="200px" height="200.00px" viewBox="0 0 1024 1024" version="1.1" xmlns="http://www.w3.org/2000/svg"><path d="M0 512c0 282.8 229.2 512 512 512s512-229.2 512-512S794.8 0 512 0 0 229.2 0 512z" fill="#00B3C1" /><path d="M509.7 528.9c35.5 19.4 89.9-127.9-3.2-119.5s3.2 119.5 3.2 119.5z" fill="#FFE1CC" /><path d="M487 874.1c0 13.8 11.2 25 25 25s25-11.2 25-25-11.2-25-25-25-25 11.2-25 25z" fill="#5A7C88" /><path d="M305 528.8c-35 20.4-93.3-125.4 0-119.6s0 119.6 0 119.6z m408.6 0c35 20.4 93.4-125.4 0-119.6s0 119.6 0 119.6z" fill="#FFE1CC" /><path d="M735.4 452.7c0 123-99.7 256.1-222.7 256.1S290 575.7 290 452.7 389.7 230 512.7 230s222.7 99.7 222.7 222.7z m-18.1 397.7c0 54.2-91.6 98.1-204.6 98.1s-204.6-43.9-204.6-98.1c0-54.2 91.6-71 204.6-71s204.6 16.9 204.6 71z" fill="#FFE1CC" /><path d="M800.1 935.3c-33 22.6-68.6 41.1-106 55.3-9.9 3.8-19.9 7.3-30 10.4-32.5 10.1-66 17-99.9 20.4-16 1.6-32.1 2.5-48.3 2.6h-7.3c-15.9-0.1-31.9-0.9-47.8-2.5-32.2-3.2-64.1-9.4-95.1-18.7-9.2-2.7-18.3-5.7-27.3-8.9-5.2-1.8-10.3-3.8-15.3-5.8-1.6-0.6-3.2-1.2-4.8-1.9-11.5-4.7-22.9-9.8-34-15.4-1.6-0.7-3.1-1.5-4.6-2.3-18.9-9.6-37.2-20.4-54.8-32.4 16.3-38.1 38.2-69.1 64.3-93.6 10.4-9.8 21.6-18.7 33.4-26.5 4.3-2.8 8.6-5.6 13-8.2 3.3-1.9 6.6-3.8 10-5.6 4.7-2.5 9.4-4.8 14.2-7 1.1-0.5 2.1-1 3.2-1.4 5.7-2.6 11.5-4.9 17.3-7 2-0.8 3.9-1.5 5.9-2.1h0.1c2.6-0.9 5.2-1.8 7.9-2.6 2.6-0.9 5.2-1.6 7.8-2.4 0 0.5 0 1 0.1 1.5 0.3 1.4 0.7 2.8 1.3 4.1 0.3 0.5 0.5 1 0.7 1.6 1.5 3.3 3.2 6.4 5.1 9.5 4.7 7.7 9.8 15.2 15.4 22.3 0 0 0.1 0.1 0.1 0.2 1.7 2.2 3.6 4.4 5.4 6.7v0.1c0.1 0 0.1 0.1 0.2 0.2 2.3 2.7 4.6 5.4 7 8.1 2.8 3 5.7 6.1 8.6 9.1 1.3 1.3 2.6 2.6 4 3.9 1.3 1.3 2.8 2.7 4.3 4 1.3 1.2 2.5 2.3 3.9 3.4 2 1.7 4 3.4 6.1 5 1.6 1.3 3.2 2.5 4.9 3.7 5.6 4.1 11.6 7.7 17.8 10.7 7.2 3.7 15.1 5.9 23.1 6.4 1.7 0.1 3.3 0.1 5 0 7.6-0.5 15.1-2.5 22-5.8 6.7-3.2 13.2-7 19.2-11.4 2.2-1.5 4.3-3.1 6.3-4.8 2.9-2.4 5.7-4.8 8.5-7.4 1.4-1.2 2.8-2.5 4.1-3.9 1.9-1.8 3.9-3.7 5.7-5.6 2.7-2.7 5.2-5.4 7.7-8.2 1.4-1.5 2.8-3.1 4.1-4.7 1.4-1.6 2.8-3.3 4.1-4.9 5-6.2 9.7-12.5 14.2-19.1 3.8-5.5 7.2-11.4 10.1-17.4 0.3-0.6 0.5-1.1 0.7-1.6 0.9-1.7 1.4-3.6 1.5-5.6 5.5 1.6 11 3.4 16.4 5.2 1.6 0.6 3.2 1.1 4.7 1.7 5.1 1.8 10.1 3.8 15 6 6.7 2.8 13.3 6 19.8 9.4h0.1c3.6 1.8 7 3.7 10.4 5.7 47 27.3 85.3 68.9 110.5 127.5z" fill="#FFFDF8" /><path d="M440.4 603.5v208.1h142.1V603.5H440.4z" fill="#FFE1CC" /><path d="M623.6 803.9l-0.3 0.8-10.8 39.4-3.6 13.4-0.9 3.2-1.4 5-8.5 31.2-12.3 45.2-21.7 79.2c-16 1.6-32.1 2.5-48.3 2.6h-7.3c-15.9-0.1-31.9-0.9-47.8-2.5-6.3-25-13.3-52.3-20.1-79.1-4.2-16.1-8.2-32-12.1-47-1.7-6.4-3.2-12.6-4.8-18.6-0.1-0.3-0.2-0.7-0.3-1-1.2-4.6-2.3-9-3.4-13.3-0.5-1.7-0.9-3.3-1.3-4.9-2.1-8.3-4.2-15.9-6-22.9-2.5-9.5-5-18.9-7.6-28.3-0.4-1.4-0.8-2.8-1.2-4.3-0.5-2.2-1.2-4.3-2.1-6.3l7.5 0.7 31 2.8 64.5 5.8h9.5l68.1-0.5 28.5-0.2 10.5-0.1h2.1l0.1-0.3z" fill="#79C4FF" /><path d="M508.6 1023.9c-15.9-0.1-31.9-0.9-47.8-2.5-32.2-3.2-64.1-9.4-95.1-18.7-9.2-2.7-18.3-5.7-27.3-8.9-4.1-3.7-8.3-7.3-12.6-10.8-1.3-1.1-2.7-2.2-4.1-3.2-0.6-0.5-1.2-1-1.9-1.5-0.5-0.5-1.1-0.9-1.6-1.3-8.2-6.4-16.7-12.5-25.4-18.2-1.3-0.8-2.6-1.7-3.9-2.5-1.3-0.8-3-1.9-4.5-2.8l-1.6-1c0.9-0.7 1.7-1.3 2.6-1.9 0.4-0.3 0.7-0.6 1-0.8 2.5-1.8 4.9-3.7 7.3-5.5 2.6-2.1 5.3-4.1 7.8-6.1 14.6-11.5 27.9-22.7 40-33.7 3.8-3.5 7.6-7 11.3-10.6 4.7-4.4 9.1-8.8 13.4-13.1 3.6-3.7 7.1-7.4 10.6-11.2 1.3-1.4 2.8-2.8 5.6-2.6 1.9 0.3 3.8 0.8 5.6 1.6 14.2 5.8 27.2 15.3 38.6 25.3 0.7 0.6 1.3 1.1 1.9 1.7 17 15.2 32 32.5 44.5 51.5 15.9 23.5 27.9 49.5 35.6 76.8z" fill="#E5EAF9" /><path d="M478 947.1c14.1 28.6 27.1 54.9 32.6 76.8h-2c-15.9-0.1-31.9-0.9-47.8-2.5-32.2-3.2-64.1-9.4-95.1-18.7-9.8-9.9-19.8-19.2-30.1-27.7-1.2-1.1-2.5-2.2-3.9-3.2-1.3-1.1-2.7-2.2-4-3.2s-2.9-2.3-4.4-3.4c-8.4-6.6-16.8-12.6-25.4-18.2-1.3-0.9-2.7-1.8-4.1-2.6-2.3-1.5-4.7-3-7.1-4.4 7.2-5.3 14.1-10.5 20.8-15.7 10.4-8.1 20-16 29.1-23.7 5.3-4.6 10.6-9.2 15.7-14 4-3.8 7.9-7.4 11.5-11 5.1-5 9.9-9.9 14.4-14.8 1.7-2.2 3.5-4.2 5.5-6.1 0.9-1 2.1-1.6 3.4-1.8 1.7 0.1 5.1-0.7 7 0 2.1 0.8 4.4 0.5 6.2-0.9 0 0 0.1 0 0.1-0.1 1.6-1.2 3.1-2.6 4.3-4.3 3-4.1 5.7-8.5 8.1-13 2.7-4.8 5.3-9.5 7.9-12.6 0.6-0.8 1.2-1.5 2-2.1 0.6-0.6 1.4-1.1 2.2-1.4 1.6-0.7 3.5-0.3 4.7 0.9 0.3 2.1 0.7 4.1 1.1 6.2v0.1c0.3 1.4 0.6 2.9 0.9 4.4 2 9.5 4.6 19 7.7 28.2 0.5 1.4 0.9 2.7 1.4 4.2 0.1 0.5 0.3 0.9 0.5 1.4 0.4 1.3 0.9 2.6 1.4 3.9 9.8 27.2 23.1 54.2 35.5 79.4l-0.1-0.1z" fill="#F3F7FF" /><path d="M456.9 842c-26.1 16.9-2 9.1-23.8 31.2-16.1-28.9-103.2-12.9-128.6-31.3 104-111.3 72.6-25.4 152.4 0.1z" fill="#E5EAF9" /><path d="M454.8 836.8c-26.1 16.9-2 9.1-23.8 31.2-16-29-103.1-12.9-128.5-31.4 103.9-111.2 72.5-25.3 152.3 0.2z" fill="#F3F7FF" /><path d="M740 957.6c-16.1 9.8-31.5 20.8-45.9 32.9-9.9 3.8-19.9 7.3-30 10.4-32.5 10.1-66 17-99.9 20.4-16 1.6-32.1 2.5-48.3 2.6 8.3-27.6 20.9-53.7 37.3-77.3 12.3-17.7 26.7-33.8 42.9-48 0.7-0.6 1.3-1.1 2-1.7 10.9-9.4 23.3-18.1 36.5-23.5 1.8-0.8 3.6-1.4 5.6-1.6 2.9-0.2 4.4 1.3 5.6 2.6 9.8 10.8 20.9 21.8 33.3 33.2 14.7 13.5 31.3 27.4 49.8 41.8 3.7 2.7 7.4 5.4 11.1 8.2z" fill="#E5EAF9" /><path d="M736.2 944.9c-2.4 1.4-4.7 2.9-7.1 4.5-23.4 15-45.2 32.3-65.1 51.6-32.5 10.1-66 17-99.9 20.4-16 1.6-32.1 2.5-48.3 2.6h-2.1c6.4-22.2 19.7-48.5 33.6-76.8 11.2-22.7 22.9-46.8 31.9-71.1 0.9-2.4 1.8-4.8 2.6-7.2 0.7-1.9 1.3-3.8 1.9-5.6 3.1-9.2 5.6-18.6 7.7-28.2 0.4-1.5 0.6-2.9 0.9-4.4 0.1-0.9 0.3-1.7 0.4-2.5 0.2-1.2 0.4-2.5 0.6-3.7 0.9-0.9 2.2-1.4 3.5-1.2 1.3 0.2 2.5 0.8 3.4 1.8 0.7 0.6 1.4 1.2 1.9 2 3.4 4.1 6.9 11 10.5 17.2 1 1.7 1.9 3.3 3 4.8 1.8 3.1 4.1 5.7 6.9 7.9 1.8 1.5 4.2 1.9 6.3 1 1.8-0.8 5.3 0.1 7 0 1-0.1 2.2 0.7 3.4 1.7 2 1.9 3.8 4 5.5 6.1 12.6 13.4 25.8 26.1 39.7 38.1 15.3 13.3 32.5 26.9 51.8 41z" fill="#F3F7FF" /><path d="M566 847.1c26.1 16.9 2 9.1 23.8 31.2 16.1-28.9 103.2-12.9 128.6-31.4-104-111.2-72.6-25.3-152.4 0.2z" fill="#E5EAF9" /><path d="M568 841.9c26.1 16.9 2 9.1 23.8 31.2 16.1-28.9 103.2-12.9 128.6-31.4-103.9-111.2-72.5-25.3-152.4 0.2z" fill="#F3F7FF" /><path d="M448.9 765.3l-81 27.2 59.2 88.4 88-75.7-66.2-39.9z" fill="#8FA5B0" /><path d="M441.3 755.7l-83.5 29.5 61 95.7 94-79.9-71.5-45.3z" fill="#64C4F4" /><path d="M584.2 755.7l80.9 29.5-77.5 99.9L510 801l74.2-45.3z" fill="#64C4F4" /><path d="M502.9 818.3c0 5.4 4.4 9.8 9.8 9.8s9.8-4.4 9.8-9.8-4.4-9.8-9.8-9.8-9.8 4.4-9.8 9.8z m0 71c0 5.4 4.4 9.8 9.8 9.8s9.8-4.4 9.8-9.8-4.4-9.8-9.8-9.8c-5.4 0.1-9.8 4.4-9.8 9.8z m0 81.2c0 5.4 4.4 9.8 9.8 9.8s9.8-4.4 9.8-9.8-4.4-9.8-9.8-9.8c-5.4 0.1-9.8 4.4-9.8 9.8z" fill="#FFFDF8" /><path d="M339.6 864.7l13.9 6.3c30.6-68 56.6-100.8 87.8-116.4v-17C410 753 374.2 787.8 339.6 864.7z m243.1-130.3v17c30.1 13.4 53.1 45.7 85.1 124.7l13.7-5.7c-36.4-90-62.9-123.3-98.8-136z" fill="#5A7C88" /><path d="M284.4 970.6c-1.6-0.7-3.1-1.5-4.6-2.3 0.7-2.1 1.3-4.1 2-6.2 0.5-1.6 1-3 1.5-4.5s0.9-2.8 1.3-4.1c0.4-1 0.7-2 1-2.9 0.1-0.4 0.2-0.7 0.3-1l0.7 0.2 4.2 1.3c-0.6 1.7-1.1 3.4-1.7 5.2-0.3 0.9-0.6 1.9-0.9 2.9-0.5 1.6-1.1 3.2-1.6 5-0.8 2.1-1.5 4.2-2.2 6.4z m48.5-1.1c-0.4 0.7-0.8 1.5-1.2 2.3-1 1.7-1.9 3.5-2.7 5.2-0.7 1.4-1.5 2.7-2.3 4.2-0.3 0.6-0.7 1.2-1 1.8-0.9 1.6-1.8 3.2-2.7 4.9-1.6-0.6-3.2-1.2-4.8-1.9 1.1-2.1 2.3-4.2 3.4-6.2l0.3-0.6c0.8-1.6 1.6-3.1 2.4-4.6 1.1-2.2 2.3-4.2 3.2-6.1 0.3-0.5 0.5-1 0.8-1.4l4.6 2.4z" fill="#879BA0" /><path d="M332 983.4l-14-5.9 33.9-80.3c3.3-7.7-0.2-16.7-7.9-20-7.7-3.3-16.7 0.2-20 7.9 0 0.1-0.1 0.2-0.1 0.3L290 965.7l-14-5.9 33.9-80.3c6-15.7 23.5-23.6 39.3-17.7 15.7 5.9 23.7 23.5 17.7 39.2-0.3 0.7-0.6 1.4-0.9 2.2l-34 80.2z" fill="#5A7C88" /><path d="M550.4 216.1c9.4-34.9 44.3-55.2 78.8-52.6 34.5 2.6 67.5 24.8 92 53.4 7.8 8.9 14.4 18.7 19.7 29.2 17 35.1 14.6 156 0 189.4L550.4 216.1z" fill="#332115" /><path d="M552.2 148.7c19.8 15.7 38.1 43.7 28.3 68.9-23.4 34.1-67.5 32.3-104.2 42.3-28.7 7.9-55 24.6-83.7 32.6-33.6 9.5-70.6 6.2-100.7-13.3-30.1-19.6-52.4-56.4-53.8-96.2 14 7.6 28.5 15.4 44 15.2 21-0.3 39.4-15.1 57.7-27.2 19-12.5 39.2-22.4 59.3-32.3 15.5-7.6 31.2-15.3 47.7-18.9 36.4-8 74.8 4.6 105.4 28.8v0.1z" fill="#332115" /><path d="M747.9 393.4c-0.4-11.7-1.6-22.5-1.6-27.8-0.5-39.1-12.7-73.3-36-104.7-40.5-54.6-101.6-87.8-170.1-87.8H486c-61.1 0-119.3 28.1-160.3 73-24.8 27.4-41.9 61-49.3 97.2-3.8 18.5-5.3 37.5-4.4 56.4 0.7 14.9-2.3 43.4 16.5 32.6 11.7-6.6 23.3-30.7 33.2-41 12.6-13.2 26.7-24.9 41.9-34.9 30.5-19.9 65.7-31.3 102.1-33 58.5-2.7 114 18.8 164.3 47 28.7 16 55.1 24.9 75.2 51.7 5 6.7 10.1 14.2 18 17 23 8.3 25.5-20.9 24.7-45.7z" fill="#332115" /><path d="M274.3 382.7c2.2-5.8 6.6-10.6 11.3-14.6 16.5-14 37.7-21 59.3-19.6-21.2 22-41.8 48-43.2 78.6-0.9 20 6.6 41.1-1.3 59.5-14.7-25.8-24.1-54.3-27.4-83.8-0.7-6.7-1.1-13.7 1.3-20.1z m469.6 0c-2.2-5.8-6.6-10.6-11.3-14.6-16.5-14-37.7-21-59.3-19.6 21.2 22 41.8 48 43.2 78.6 0.9 20-6.6 41.1 1.3 59.5 14.8-25.8 24.1-54.3 27.4-83.8 0.7-6.7 1.1-13.7-1.3-20.1z" fill="#332115" /><path d="M581.5 694.3v20.4c-40.6 22.2-91.7 18.6-142.7 0.7v-22.1c5.7 0.1 2 0.3 2.3 0.4 22.4 10 46.5 15.2 71 15.3 23.9-0.1 47.6-5.1 69.4-14.7z" fill="#F4C7A8" /></svg>