<?xml version="1.0" standalone="no"?><!DOCTYPE svg PUBLIC "-//W3C//DTD SVG 1.1//EN" "http://www.w3.org/Graphics/SVG/1.1/DTD/svg11.dtd"><svg class="icon" width="200px" height="200.00px" viewBox="0 0 1024 1024" version="1.1" xmlns="http://www.w3.org/2000/svg"><path fill="#333333" d="M384 128L512 0l128 128-128 128-128-128zM192 320l128-128 128 128-128 128-128-128zM0 512l128-128 128 128-128 128L0 512z m576-192l128-128 128 128-128 128-128-128zM384 512l128-128 128 128-128 128-128-128zM192 704l128-128 128 128-128 128-128-128z m576-192l128-128 128 128-128 128-128-128zM576 704l128-128 128 128-128 128-128-128zM384 896l128-128 128 128-128 128-128-128z" /></svg>