<?xml version="1.0" standalone="no"?><!DOCTYPE svg PUBLIC "-//W3C//DTD SVG 1.1//EN" "http://www.w3.org/Graphics/SVG/1.1/DTD/svg11.dtd"><svg class="icon" width="200px" height="200.00px" viewBox="0 0 1024 1024" version="1.1" xmlns="http://www.w3.org/2000/svg"><path fill="#333333" d="M409.6 102.4c0 56.6 45.8 102.4 102.4 102.4S614.4 159 614.4 102.4C614.4 45.9 568.6 0 512 0c-56.5 0-102.4 45.8-102.4 102.4zM409.6 512c0 56.6 45.8 102.4 102.4 102.4S614.4 568.6 614.4 512c0-56.6-45.8-102.4-102.4-102.4-56.5 0-102.4 45.8-102.4 102.4zM409.6 921.6c0 56.6 45.8 102.4 102.4 102.4s102.4-45.8 102.4-102.4c0-56.6-45.8-102.4-102.4-102.4-56.5 0-102.4 45.8-102.4 102.4z" /></svg>