<?xml version="1.0" standalone="no"?><!DOCTYPE svg PUBLIC "-//W3C//DTD SVG 1.1//EN" "http://www.w3.org/Graphics/SVG/1.1/DTD/svg11.dtd"><svg class="icon" width="200px" height="200.00px" viewBox="0 0 1024 1024" version="1.1" xmlns="http://www.w3.org/2000/svg"><path d="M512 512m-446.12 0a446.12 446.12 0 1 0 892.24 0 446.12 446.12 0 1 0-892.24 0Z" fill="#1BCAF6" /><path d="M512.82 328a21.48 21.48 0 0 0-22.36 2.8l-120.85 97.93-96.32-0.38h-0.08a21.25 21.25 0 0 0-14.81 6 20.09 20.09 0 0 0-6.2 14.46l-0.44 163.56a20.18 20.18 0 0 0 6.14 14.49 21.15 21.15 0 0 0 14.87 6h97.47l120.24 97.51a21.51 21.51 0 0 0 22.36 2.79 20.4 20.4 0 0 0 12.1-18.51V346.56A20.43 20.43 0 0 0 512.82 328z m81.48 102.28a21.18 21.18 0 0 0-27.71 9.61 20.33 20.33 0 0 0 9.6 27.28c1.33 0.67 32.8 16.59 32.8 61.92 0 48.43-29.43 64.48-30.41 65a20.2 20.2 0 0 0-9.4 27.44A21.1 21.1 0 0 0 588 632.85a21.38 21.38 0 0 0 9.37-2.15c2.19-1.08 53.63-27 53.63-101.61 0-72-54.4-97.74-56.7-98.81z m65.42-60a21.32 21.32 0 0 0-28.88 6.11 20.19 20.19 0 0 0 6.1 28.26c2.28 1.46 56.11 37.15 56.11 126 0 89-51.64 124.76-53.69 126.12a20.11 20.11 0 0 0-5.83 28.36 21.16 21.16 0 0 0 17.5 9.1 21.5 21.5 0 0 0 11.64-3.45c3-1.9 72.4-48.23 72.4-160.15-0.01-112.18-72.27-158.48-75.35-160.4z" fill="#FFFFFF" /></svg>