<?xml version="1.0" standalone="no"?><!DOCTYPE svg PUBLIC "-//W3C//DTD SVG 1.1//EN" "http://www.w3.org/Graphics/SVG/1.1/DTD/svg11.dtd"><svg class="icon" width="200px" height="200.00px" viewBox="0 0 1024 1024" version="1.1" xmlns="http://www.w3.org/2000/svg"><path fill="#333333" d="M512 1024C229.2 1024 0 794.8 0 512S229.2 0 512 0s512 229.2 512 512-229.2 512-512 512z m203.4-538v-53.8c0-84.4-76.1-169.3-174.5-176.2h-56.3c-98.7 6.7-177.5 91.7-177.5 176.3v195.9L256 667.1v49.7h512v-42.9l-52.6-45.8V486zM510.7 819.2c45.5 0 85.4-18.5 103.7-51.2H409.5c18.4 32.7 55.7 51.2 101.2 51.2z m52.5-614.4v-51.2H460.8v51.2c17.4-2.8 35-4.2 52.6-4.2 16.7-0.1 33.3 1.3 49.8 4.2z" /></svg>