<?xml version="1.0" standalone="no"?><!DOCTYPE svg PUBLIC "-//W3C//DTD SVG 1.1//EN" "http://www.w3.org/Graphics/SVG/1.1/DTD/svg11.dtd"><svg class="icon" width="200px" height="200.00px" viewBox="0 0 1024 1024" version="1.1" xmlns="http://www.w3.org/2000/svg"><path fill="#333333" d="M512 959.38c-247.08 0-447.38-200.3-447.38-447.38S264.92 64.62 512 64.62 959.38 264.92 959.38 512 759.08 959.38 512 959.38z m177.74-470.09v-47c0-73.76-66.49-147.91-152.44-154h-49.17C401.9 294.18 333 368.43 333 442.32v171.21l-44.7 34V691h447.39v-37.51l-45.94-40zM510.83 780.43c39.76 0 74.66-16.13 90.65-44.74h-179c16.03 28.61 48.62 44.74 88.35 44.74z m45.91-536.85v-44.74h-89.48v44.74a291.57 291.57 0 0 1 45.94-3.66 247.08 247.08 0 0 1 43.54 3.65z"  /></svg>