<?xml version="1.0" standalone="no"?><!DOCTYPE svg PUBLIC "-//W3C//DTD SVG 1.1//EN" "http://www.w3.org/Graphics/SVG/1.1/DTD/svg11.dtd"><svg class="icon" width="200px" height="200.00px" viewBox="0 0 1024 1024" version="1.1" xmlns="http://www.w3.org/2000/svg"><path fill="#333333" d="M512 0C229.2 0 0 229.2 0 512s229.2 512 512 512 512-229.2 512-512S794.8 0 512 0z m14.9 744.6c-0.1 9.2-5.5 17.5-13.9 21.2-8.5 3.9-18.4 2.6-25.7-3.2l-138-111.9H237.4c-6.4 0-12.5-2.5-17.1-6.9-4.5-4.3-7-10.3-7-16.6l0.5-187.7c0-6.3 2.6-12.3 7.1-16.6 4.6-4.4 10.7-6.9 17-6.9h0.1l110.6 0.4L487.2 304c7.3-5.8 17.2-7.1 25.7-3.2 8.5 3.8 13.9 12.1 14 21.3v422.5z m83.1-96.5c-3.4 1.7-7.1 2.5-10.8 2.5-9.1 0-17.4-5-21.6-13l-0.3-0.6c-5.5-11.5-0.5-25.3 11.1-30.8 1.1-0.6 34.9-19 34.9-74.6 0-52.1-36.1-70.3-37.6-71.1 0 0-0.1-0.1-0.2-0.1-11.6-5.6-16.4-19.6-10.8-31.2 5.9-11.6 20-16.4 31.8-11 2.6 1.2 65 30.8 65 113.3 0 85.6-59 115.4-61.5 116.6z m75 68.9c-4 2.6-8.7 4-13.4 4-8 0.1-15.5-3.8-20.1-10.4-0.2-0.2-0.4-0.5-0.5-0.7-6.8-10.7-3.6-25 7.2-31.8 2.3-1.5 61.6-42.6 61.6-144.7 0-102-61.8-142.9-64.4-144.6-0.2-0.1-0.3-0.2-0.5-0.3-10.7-7.1-13.6-21.4-6.5-32.1 7.3-10.8 22-13.9 33.1-7 3.6 2.1 86.5 55.2 86.6 183.8 0 128.4-79.7 181.6-83.1 183.8z" /></svg>