<?xml version="1.0" standalone="no"?><!DOCTYPE svg PUBLIC "-//W3C//DTD SVG 1.1//EN" "http://www.w3.org/Graphics/SVG/1.1/DTD/svg11.dtd"><svg class="icon" width="200px" height="200.00px" viewBox="0 0 1024 1024" version="1.1" xmlns="http://www.w3.org/2000/svg"><path fill="#333333" d="M884.25 431.92q-4.66 54.38-59 59-52.82-4.65-57.47-59 4.66-52.79 57.47-57.47 54.33 4.67 59 57.47z m-97.85 0q4.67 37.27 38.83 41.93 34.14-3.09 38.83-41.93-4.66-37.28-38.83-40.38-34.23 4.65-38.83 40.38z m-59 82.31q-1.56 155.32-101 158.42-104.07-1.56-104.06-158.42 1.56-156.85 102.54-161.53 100.94 3.14 102.5 161.53z m-169.29 0q0 133.59 66.79 132 66.75 1.56 66.78-132 0-135.12-68.34-133.57-63.71 4.66-65.25 133.57z m-184.82 49.7q-87-7.75-94.74-102.51 6.2-100.93 101-108.72 108.7-1.51 107.17 153.77 0 164.64-113.38 166.18-68.37-3.14-87-66.78L318.91 595q10.84 54.38 57.47 52.8 73-3.09 74.55-128.91-23.31 45.06-77.66 45.04z m3.11-181.71q-59.06 4.65-63.68 76.1 3.09 71.46 63.68 76.1 60.57 0 74.55-55.91-0.02-97.84-74.57-96.29zM512 1024C229.68 1024 0 794.32 0 512v-1h54v1c0 252.57 205.46 458 458 458s458-205.44 458-458S764.55 54 512 54c-141.93 0-268.93 64.93-353 166.59l120.58-1h8.15l-47.11 47.81-168 1.34-1.11-168 47.18-47.87v131.68C212.73 71.85 354.12 0 512 0c282.31 0 512 229.68 512 512s-229.69 512-512 512z" /></svg>