<svg id="图层_1" data-name="图层 1" xmlns="http://www.w3.org/2000/svg" viewBox="0 0 1024 1024"><defs><style>.cls-1,.cls-2{fill:#606060;}.cls-2{fill-rule:evenodd;}</style></defs><title>无图</title><path class="cls-1" d="M496.82,158.85c0,34.56-26.88,62.55-60.06,62.55s-60.05-28-60.05-62.55,26.87-62.49,60.05-62.49S496.82,124.35,496.82,158.85Zm254.47,193L644.8,204.22s-6.2-11.92-27.88-11.92c-24.64,0-32.06,11.55-32.06,11.55L491.57,353.59a19.91,19.91,0,0,1-17.49,10,23.53,23.53,0,0,1-19.24-10l-49-58.31S393.25,278,376.92,278s-29.79,19.14-29.79,19.14l-53.79,69.8V62.44c0-9.75,7.58-17.65,17-17.65h424c9.38,0,17,7.9,17,17.65ZM742.81,0h-441c-28.1,0-50.89,23.69-50.89,53V406c0,29.26,22.79,53,50.89,53h441c28.09,0,50.88-23.75,50.88-53V53C793.69,23.69,770.85,0,742.81,0Z"/><path class="cls-2" d="M791.18,666.52v10.79c0,6.92-.4,13.23-.81,19.34H884.2v87.92H864.86v-69.4H788.13c-5.09,29.72-15.88,52.72-32.57,69l-14.85-13q30.52-29.31,31.14-93.83v-75.1h19.33V648h55.16V596.3h18.93V648h42.94v18.52ZM557.93,760h132.3v-139H557.93ZM709.16,603.84V784.17H690.23V777H557.93v7.13H539V603.84ZM609.63,694a282.53,282.53,0,0,1,44.78,17.3l-9,13.84a222.12,222.12,0,0,0-44.57-18.52Zm-20.76,27.48A478.67,478.67,0,0,1,666.21,742L659.9,757.5a524.11,524.11,0,0,0-78.36-21.57Zm39.48-54.75c8.35-5.29,15.07-11.2,19.95-17.71H606.17c-.41.41-.82.61-.82,1A117.93,117.93,0,0,0,628.35,666.73ZM602.3,623.58l17.1,2.24a97,97,0,0,1-4.07,9.16h52.31v13c-5.09,10-13,18.73-23.61,26.46,12.62,5.7,26.86,10.18,42.94,13.84l-10,14.45c-18.93-5.08-35.21-11.19-49-18.52-15.47,7.74-34.4,14-56.79,19.13l-8.34-15.46c19.54-3.26,36.23-7.54,49.66-13.23a121.49,121.49,0,0,1-17.1-14,154,154,0,0,1-18.72,14l-10.59-14C584,650.45,596,638,602.3,623.58ZM344.83,605.46H493v18.93H421.36V636.6c-.41,11.4-1.22,22-2.44,32.16h90.16v18.73H447.62v65.33c0,6.52,3.05,10,9.36,10h23q6.11,0,9.16-4.28c2.24-2.85,3.86-12.21,4.68-27.68l18.11,5.9c-1.63,21.38-4.88,34.2-9.36,38.27-4.07,3.87-10.38,5.9-18.93,5.9H451.08c-15.07,0-22.6-8.14-22.6-24v-69.4H415.86c-3.66,17.5-8.75,32.56-15.47,45.39q-18.92,33.27-61.06,51.29l-10.78-17.3c28.08-12.83,47-29.11,57-48.65a151.37,151.37,0,0,0,10.17-30.73H331.6V668.76h67.57c1.22-10.17,2-20.76,2.45-32.16V624.39H344.83ZM168.77,733.28h98.92v-11.6H168.77Zm0,27.28h98.92v-12H168.77Zm118.46-55v78.57H267.69V777H168.77v7.13H149.23V705.6ZM248,659.2a103.72,103.72,0,0,1-16.69,43.55l-13.44-14c8.55-12.62,13.23-27.68,13.64-45V610.15c26.46-2.45,46.41-6.92,59.84-13.23l12.62,14.24c-14.86,6.52-33.18,11.2-54.75,13.64v17.5H308v16.9H288.45v41.93H269.93V659.2Zm-30.74,9.36v15.67l-27.68,2.44v14.25H171.62V688.1c-12.82.81-26.05,1.83-39.89,2.65l-2.24-16.69c14.86-.62,28.9-1.23,42.13-2V659H136l-4.07-15.67a120.71,120.71,0,0,0,13.64-19.54H126.44V606.69h27.27c1.63-4.08,3-8.15,4.68-12.22l19.13,3.06c-1.22,3.05-2.23,6.1-3.46,9.16h47v17.09h-55a196.15,196.15,0,0,1-11.81,19.34h17.3v-12h17.91v12h29.72V659H189.53V670.8C199.3,670,208.46,669.37,217.21,668.56Z"/><path class="cls-2" d="M930.88,889.26q-14.05,0-22.6,9.16c-5.7,6.1-8.95,14.25-10,24.63h65.74C962,900.45,950.82,889.26,930.88,889.26Zm-.41-13.64c16.89,0,29.71,5.7,38.26,17.1,7.74,10.18,11.81,24.63,12.21,42.95h-83c.82,11.8,3.87,21,9.57,27.47s13.64,9.77,23.61,9.77c8.55,0,15.67-2.24,21-6.51,4.48-3.66,7.94-9.16,10.59-16.49h16.28c-2.44,10.18-7.12,18.32-14.25,24.83-8.75,7.74-19.94,11.81-33.58,11.81-15.06,0-27.27-5.09-36.23-14.86C885.49,961.51,881,948.08,881,931c0-15.46,4.27-28.49,13.23-38.87C903.19,881.12,915.2,875.62,930.47,875.62Zm-71.44,0a37.56,37.56,0,0,1,14.45,2.45v16.28a53,53,0,0,0-15.67-2.24c-8.15,0-15.07,3.46-20.56,10.79-5.7,6.92-8.35,15.26-8.35,25V983.7H812.82V878.47H828.9v18.32a38.35,38.35,0,0,1,11-14.45A29.24,29.24,0,0,1,859,875.62Zm-160.18,2.85h16.28v64.32c0,10,2,17.5,6.31,22.39s11.19,7.53,20.76,7.53c6.92,0,13.23-2.85,18.72-8.14q8.55-8.55,10.38-22V878.47h16.29V983.7H771.3V967.42c-8.54,12.62-19.94,19.13-34.19,19.13-25.65,0-38.26-14.45-38.26-42.95Zm-44.17-34v34h26.05v13.64H654.68v67c0,3.87.61,6.72,2.24,8.35,1.42,1.63,4.07,2.64,7.73,2.64h13.43V983.7H662.21c-8.55,0-14.86-2.24-18.52-6.72-3.46-4.07-5.09-10-5.09-17.91v-67H617.43V878.47H638.6V851.2Zm-94,31.14c13,0,23.41,3.06,31.35,9.16,8.14,6.31,13,15.88,14.86,28.7H590.77q-2.14-12.21-9.77-18.32c-5.29-4.07-12-5.9-20.36-5.9-10.17,0-18.31,3.87-24.22,11.6q-8.53,11.29-8.54,30.53c0,12.82,2.64,23,8.34,30.33,5.5,7.33,13.64,11.19,24.22,11.19,17.91,0,28.29-9.16,30.74-27.27h16.28c-2.44,13.43-7.53,23.81-15.67,30.73-7.94,6.72-18.32,10.18-31.35,10.18-15.87,0-28.09-5.29-36.84-15.88-8.34-10-12.41-23-12.41-39.07s4.07-29.11,12.41-39.29C532.56,881.12,545,875.62,560.64,875.62Zm-92.2,2.85h16.29V983.7H468.44Zm8.14-39.69a11.69,11.69,0,0,1,8.76,3.46,10.53,10.53,0,0,1,3.66,8.55,11.83,11.83,0,0,1-3.66,8.75,12.81,12.81,0,0,1-17.51,0,11.66,11.66,0,0,1-3.46-8.75c0-3.66,1-6.51,3.46-8.55A11.67,11.67,0,0,1,476.58,838.78Zm-84.46,50.28c-10.59,0-18.93,4.07-24.63,12.41-5.29,7.33-7.94,17.1-7.94,28.9v2c0,12.21,2.85,22,9,29.51a27.62,27.62,0,0,0,23,11.2c11.4,0,19.94-4.07,25.85-11.81q7.93-11,7.93-29.92c0-12.41-2.64-22.39-7.53-29.71C411.86,893.13,403.31,889.06,392.12,889.06Zm2-13.44c15.06,0,27.07,5.5,35.83,16.9,7.93,10.17,12,23,12,38.87,0,15.47-4.07,28.29-11.8,38.47-8.55,11-20.15,16.69-35.21,16.69s-26.67-7.33-34.81-22V1024H343.88V878.47h15.27v17.3C366.68,882.34,378.28,875.62,394.15,875.62Zm-190.3,13.64c-11.2,0-19.95,4.27-26,12.82-5.7,7.74-8.35,17.3-8.35,29.11,0,11.6,2.65,21.17,8.35,28.9,6.1,8.55,14.85,12.82,26,12.82q16.49,0,26.25-12.82c5.5-7.73,8.35-17.5,8.35-28.9,0-11.81-2.85-21.37-8.35-29.11Q220.34,889.25,203.85,889.26Zm0-13.64c15.67,0,28.29,5.29,37.65,16.29,9,10.38,13.44,23.4,13.44,39.28,0,15.67-4.48,28.7-13.23,38.87q-14.36,16.49-37.86,16.49c-15.88,0-28.29-5.5-37.66-16.49-8.95-10.17-13.43-23.2-13.43-38.87,0-15.88,4.48-28.9,13.43-39.28C175.56,880.91,188,875.62,203.85,875.62Zm-111.54,0c26.05,0,39.28,14.45,39.28,43.36V983.7H115.31V920.2c0-20.56-9.36-30.74-27.68-30.74A25.85,25.85,0,0,0,68.7,897.4c-5.7,5.7-8.75,13.23-9.36,22.8v63.5H43.06V878.47H59.34v15.47a36.9,36.9,0,0,1,14-13.43A37.45,37.45,0,0,1,92.31,875.62Z"/></svg>