<?xml version="1.0" standalone="no"?><!DOCTYPE svg PUBLIC "-//W3C//DTD SVG 1.1//EN" "http://www.w3.org/Graphics/SVG/1.1/DTD/svg11.dtd"><svg class="icon" width="200px" height="200.00px" viewBox="0 0 1024 1024" version="1.1" xmlns="http://www.w3.org/2000/svg"><path d="M533.78 157.3v244.55l317.48-124.02L533.78 157.3z" fill="#C8C8C8" /><path d="M533.78 157.3L161.64 277.83l-7.25 11.63 307.47 140.5 71.92-28.11V157.3z" fill="#D3D3D3" /><path d="M461.85 866.7L872.5 691.5l0.67-221.22-343.11 140.33L462 429.87l-0.15 436.83z" fill="#F4F4F4" /><path d="M462.26 430.13l67.8 180.48 429.15-167.94-107.95-164.84-389 152.3z" fill="#EAEAEA" /><path d="M400.52 607.29L155.76 462.24 155 689.5l306.87 177.17-0.02-438.29-61.33 178.91z" fill="#DDDDDD" /><path d="M64.79 414.84l335.82 195.87 61.24-180.75-300.26-152.02-96.8 136.9z" fill="#EAEAEA" /></svg>