<?xml version="1.0" standalone="no"?><!DOCTYPE svg PUBLIC "-//W3C//DTD SVG 1.1//EN" "http://www.w3.org/Graphics/SVG/1.1/DTD/svg11.dtd"><svg class="icon" width="200px" height="200.00px" viewBox="0 0 1024 1024" version="1.1" xmlns="http://www.w3.org/2000/svg"><path fill="#333333" d="M827.3 444.4H343.8c-4.1-19.8-6.2-40-6.1-60.2 0-133.4 87-241.6 194.5-241.6 92.2 0 169.4 79.5 189.4 186.4h138.3C836 142.8 698.4 0 532.1 0 349 0 200.7 173.2 200.7 386.9c0 19.3 1.3 38.6 3.7 57.7h-7.7c-73.3 0-132.7 47.9-132.7 107v365.5c0 59.1 59.4 106.9 132.7 106.9h630.6c73.3 0 132.7-47.9 132.7-106.9V551.5c0-59.1-59.4-107.1-132.7-107.1z" /></svg>