<?xml version="1.0" standalone="no"?><!DOCTYPE svg PUBLIC "-//W3C//DTD SVG 1.1//EN" "http://www.w3.org/Graphics/SVG/1.1/DTD/svg11.dtd"><svg class="icon" width="200px" height="200.00px" viewBox="0 0 1024 1024" version="1.1" xmlns="http://www.w3.org/2000/svg"><path fill="#333333" d="M786.88 453.11H365.34a254.8 254.8 0 0 1-5.34-52.49C360 284.31 435.88 190 529.6 190c80.36 0 147.65 69.35 165.11 162.5h120.58C794.44 190.12 674.5 65.62 529.53 65.62c-159.6 0-288.94 151-288.94 337.31a393.34 393.34 0 0 0 3.25 50.32h-6.71c-63.9 0-115.71 41.78-115.71 93.29v318.63c0 51.51 51.81 93.22 115.71 93.22h549.75c63.9 0 115.71-41.78 115.71-93.22V546.4c-0.01-51.51-51.82-93.29-115.71-93.29z"  /></svg>