<?xml version="1.0" standalone="no"?><!DOCTYPE svg PUBLIC "-//W3C//DTD SVG 1.1//EN" "http://www.w3.org/Graphics/SVG/1.1/DTD/svg11.dtd"><svg class="icon" width="200px" height="200.00px" viewBox="0 0 1024 1024" version="1.1" xmlns="http://www.w3.org/2000/svg"><path fill="#333333" d="M687.3 401H336.7V249.7c0-78.5 80.9-144.2 175.3-144.2s175.3 65.6 175.3 144.2V401zM552.4 728.7v111.4c0 6.4-6.4 6.4-6.4 6.4h-61c-6.4 0-6.4-6.4-6.4-6.4V728.7c-33.4-12.9-53.9-39.3-53.9-72.1 0-45.7 40.4-85.6 87.3-85.6s87.3 39.3 87.3 85.6c0 32.8-19.9 59.2-46.9 72.1zM875.5 401h-80.9V256.2C794.6 105.5 666.7 0 512 0S229.4 105.5 229.4 256.2v137.7h-80.9c-40.4 0-67.4 32.8-67.4 65.6v498.9c0 39.3 33.4 65.6 67.4 65.6h726.9c40.4 0 67.4-32.8 67.4-65.6V466.7c0.1-39.9-26.8-65.7-67.3-65.7z" /></svg>