<?xml version="1.0" standalone="no"?><!DOCTYPE svg PUBLIC "-//W3C//DTD SVG 1.1//EN" "http://www.w3.org/Graphics/SVG/1.1/DTD/svg11.dtd"><svg class="icon" width="200px" height="200.00px" viewBox="0 0 1024 1024" version="1.1" xmlns="http://www.w3.org/2000/svg"><path d="M511.84 62.57c-247.27 0-447.71 200.5-447.71 447.86s200.45 447.86 447.71 447.86a446.13 446.13 0 0 0 309.84-124.58c1-1 2-1.91 3-2.89 1.65-1.61 3.28-3.23 4.89-4.86s3.14-3.18 4.69-4.79a446.36 446.36 0 0 0 125.3-310.74c0-247.36-200.45-447.86-447.72-447.86z" fill="#FFD978" /><path d="M667.84 734.09a1.93 1.93 0 0 1-0.31 0.27c-31.87 28.33-71.75 46-116.19 48.08-2.88 0.13-5.8 0.22-8.72 0.22h-58.43c-2.92 0-5.8-0.09-8.67-0.22q-3.5-0.13-7-0.45a165.34 165.34 0 0 1-18.91-2.62 50.97 50.97 0 0 1-4.56-0.89 171.18 171.18 0 0 1-26.78-8 174.83 174.83 0 0 1-16.9-7.42 195.72 195.72 0 0 1-42-28.69c-0.13 0-0.22-0.18-0.31-0.27-2.7-2.4-5.35-4.86-7.92-7.42-48-47.45-75.56-120.13-69.49-198.23l7.3-94.3 2.12-26.81 1.9-24.91 1.58-20.43c8.65-110.81 95.75-194.43 195.22-194.43h47.31c99.46 0 186.57 83.61 195.2 194.4l1.15 14.77L745.2 528.4c6.42 82.28-24.51 158.55-77.37 205.65z m0 0" fill="#332115" /><path d="M509.83 525.2c31.07 17 78.65-111.85-2.8-104.57s2.8 104.57 2.8 104.57z m0 0" fill="#FFE1CC" /><path d="M490 827.24a21.86 21.86 0 1 0 21.86-21.88A21.86 21.86 0 0 0 490 827.24z m0 0" fill="#5A7C88" /><path d="M330.84 525.11c-30.61 17.85-81.61-109.71 0-104.6s0 104.6 0 104.6z m357.29 0c30.64 17.84 81.65-109.7 0-104.6s0 104.6 0 104.6z m0 0" fill="#FFE1CC" /><path d="M707.2 458.6c0 107.58-87.18 224.06-194.72 224.06S317.75 566.22 317.75 458.6s87.18-194.78 194.72-194.78S707.2 351 707.2 458.6z m-15.79 347.91c0 47.4-80.11 85.82-179 85.82s-178.94-38.42-178.94-85.82 80.11-62.15 178.94-62.15 179 14.76 179 62.15z m0 0" fill="#FFE1CC" /><path d="M763.89 881.64q-2.87-6.66-6-13-2.66-5.44-5.54-10.64c-0.75-1.36-1.5-2.71-2.28-4.05a238.52 238.52 0 0 0-19-28.3q-3.79-4.88-7.81-9.48l-2.48-2.8a220.82 220.82 0 0 0-16.5-16.49 214.42 214.42 0 0 0-7.81-6.71 219.72 219.72 0 0 0-19-13.92q-3.86-2.55-7.81-4.91c-0.75-0.46-1.51-0.91-2.28-1.36q-2.57-1.5-5.15-2.91c-1.3-0.73-2.6-1.41-3.94-2.09h-0.1c-2.49-1.33-5-2.6-7.53-3.83s-5.18-2.44-7.81-3.58c-0.65-0.29-1.3-0.56-2-0.84a186.89 186.89 0 0 0-10.22-4.18l-2.91-1.08c-1.25-0.48-2.58-1-3.89-1.43l-0.25-0.09c-2.5-0.88-5-1.7-7.56-2.5q-3.38-1.07-6.76-2.06a12 12 0 0 1-1.29 4.88c-0.23 0.45-0.4 0.9-0.63 1.39a123.14 123.14 0 0 1-8.86 15.22c-0.46 0.7-0.94 1.39-1.44 2.08q-3.73 5.46-7.81 10.7c-1 1.34-2.08 2.65-3.14 4s-2.38 2.88-3.59 4.3-2.36 2.79-3.59 4.13q-3.26 3.69-6.74 7.19l-0.06 0.06c-0.61 0.64-1.25 1.28-1.88 1.9-1 1-2 2-3.06 3a82.537 82.537 0 0 1-3.6 3.38c-0.39 0.35-0.76 0.7-1.15 1a168.84 168.84 0 0 1-6.29 5.44c-1.83 1.48-3.68 2.89-5.56 4.21a96.061 96.061 0 0 1-7.13 4.76c-1 0.59-1.93 1.15-2.9 1.7-1.61 0.91-3.25 1.79-4.91 2.6-0.6 0.3-1.21 0.6-1.83 0.89a53.42 53.42 0 0 1-17.17 4.84c-0.69 0.08-1.39 0.14-2.08 0.19a28.08 28.08 0 0 1-4.35 0l-1.39-0.13A52.74 52.74 0 0 1 490 827.6a0.67 0.67 0 0 0-0.14-0.06c-2.66-1.29-5.28-2.7-7.81-4.23a92.143 92.143 0 0 1-7.61-5.06c-1.41-1.06-2.84-2.13-4.25-3.24q-2.7-2.16-5.33-4.39c-0.6-0.5-1.19-1-1.78-1.54s-1.08-1-1.6-1.46c-1.26-1.14-2.58-2.36-3.73-3.46l-2.49-2.43-1-1c-1.28-1.31-2.55-2.63-3.8-4s-2.5-2.65-3.74-4q-3.08-3.49-6.08-7.06c-0.05-0.05-0.1-0.18-0.19-0.18v-0.09c-1.19-1.5-2.39-3-3.55-4.43-0.18-0.23-0.39-0.5-0.65-0.81l-0.05-0.06c-0.16-0.23-0.35-0.46-0.56-0.73-2.5-3.19-4.91-6.46-7.2-9.8q-3.26-4.75-6.24-9.68a80.49 80.49 0 0 1-4.49-8.3c-0.21-0.49-0.4-0.94-0.61-1.38a19.29 19.29 0 0 1-1.15-3.61 3.43 3.43 0 0 1-0.14-1.29c-2.11 0.64-4.24 1.26-6.35 2l-0.44 0.14c-2.31 0.71-4.6 1.48-6.88 2.26h-0.1l-0.4 0.14c-1.59 0.54-3.15 1.11-4.75 1.73s-3.31 1.23-5 1.86q-4.69 1.82-9.28 3.86l-0.9 0.4c-0.93 0.4-1.86 0.8-2.79 1.24-1.39 0.63-2.76 1.28-4.13 1.94q-4.2 2-8.3 4.19-3.11 1.63-6.18 3.38c-0.88 0.49-1.74 1-2.6 1.5-0.64 0.38-1.28 0.75-1.91 1.15q-4 2.36-7.81 4.9l-1.64 1.09q-9 6-17.34 12.78c-2.66 2.15-5.26 4.39-7.81 6.69q-2.06 1.84-4.09 3.75-7.75 7.3-14.9 15.45l-0.41 0.48q-3.81 4.35-7.4 9a237 237 0 0 0-19 28.07c-1.78 3.06-3.51 6.18-5.18 9.38-0.9 1.69-1.78 3.41-2.64 5.15q-3.51 7-6.68 14.4c2.21 1.5 4.44 3 6.68 4.44l2.64 1.71q2.57 1.67 5.18 3.26 9.34 5.85 19 11.19 3.68 2.08 7.4 4l0.41 0.23q3.3 1.76 6.64 3.46c1.3 0.71 2.64 1.38 4 2q4.14 2.1 8.35 4.08 3.88 1.86 7.81 3.6 6.71 3 13.53 5.78c1.36 0.63 2.79 1.16 4.16 1.69l1.29 0.51q3.88 1.59 7.81 3c1.43 0.55 2.86 1.06 4.3 1.56l0.21 0.08c4.79 1.74 9.63 3.39 14.48 4.93 2.59 0.84 5.2 1.64 7.81 2.4l1.38 0.41q3.94 1.18 7.9 2.28c3.23 0.91 6.45 1.78 9.7 2.59q3.9 1 7.81 1.93 9.43 2.23 19 4 3.9 0.75 7.81 1.41 7.09 1.22 14.22 2.2l4.78 0.61q3.9 0.51 7.81 0.91c1.38 0.16 2.76 0.3 4.14 0.44q7.41 0.73 14.83 1.23 3.9 0.26 7.81 0.45c6.31 0.3 12.65 0.46 19 0.49h7.81q9.51-0.08 19-0.58c1.64-0.08 3.28-0.18 4.91-0.28l2.9-0.2q7-0.49 14-1.2c1.65-0.16 3.3-0.34 4.94-0.53q3.92-0.43 7.81-0.94l1.88-0.25q8.59-1.13 17.12-2.64 3.92-0.68 7.81-1.44 9.53-1.82 19-4.09 3.92-0.92 7.81-1.94 3.41-0.88 6.8-1.81 6.11-1.69 12.18-3.55l2.05-0.63q2.89-0.88 5.76-1.83 5.81-1.89 11.57-4c2.49-0.88 5-1.8 7.43-2.74l1.51-0.58q3.17-1.2 6.3-2.44 9.58-3.81 19-8c2.61-1.18 5.23-2.38 7.81-3.63q8.35-3.94 16.5-8.26l2.48-1.31c2.63-1.39 5.23-2.83 7.81-4.28q9.64-5.42 19-11.32c0.76-0.48 1.53-1 2.28-1.44q2.78-1.76 5.54-3.58c2-1.34 4-2.69 6-4.05z" fill="#FFFDF8" /><path d="M449.21 590.48h124.26v182.01H449.21z" fill="#FFE1CC" /><path d="M304 397.36c1.92-5.1 5.74-9.27 9.88-12.82a72.66 72.66 0 0 1 51.83-17.12c-18.55 19.25-36.56 42-37.74 68.74-0.78 17.5 5.74 35.95-1.13 52.07a190.21 190.21 0 0 1-23.91-73.31c-0.65-5.89-1-12 1.08-17.56z m410.68 0c-1.92-5.1-5.74-9.27-9.89-12.82A72.64 72.64 0 0 0 653 367.43c18.55 19.25 36.56 42 37.74 68.74 0.78 17.5-5.74 35.95 1.13 52.07a190.2 190.2 0 0 0 23.95-73.32c0.65-5.89 1-12-1.08-17.56z m0 0" fill="#332115" /><path d="M572.63 669.9v17.8c-35.53 19.39-80.15 16.24-124.77 0.58v-19.36c5 0.13 1.76 0.27 2 0.35A153.86 153.86 0 0 0 512 682.63a149.8 149.8 0 0 0 60.67-12.74z m0 0" fill="#F4C7A8" /><path d="M512.67 861.99l-0.83 96.29-4.51-0.06 5.34-96.23z" fill="#E5EAF9" /><path d="M504.12 883.8a8.55 8.55 0 1 0 2.5-6.05 8.55 8.55 0 0 0-2.5 6.05z" fill="#5B5E63" /><path d="M504.67 883a8.55 8.55 0 1 0 2.5-6.05 8.55 8.55 0 0 0-2.5 6.05z" fill="#F2F2F2" /><path d="M504.12 922.9a8.55 8.55 0 1 0 2.5-6.05 8.55 8.55 0 0 0-2.5 6.05z" fill="#5B5E63" /><path d="M504.67 922.12a8.55 8.55 0 1 0 2.5-6.05 8.55 8.55 0 0 0-2.5 6.05z" fill="#F2F2F2" /><path d="M301.89 816.26v90.6q-3.73-2-7.4-4-9.62-5.33-19-11.19-2.61-1.59-5.18-3.26v-25.74c1.66-3.2 3.4-6.31 5.18-9.38a237 237 0 0 1 19-28.07q3.6-4.61 7.4-8.96zM392 753.47v189.41q-4-1.09-7.9-2.28l-1.38-0.41c-2.61-0.76-5.23-1.56-7.81-2.4-4.85-1.54-9.69-3.19-14.48-4.93V768.47q3.06-1.74 6.18-3.38 4.11-2.19 8.3-4.19c1.36-0.66 2.74-1.31 4.13-1.94 0.93-0.44 1.86-0.84 2.79-1.24l0.9-0.4q4.57-2.03 9.27-3.85zM482.07 823.3v134.92q-7.43-0.49-14.83-1.23c-1.38-0.14-2.76-0.28-4.14-0.44q-3.92-0.41-7.81-0.91l-4.78-0.61V796.82c1.25 1.33 2.53 2.64 3.8 4l1 1 2.49 2.43c1.15 1.1 2.46 2.33 3.73 3.46 0.53 0.5 1.06 1 1.6 1.46s1.18 1 1.78 1.54q2.63 2.23 5.33 4.39c1.41 1.11 2.84 2.18 4.25 3.24 2.43 1.66 4.96 3.4 7.58 4.96zM572.17 799.32v155.86l-1.88 0.25q-3.9 0.51-7.81 0.94c-1.64 0.19-3.29 0.36-4.94 0.53q-7 0.71-14 1.2l-2.9 0.2V824.72c1-0.55 1.94-1.11 2.9-1.7a105.2 105.2 0 0 0 7.13-4.76c1.89-1.33 3.74-2.74 5.56-4.21 2.13-1.76 4.23-3.56 6.29-5.44 0.39-0.34 0.76-0.69 1.15-1 1.24-1.1 2.44-2.21 3.6-3.38 1-1 2.05-2 3.06-3 0.59-0.64 1.23-1.23 1.84-1.91zM662.26 767.07V933.3q-5.76 2.08-11.57 4-2.87 0.94-5.76 1.83l-2.05 0.63q-6.06 1.88-12.18 3.55V752.57c3.45 1.3 6.86 2.69 10.22 4.18 0.66 0.28 1.31 0.55 2 0.84q4 1.71 7.81 3.58a254 254 0 0 1 7.53 3.83h0.1c1.3 0.66 2.64 1.35 3.9 2.07zM752.36 858v31.27c-0.75 0.49-1.51 1-2.28 1.44q-9.36 5.91-19 11.32a394.41 394.41 0 0 1-7.81 4.28l-2.48 1.31v-94.24l2.48 2.8q4 4.59 7.81 9.48a238.52 238.52 0 0 1 19 28.3c0.78 1.34 1.53 2.69 2.28 4.04z" fill="#79C4FF" /><path d="M529.95 202.58c17.28 13.71 33.3 38.23 24.76 60.24-20.44 29.81-59 28.24-91.09 37-25.06 6.89-48.12 21.48-73.15 28.55-29.39 8.29-61.7 5.45-88-11.65s-45.78-49.34-47-84.16c12.2 6.66 24.94 13.47 38.44 13.28 18.39-0.25 34.49-13.25 50.45-23.77 16.62-10.95 34.27-19.62 51.87-28.27 13.56-6.66 27.26-13.36 41.74-16.54 31.83-7 65.44 4 92.13 25.22z m0 0" fill="#332115" /><path d="M732.53 368.44c-8.63-110.79-95.75-194.05-195.2-194.05H490c-99.46 0-186.61 83.3-195.24 194.05l-1.59 20.11c6.24 1.6 12.58 3.11 18.95 4.58q5 1.13 10.22 2.27 20.26 4.32 40.72 7.6 21.61 3.48 43.38 5.83a12.25 12.25 0 0 0 13.22-9.61l13.2-60.3s6 31.51 20 57.55a32.85 32.85 0 0 0 28.14 17.3q10.91 0.27 21.92 0.28a868.8 868.8 0 0 0 162.62-15q18.78-3.54 36.92-7.92l1.59-0.4q15-3.6 29.61-7.78z m0 0" fill="#332115" /><path d="M422.67 741.55l90 120.44-100.83-58.47 13.93-34.82-23.72-19.89 20.62-7.26z" fill="#BEC4D3" /><path d="M512.68 861.99l-19.95-13.07-3.42-2.24-6.71-4.4-15.13-9.92-1.44-0.93-6.72-4.41-16.18-10.6-5.28-3.45-1.45-0.95-14.26-9.34-3.15-2.06 1.28-4.28 1.04-3.49 3.34-11.26 2.38-8.04 2.91-9.74-4.18-3.08-1.31-0.96-4.94-3.63-10.08-7.4-6.24-4.57-2.25-1.66-6.3-4.63 44.02-16.93 2.65 5.05 1.28 2.44 3.07 5.85 4.96 9.44 2.31 4.4 0.76 1.45 5.79 11.03 3.08 5.86 4.11 7.83 1.52 2.91 3.08 5.87 6.52 12.42 0.48 0.93 2.59 4.94 7.41 14.1 3.08 5.85v0.02l0.55 1.03 7.02 13.39 3.07 5.86 1.51 2.88 9.18 17.49z" fill="#FFFFFF" /><path d="M452.93 748.13l-28.48 11.64-4.94-3.63-10.08-7.4-6.24-4.57-2.25-1.66L441.31 726l1.28 2.44 3.07 5.85 4.96 9.44 2.31 4.4zM478.27 796.43l-40.42 16.54-1.45-0.95-14.26-9.34-3.15-2.06 1.28-4.28 1.04-3.49 45.36-18.55 1.52 2.91 3.08 5.87 6.52 12.42 0.48 0.93zM503.5 844.5l-10.77 4.42-3.42-2.24-6.71-4.4-15.13-9.92 24.43-9.99 7.02 13.39 3.07 5.86 1.51 2.88z" fill="#79C4FF" /><path d="M605.08 743.73l-93.17 116.74 96.59-60.08-9.69-33.21 16.34-19.96-10.07-3.49z" fill="#BEC4D3" /><path d="M511.9 860.47l19.96-13.07 3.41-2.24 6.71-4.4 15.13-9.91 1.44-0.94 6.73-4.4 16.18-10.61 5.27-3.45 1.45-0.95 14.26-9.34 3.15-2.06-1.28-4.28-1.04-3.48-3.33-11.27-2.39-8.04-2.9-9.74 4.17-3.08 1.32-0.96 4.94-3.62 10.07-7.41 6.24-4.57 2.25-1.65 6.31-4.64-44.03-16.93-2.65 5.05-1.28 2.44-3.07 5.85-4.95 9.44-2.32 4.4-0.76 1.45-5.79 11.03-3.07 5.86-4.12 7.83-1.52 2.91-3.08 5.87-6.51 12.43-0.49 0.92-2.59 4.94-7.41 14.1-3.08 5.85v0.02l-0.55 1.04-7.01 13.39-3.08 5.85-1.51 2.89-9.18 17.48z" fill="#FFFFFF" /><path d="M571.65 746.61l28.49 11.64 4.94-3.62 10.07-7.41 6.24-4.57 2.25-1.65-40.37-16.52-1.28 2.44-3.07 5.85-4.95 9.44-2.32 4.4zM546.31 794.91l40.42 16.54 1.45-0.95 14.26-9.34 3.15-2.06-1.28-4.28-1.04-3.48-45.36-18.56-1.52 2.91-3.08 5.87-6.51 12.43-0.49 0.92zM521.08 842.99l10.78 4.41 3.41-2.24 6.71-4.4 15.13-9.91-24.43-9.99-7.01 13.39-3.08 5.85-1.51 2.89z" fill="#79C4FF" /></svg>