<?xml version="1.0" standalone="no"?><!DOCTYPE svg PUBLIC "-//W3C//DTD SVG 1.1//EN" "http://www.w3.org/Graphics/SVG/1.1/DTD/svg11.dtd"><svg class="icon" width="200px" height="200.00px" viewBox="0 0 1024 1024" version="1.1" xmlns="http://www.w3.org/2000/svg"><path d="M511.86 64.24c-247 0-447.24 200.25-447.24 447.28 0 154 77.78 289.75 196.2 370.22A444.6 444.6 0 0 0 483 957.88q14.31 0.92 28.84 0.92 13.73 0 27.27-0.82a446.8 446.8 0 0 0 282.26-123.59c1-0.95 2-1.91 3-2.88 1.65-1.61 3.27-3.22 4.88-4.86s3.14-3.17 4.68-4.78a445.73 445.73 0 0 0 125.18-310.35c0-247.04-200.24-447.28-447.25-447.28z" fill="#00B3C1" /><path d="M691.24 807.22c0 47.34-80 85.71-178.76 85.71s-178.76-38.37-178.76-85.71 80-62.07 178.76-62.07 178.76 14.74 178.76 62.07z" fill="#FFE1CC" /><path d="M449.29 591.46h124.13v181.78H449.29zM509.85 526.27c31 17 78.57-111.71-2.8-104.43s2.8 104.43 2.8 104.43z m0 0M331 526.18c-30.58 17.83-81.53-109.57 0-104.46s0 104.46 0 104.46z m356.92 0c30.61 17.82 81.57-109.56 0-104.46s0 104.46 0 104.46z m0 0" fill="#FFE1CC" /><path d="M707 459.76c0 107.44-87.09 223.77-194.52 223.77S318 567.24 318 459.76s87.09-194.53 194.52-194.53S707 352.32 707 459.76z m-15.76 347.46" fill="#FFE1CC" /><path d="M545.37 253c8.25-30.48 38.73-48.21 68.86-46s59 21.65 80.35 46.66a120.22 120.22 0 0 1 17.25 25.53c14.87 30.68 12.77 136.29 0 165.43z m0 0" fill="#332115" /><path d="M547 194.14c17.27 13.7 33.27 38.18 24.73 60.16-20.41 29.77-59 28.2-91 37-25 6.88-48.07 21.46-73.07 28.51-29.36 8.28-61.63 5.44-87.93-11.64s-45.73-49.28-47-84.05c12.19 6.65 24.92 13.46 38.4 13.27 18.37-0.25 34.46-13.23 50.4-23.74 16.6-10.93 34.24-19.59 51.82-28.23 13.55-6.65 27.23-13.35 41.7-16.52 31.8-7 65.37 4 92 25.18z m0 0" fill="#332115" /><path d="M717.93 407.92c-0.36-10.26-1.36-19.65-1.36-24.28-0.42-34.15-11.09-64-31.45-91.46-35.36-47.67-88.76-76.74-148.55-76.74h-47.42c-53.39 0-104.25 24.57-140 63.74A180.74 180.74 0 0 0 306 364.1a198.56 198.56 0 0 0-3.89 49.29c0.57 13-2 37.88 14.38 28.52 10.19-5.8 20.34-26.86 29-35.82a213.66 213.66 0 0 1 36.63-30.47 178.38 178.38 0 0 1 89.19-28.82c51.12-2.33 99.62 16.45 143.53 41.07 25 14 48.13 21.73 65.73 45.15 4.41 5.86 8.84 12.38 15.75 14.86 20.12 7.23 22.31-18.3 21.58-40z m0 0" fill="#332115" /><path d="M304.2 398.59c1.92-5.1 5.73-9.26 9.87-12.8a72.59 72.59 0 0 1 51.77-17.1c-18.54 19.23-36.52 42-37.7 68.65-0.78 17.48 5.73 35.9-1.13 52a189.93 189.93 0 0 1-23.89-73.22c-0.65-5.88-1-12 1.08-17.54z m410.25 0c-1.92-5.1-5.74-9.26-9.87-12.8a72.57 72.57 0 0 0-51.76-17.09c18.54 19.23 36.52 42 37.7 68.65 0.78 17.48-5.74 35.9 1.13 52a189.92 189.92 0 0 0 23.92-73.23c0.65-5.88 1-12-1.08-17.54z m0 0" fill="#332115" /><path d="M573.68 670.78v17.79c-35.49 19.37-80.07 16.22-124.64 0.58v-19.34c5 0.13 1.76 0.27 2 0.35a153.73 153.73 0 0 0 62 13.35 149.67 149.67 0 0 0 60.6-12.72z m0 0" fill="#F4C7A8" /><path d="M763.64 882.25q-2.87-6.65-6-13-2.66-5.43-5.53-10.63c-0.75-1.36-1.5-2.71-2.27-4a238.21 238.21 0 0 0-19-28.26q-3.78-4.87-7.81-9.47l-2.47-2.8a220.57 220.57 0 0 0-16.49-16.47 224.76 224.76 0 0 0-7.81-6.71 219.49 219.49 0 0 0-19-13.9q-3.86-2.55-7.81-4.91c-0.75-0.46-1.51-0.91-2.27-1.36q-2.57-1.5-5.15-2.91c-1.3-0.72-2.6-1.41-3.93-2.09h-0.1c-2.49-1.32-5-2.6-7.52-3.82s-5.17-2.44-7.81-3.57c-0.65-0.29-1.3-0.56-2-0.84a192.85 192.85 0 0 0-10.2-4.17l-2.91-1.07c-1.25-0.47-2.57-0.95-3.88-1.42l-0.25-0.09c-2.5-0.87-5-1.7-7.56-2.5q-3.37-1.07-6.76-2.06a12 12 0 0 1-1.29 4.87c-0.22 0.45-0.4 0.9-0.62 1.39a123 123 0 0 1-8.86 15.2c-0.46 0.7-0.94 1.39-1.44 2.07q-3.73 5.45-7.81 10.69c-1 1.34-2.07 2.65-3.14 4s-2.37 2.87-3.58 4.3-2.36 2.78-3.58 4.12q-3.26 3.69-6.73 7.18l-0.06 0.06c-0.61 0.64-1.25 1.27-1.87 1.9-1 1-2 2-3.06 3a82.33 82.33 0 0 1-3.6 3.37c-0.39 0.35-0.76 0.7-1.15 1-2.06 1.87-4.16 3.67-6.28 5.43-1.82 1.47-3.67 2.88-5.56 4.21a99.105 99.105 0 0 1-7.12 4.76c-1 0.59-1.92 1.15-2.9 1.7-1.61 0.91-3.25 1.79-4.91 2.6-0.6 0.3-1.21 0.6-1.82 0.89a53.37 53.37 0 0 1-17.15 4.83c-0.69 0.07-1.39 0.14-2.07 0.19a28.06 28.06 0 0 1-4.35 0l-1.39-0.12a52.69 52.69 0 0 1-18.82-5.51 0.67 0.67 0 0 0-0.14-0.06c-2.66-1.29-5.27-2.7-7.81-4.22a93.86 93.86 0 0 1-7.61-5.06c-1.41-1.06-2.84-2.12-4.25-3.23q-2.7-2.15-5.32-4.38c-0.6-0.5-1.19-1-1.77-1.54s-1.07-1-1.6-1.46a188.52 188.52 0 0 1-3.72-3.46l-2.49-2.42-1-0.95c-1.27-1.31-2.55-2.62-3.8-3.95s-2.5-2.65-3.73-4q-3.07-3.48-6.07-7.06s-0.1-0.17-0.19-0.17v-0.09c-1.19-1.5-2.39-3-3.55-4.42-0.17-0.22-0.39-0.5-0.65-0.81v-0.06c-0.16-0.22-0.35-0.46-0.56-0.72-2.5-3.18-4.91-6.46-7.19-9.79q-3.26-4.74-6.23-9.67a80.38 80.38 0 0 1-4.48-8.29c-0.21-0.49-0.4-0.94-0.61-1.37a19.26 19.26 0 0 1-1.15-3.61 3.43 3.43 0 0 1-0.14-1.29c-2.11 0.64-4.23 1.26-6.35 1.95l-0.44 0.14c-2.31 0.71-4.6 1.47-6.87 2.26h-0.1l-0.4 0.14c-1.59 0.54-3.15 1.11-4.75 1.72s-3.31 1.22-4.95 1.86q-4.68 1.82-9.27 3.86l-0.9 0.4c-0.92 0.4-1.86 0.8-2.79 1.24-1.39 0.62-2.76 1.27-4.12 1.94q-4.2 2-8.29 4.18-3.11 1.63-6.17 3.37c-0.87 0.49-1.74 1-2.6 1.5-0.64 0.37-1.27 0.75-1.91 1.15q-4 2.36-7.81 4.89l-1.64 1.09q-9 6-17.32 12.76c-2.66 2.15-5.26 4.38-7.81 6.68q-2.06 1.84-4.08 3.75-7.74 7.29-14.89 15.43l-0.41 0.47q-3.8 4.35-7.39 9a236.73 236.73 0 0 0-19 28c-1.77 3.06-3.51 6.17-5.17 9.37-0.9 1.69-1.77 3.41-2.64 5.14q-3.5 7-6.67 14.39c2.21 1.5 4.43 3 6.67 4.43l2.78 1.64q2.57 1.67 5.17 3.26 9.33 5.84 19 11.18 3.67 2.08 7.39 4l0.41 0.22q3.3 1.76 6.63 3.46c1.3 0.71 2.64 1.37 4 2q4.14 2.1 8.34 4.07 3.88 1.85 7.81 3.6 6.71 3 13.51 5.77c1.36 0.62 2.79 1.16 4.16 1.69l1.29 0.51q3.88 1.59 7.81 3c1.42 0.55 2.86 1.06 4.3 1.56l0.21 0.07c4.78 1.74 9.62 3.38 14.46 4.92 2.59 0.84 5.2 1.64 7.81 2.4l1.37 0.41q3.93 1.18 7.89 2.27c3.22 0.91 6.45 1.77 9.69 2.58q3.9 1 7.81 1.92 9.42 2.23 19 4 3.9 0.75 7.81 1.41 7.08 1.22 14.2 2.2l4.77 0.61q3.9 0.51 7.81 0.91c1.37 0.16 2.76 0.3 4.13 0.44q7.4 0.73 14.81 1.22 3.9 0.26 7.81 0.45c6.31 0.3 12.64 0.46 19 0.49h7.81q9.5-0.07 19-0.57c1.64-0.07 3.27-0.17 4.91-0.27l2.9-0.2q7-0.49 14-1.2c1.65-0.16 3.3-0.34 4.93-0.52q3.92-0.43 7.81-0.94l1.87-0.25q8.58-1.12 17.1-2.63 3.92-0.67 7.81-1.44 9.52-1.82 19-4.08 3.92-0.92 7.81-1.94 3.41-0.88 6.79-1.81 6.11-1.69 12.17-3.55l2-0.62q2.89-0.88 5.76-1.82 5.81-1.89 11.55-4c2.49-0.87 5-1.8 7.42-2.73l1.51-0.57q3.17-1.2 6.3-2.44 9.57-3.8 19-8c2.61-1.17 5.22-2.37 7.81-3.62q8.34-3.93 16.49-8.25l2.47-1.31c2.62-1.39 5.22-2.82 7.81-4.27q9.63-5.41 19-11.3c0.76-0.47 1.52-0.95 2.27-1.44q2.77-1.76 5.53-3.57c2-1.34 4-2.68 6-4z" fill="#FFFDF8" /><path d="M512.69 862.62l-0.83 96.18-4.51-0.07 5.34-96.11z" fill="#E5EAF9" /><path d="M504.15 884.41a8.54 8.54 0 1 0 2.5-6 8.54 8.54 0 0 0-2.5 6z" fill="#5B5E63" /><path d="M504.69 883.62a8.54 8.54 0 1 0 2.5-6 8.54 8.54 0 0 0-2.5 6z" fill="#F2F2F2" /><path d="M504.15 923.46a8.54 8.54 0 1 0 2.5-6 8.54 8.54 0 0 0-2.5 6z" fill="#5B5E63" /><path d="M504.69 922.68a8.54 8.54 0 1 0 2.5-6 8.54 8.54 0 0 0-2.5 6z" fill="#F2F2F2" /><path d="M302.12 817v90.48q-3.73-1.95-7.39-4-9.61-5.32-19-11.18-2.6-1.59-5.17-3.26v-25.73c1.66-3.2 3.4-6.31 5.17-9.37a236.73 236.73 0 0 1 19-28q3.6-4.64 7.39-8.94zM392.13 754.25v189.16q-4-1.09-7.89-2.27l-1.37-0.41c-2.61-0.76-5.22-1.56-7.81-2.4-4.85-1.54-9.68-3.18-14.46-4.92V769.23q3.05-1.74 6.17-3.37 4.1-2.19 8.29-4.18c1.36-0.66 2.74-1.31 4.12-1.94 0.92-0.44 1.86-0.84 2.79-1.24l0.9-0.4q4.58-2.04 9.26-3.85zM482.12 824v134.74q-7.42-0.49-14.81-1.22c-1.37-0.14-2.76-0.27-4.13-0.44q-3.92-0.41-7.81-0.91l-4.77-0.61v-158c1.25 1.32 2.52 2.63 3.8 3.95l1 0.95 2.49 2.42c1.15 1.1 2.46 2.32 3.72 3.46 0.52 0.5 1.06 1 1.6 1.46s1.17 1 1.77 1.54q2.62 2.23 5.32 4.38c1.41 1.11 2.84 2.17 4.25 3.23 2.45 1.79 4.95 3.48 7.57 5.05zM572.13 800v155.7l-1.87 0.25q-3.9 0.51-7.81 0.94c-1.64 0.19-3.28 0.36-4.93 0.52q-7 0.71-14 1.2l-2.9 0.2v-133.4c1-0.55 1.94-1.11 2.9-1.7 2.44-1.47 4.81-3.07 7.12-4.76a99.02 99.02 0 0 0 5.56-4.21c2.12-1.76 4.22-3.56 6.28-5.43 0.39-0.34 0.76-0.69 1.15-1a82.33 82.33 0 0 0 3.6-3.37c1-1 2-2 3.06-3 0.59-0.63 1.22-1.27 1.84-1.94zM662.12 767.83v166q-5.75 2.08-11.55 4-2.87 0.94-5.76 1.82l-2 0.62q-6.05 1.87-12.17 3.55V753.35c3.45 1.3 6.86 2.68 10.2 4.17 0.66 0.27 1.31 0.55 2 0.84q4 1.7 7.81 3.57c2.54 1.22 5 2.5 7.52 3.82h0.1c1.25 0.67 2.55 1.36 3.85 2.08zM752.12 858.65v31.23c-0.75 0.49-1.51 1-2.27 1.44q-9.35 5.9-19 11.3c-2.59 1.45-5.18 2.88-7.81 4.27l-2.47 1.31v-94.12l2.47 2.8q4 4.59 7.81 9.47a238.21 238.21 0 0 1 19 28.26c0.78 1.33 1.52 2.68 2.27 4.04z" fill="#79C4FF" /><path d="M422.78 742.35l89.91 120.27-100.73-58.38 13.92-34.78-23.7-19.87 20.6-7.24z" fill="#BEC4D3" /><path d="M512.7 862.62l-19.94-13.05-3.41-2.23-6.71-4.4-15.11-9.9-1.43-0.94-6.72-4.39-16.17-10.59-5.27-3.45-1.45-0.95-14.24-9.32-3.14-2.06 1.27-4.27 1.04-3.49 3.33-11.25 2.39-8.03 2.9-9.73-4.18-3.07-1.31-0.96-4.93-3.62-10.07-7.39-6.23-4.57-2.25-1.65-6.3-4.64 43.98-16.9 2.65 5.04 1.28 2.44 3.07 5.84 4.94 9.43 2.31 4.39 0.77 1.45 5.78 11.02 3.07 5.85 4.11 7.82 1.53 2.91 3.07 5.86 6.51 12.41 0.48 0.92 2.59 4.93 7.41 14.09 3.07 5.84v0.02l0.55 1.03 7 13.38 3.08 5.84 1.51 2.88 9.17 17.46z" fill="#FFFFFF" /><path d="M453 748.91l-28.45 11.63-4.93-3.62-10.07-7.39-6.23-4.57-2.25-1.65 40.33-16.5 1.28 2.44 3.07 5.84 4.94 9.43 2.31 4.39zM478.32 797.15l-40.38 16.52-1.45-0.95-14.24-9.32-3.14-2.06 1.27-4.27 1.04-3.49 45.31-18.53 1.53 2.91 3.07 5.86 6.51 12.41 0.48 0.92zM503.53 845.16l-10.77 4.41-3.41-2.23-6.71-4.4-15.11-9.9 24.41-9.98 7 13.38 3.08 5.84 1.51 2.88z" fill="#79C4FF" /><path d="M604.99 744.52l-93.07 116.59 96.5-60.01-9.68-33.16 16.32-19.93-10.07-3.49z" fill="#BEC4D3" /><path d="M511.92 861.11l19.93-13.05 3.41-2.24 6.71-4.4 15.11-9.9 1.44-0.93 6.72-4.4 16.16-10.59 5.27-3.45 1.45-0.94 14.24-9.33 3.15-2.06-1.28-4.27-1.03-3.49-3.34-11.25-2.38-8.03-2.9-9.72 4.17-3.08 1.31-0.96 4.93-3.62 10.07-7.39 6.23-4.57 2.25-1.65 6.3-4.63-43.98-16.91-2.65 5.04-1.27 2.44-3.07 5.84-4.95 9.43-2.31 4.4-0.76 1.45-5.79 11.01-3.07 5.86-4.11 7.81-1.52 2.91-3.08 5.86-6.5 12.41-0.49 0.92-2.59 4.94-7.4 14.08-3.07 5.85v0.01l-0.56 1.04-7 13.37-3.07 5.84-1.52 2.89-9.16 17.46z" fill="#FFFFFF" /><path d="M571.61 747.4l28.45 11.62 4.93-3.62 10.07-7.39 6.23-4.57 2.25-1.65-40.33-16.5-1.27 2.44-3.07 5.84-4.95 9.43-2.31 4.4zM546.29 795.63l40.38 16.52 1.45-0.94 14.24-9.33 3.15-2.06-1.28-4.27-1.03-3.49-45.32-18.53-1.52 2.91-3.08 5.86-6.5 12.41-0.49 0.92zM521.08 843.65l10.77 4.41 3.41-2.24 6.71-4.4 15.11-9.9-24.41-9.97-7 13.37-3.07 5.84-1.52 2.89z" fill="#79C4FF" /></svg>