<?xml version="1.0" standalone="no"?><!DOCTYPE svg PUBLIC "-//W3C//DTD SVG 1.1//EN" "http://www.w3.org/Graphics/SVG/1.1/DTD/svg11.dtd"><svg class="icon" width="200px" height="200.00px" viewBox="0 0 1024 1024" version="1.1" xmlns="http://www.w3.org/2000/svg"><path d="M512 0C229.2 0 0 229.1 0 511.7c0 176.2 89 331.5 224.6 423.6a508.78 508.78 0 0 0 254.3 87.1c10.9 0.7 21.9 1.1 33 1.1 10.5 0 20.9-0.3 31.2-0.9 121.1-7.3 235.6-57.4 323.1-141.4 1.1-1.1 2.3-2.2 3.4-3.3 1.9-1.8 3.7-3.7 5.6-5.6 1.8-1.9 3.6-3.6 5.4-5.5 92.1-95.2 143.5-222.6 143.3-355C1024.1 229.1 794.9 0 512 0z" fill="#00B3C1" /><path d="M717.4 850c0 54.1-91.6 98-204.6 98s-204.6-43.9-204.6-98 91.6-71 204.6-71 204.6 16.9 204.6 71z" fill="#FFE1CC" /><path d="M440.4 603.2h142.1v208H440.4v-208z m69.3-74.6c35.5 19.4 89.9-127.8-3.2-119.4-93.1 8.4 3.2 119.4 3.2 119.4z m-204.8-0.1c-35 20.4-93.3-125.3 0-119.5s0 119.5 0 119.5z m408.7 0c35 20.4 93.4-125.3 0-119.5s0 119.5 0 119.5z" fill="#FFE1CC" /><path d="M735.5 452.5c0 122.9-99.7 256-222.7 256s-222.6-133.1-222.6-256 99.7-222.6 222.7-222.6 222.6 99.7 222.6 222.6z" fill="#FFE1CC" /><path d="M550.5 216c9.4-34.9 44.3-55.1 78.8-52.6s67.5 24.8 92 53.4c7.8 8.8 14.4 18.7 19.7 29.2 17 35.1 14.6 156 0 189.3L550.5 216z" fill="#332115" /><path d="M552.3 148.7c19.8 15.7 38.1 43.7 28.3 68.8-23.4 34-67.5 32.3-104.2 42.3-28.6 7.9-55 24.5-83.6 32.6-33.6 9.5-70.6 6.2-100.7-13.3-30.1-19.5-52.4-56.4-53.8-96.1 14 7.6 28.5 15.4 44 15.2 21-0.3 39.4-15.1 57.7-27.2 19-12.5 39.2-22.4 59.3-32.3 15.5-7.6 31.2-15.3 47.7-18.9 36.4-8.1 74.9 4.5 105.3 28.9z" fill="#332115" /><path d="M748 393.2c-0.4-11.7-1.6-22.5-1.6-27.8-0.5-39.1-12.7-73.2-36-104.6-40.5-54.5-101.6-87.8-170.1-87.8H486c-61.1 0-119.3 28.1-160.3 72.9-24.9 27.4-41.9 60.9-49.4 97.1-3.8 18.5-5.3 37.5-4.5 56.4 0.7 14.9-2.3 43.3 16.5 32.6 11.7-6.6 23.3-30.7 33.2-41 12.6-13.1 26.7-24.8 41.9-34.8 30.5-19.9 65.7-31.3 102.1-33 58.5-2.7 114 18.8 164.3 47 28.6 16 55.1 24.9 75.2 51.6 5 6.7 10.1 14.2 18 17 23.3 8.4 25.8-20.8 25-45.6z" fill="#332115" /><path d="M274.3 382.5c2.2-5.8 6.6-10.6 11.3-14.6 16.5-14 37.7-21 59.3-19.6-21.2 22-41.8 48-43.2 78.5-0.9 20 6.6 41.1-1.3 59.5-14.7-25.8-24.1-54.3-27.3-83.7-0.8-6.7-1.2-13.7 1.2-20.1z m469.7 0c-2.2-5.8-6.6-10.6-11.3-14.6-16.5-14-37.7-21-59.3-19.5 21.2 22 41.8 48 43.2 78.5 0.9 20-6.6 41.1 1.3 59.5 14.8-25.8 24.1-54.3 27.4-83.7 0.7-6.8 1.1-13.8-1.3-20.2z" fill="#332115" /><path d="M582.9 694v20.3c-40.6 22.2-91.7 18.5-142.7 0.7v-22.1c5.7 0.1 2 0.3 2.3 0.4 22.3 10 46.5 15.2 71 15.3 23.8 0 47.5-5 69.4-14.6z" fill="#F4C7A8" /><path d="M800.3 935.9c-2.2-5.1-4.5-10-6.9-14.9-2-4.1-4.1-8.2-6.3-12.2-0.9-1.6-1.7-3.1-2.6-4.6-6.5-11.3-13.7-22.1-21.8-32.3-2.9-3.7-5.9-7.3-8.9-10.8l-2.8-3.2c-6-6.6-12.3-12.9-18.9-18.8-2.9-2.6-5.9-5.2-8.9-7.7-7-5.7-14.2-11-21.8-15.9-2.9-1.9-5.9-3.8-8.9-5.6-0.9-0.5-1.7-1-2.6-1.6-2-1.1-3.9-2.3-5.9-3.3l-4.5-2.4h-0.1c-2.9-1.5-5.7-3-8.6-4.4-2.9-1.4-5.9-2.8-8.9-4.1-0.7-0.3-1.5-0.6-2.3-1-3.8-1.7-7.7-3.3-11.7-4.8l-3.3-1.2c-1.4-0.5-2.9-1.1-4.4-1.6l-0.3-0.1c-2.9-1-5.7-1.9-8.7-2.9-2.6-0.8-5.2-1.6-7.7-2.4-0.1 1.9-0.6 3.8-1.5 5.6-0.3 0.5-0.5 1-0.7 1.6-3 6-6.4 11.8-10.1 17.4-0.5 0.8-1.1 1.6-1.6 2.4-2.8 4.2-5.8 8.2-8.9 12.2-1.1 1.5-2.4 3-3.6 4.6-1.2 1.6-2.7 3.3-4.1 4.9-1.4 1.6-2.7 3.2-4.1 4.7-2.5 2.8-5.1 5.6-7.7 8.2l-0.1 0.1c-0.7 0.7-1.4 1.5-2.1 2.2-1.1 1.1-2.3 2.3-3.5 3.4-1.3 1.3-2.7 2.6-4.1 3.9-0.4 0.4-0.9 0.8-1.3 1.1-2.4 2.1-4.8 4.2-7.2 6.2-2.1 1.7-4.2 3.3-6.4 4.8-2.6 1.9-5.4 3.7-8.2 5.4-1.1 0.7-2.2 1.3-3.3 1.9-1.8 1-3.7 2-5.6 3-0.7 0.3-1.4 0.7-2.1 1-6.2 2.9-12.8 4.8-19.6 5.5-0.8 0.1-1.6 0.2-2.4 0.2-1.7 0.1-3.3 0.1-5 0l-1.6-0.1c-7.5-0.7-14.8-2.9-21.5-6.3-0.1 0-0.1-0.1-0.2-0.1-3-1.5-6-3.1-8.9-4.8-3-1.8-5.9-3.7-8.7-5.8-1.6-1.2-3.3-2.4-4.9-3.7-2.1-1.6-4.1-3.3-6.1-5-0.7-0.6-1.4-1.1-2-1.8-0.6-0.7-1.2-1.1-1.8-1.7-1.4-1.3-2.9-2.6-4.3-4l-2.9-2.8-1.1-1.1c-1.5-1.5-2.9-3-4.4-4.5-1.4-1.5-2.9-3-4.3-4.6-2.3-2.7-4.7-5.3-6.9-8.1-3.4-4.1-0.1-0.2-0.2-0.2v-0.1c-1.4-1.7-2.7-3.4-4.1-5.1-0.2-0.3-0.4-0.6-0.7-0.9v-0.1c-0.2-0.3-0.4-0.5-0.6-0.8-2.9-3.6-5.6-7.4-8.2-11.2-2.5-3.6-4.9-7.3-7.1-11.1-1.9-3.1-3.6-6.2-5.1-9.5-0.2-0.6-0.5-1.1-0.7-1.6-0.6-1.3-1-2.7-1.3-4.1-0.1-0.5-0.2-1-0.2-1.5-2.4 0.7-4.8 1.4-7.3 2.2l-0.5 0.2c-2.6 0.8-5.3 1.7-7.9 2.6h-0.1l-0.5 0.2c-1.8 0.6-3.6 1.3-5.4 2-1.8 0.7-3.8 1.4-5.7 2.1-3.6 1.4-7.1 2.9-10.6 4.4l-1 0.5c-1.1 0.5-2.1 0.9-3.2 1.4-1.6 0.7-3.2 1.5-4.7 2.2-3.2 1.5-6.4 3.1-9.5 4.8-2.4 1.2-4.7 2.5-7.1 3.9-1 0.6-2 1.1-3 1.7-0.7 0.4-1.5 0.9-2.2 1.3-3.1 1.8-6 3.7-8.9 5.6l-1.9 1.2c-6.9 4.6-13.5 9.4-19.8 14.6-3 2.5-6 5-8.9 7.6-1.6 1.4-3.1 2.8-4.7 4.3-5.9 5.6-11.6 11.4-17 17.6l-0.5 0.5c-2.9 3.3-5.7 6.7-8.5 10.3-8 10.1-15.3 20.8-21.8 32-2 3.5-4 7.1-5.9 10.7-1 1.9-2 3.9-3 5.9-2.7 5.3-5.2 10.8-7.6 16.5 2.5 1.7 5.1 3.4 7.6 5.1l3.2 1.9c2 1.3 3.9 2.5 5.9 3.7 7.1 4.5 14.4 8.7 21.8 12.8 2.8 1.6 5.6 3.1 8.5 4.6l0.5 0.3c2.5 1.3 5 2.7 7.6 4 1.5 0.8 3 1.6 4.6 2.3 3.2 1.6 6.3 3.2 9.5 4.7 3 1.4 5.9 2.8 8.9 4.1 5.1 2.3 10.3 4.5 15.5 6.6 1.6 0.7 3.2 1.3 4.8 1.9l1.5 0.6c3 1.2 5.9 2.4 8.9 3.4 1.6 0.6 3.3 1.2 4.9 1.8l0.2 0.1c5.5 2 11 3.9 16.6 5.6 3 1 6 1.9 8.9 2.7l1.6 0.5c3 0.9 6 1.8 9 2.6l11.1 3c3 0.8 6 1.5 8.9 2.2 7.2 1.7 14.4 3.2 21.8 4.6 3 0.6 6 1.1 8.9 1.6 5.4 0.9 10.8 1.8 16.3 2.5l5.5 0.7c3 0.4 6 0.7 8.9 1 1.6 0.2 3.2 0.3 4.7 0.5 5.6 0.6 11.3 1 17 1.4 3 0.2 6 0.4 8.9 0.5 7.2 0.3 14.5 0.5 21.8 0.6h8.9c7.3-0.1 14.5-0.3 21.8-0.7 1.9-0.1 3.7-0.2 5.6-0.3l3.3-0.2c5.3-0.4 10.7-0.8 16-1.4 1.9-0.2 3.8-0.4 5.6-0.6 3-0.3 6-0.7 8.9-1.1l2.1-0.3c6.5-0.9 13.1-1.9 19.6-3 3-0.5 6-1.1 8.9-1.6 7.3-1.4 14.5-2.9 21.8-4.7 3-0.7 6-1.4 8.9-2.2l7.8-2.1c4.7-1.3 9.3-2.6 13.9-4.1l2.3-0.7 6.6-2.1c4.4-1.4 8.8-3 13.2-4.6 2.9-1 5.7-2.1 8.5-3.1l1.7-0.7c2.4-0.9 4.8-1.8 7.2-2.8 7.3-2.9 14.6-5.9 21.8-9.1 3-1.3 6-2.7 8.9-4.1 6.4-3 12.7-6.1 18.9-9.4l2.8-1.5c3-1.6 6-3.2 8.9-4.9 7.3-4.1 14.6-8.4 21.8-12.9 0.9-0.5 1.7-1.1 2.6-1.6 2.1-1.3 4.2-2.7 6.3-4.1 2.3-1.5 4.6-3.1 6.9-4.6l-0.3 0.4z" fill="#FFFDF8" /><path d="M512.9 913.5l-1 110-5.2-0.1 6.2-109.9z" fill="#E5EAF9" /><path d="M503.2 938.4c0 5.4 4.3 9.8 9.7 9.8 5.4 0 9.8-4.3 9.8-9.7 0-5.4-4.3-9.8-9.7-9.8-2.6 0-5.1 1-7 2.9-1.8 1.7-2.8 4.2-2.8 6.8z" fill="#5B5E63" /><path d="M503.8 937.5c0 5.4 4.3 9.8 9.7 9.8 5.4 0 9.8-4.3 9.8-9.7 0-5.4-4.3-9.8-9.7-9.8-2.6 0-5.1 1-7 2.9-1.8 1.7-2.8 4.2-2.8 6.8z" fill="#F2F2F2" /><path d="M503.2 983c0 5.4 4.3 9.8 9.7 9.8 5.4 0 9.8-4.3 9.8-9.7 0-5.4-4.3-9.8-9.7-9.8-2.6 0-5.1 1-7 2.9-1.8 1.8-2.8 4.3-2.8 6.8z" fill="#5B5E63" /><path d="M503.8 982.2c0 5.4 4.3 9.8 9.7 9.8 5.4 0 9.8-4.3 9.8-9.7 0-5.4-4.3-9.8-9.7-9.8-2.6 0-5.1 1-7 2.9-1.8 1.7-2.8 4.2-2.8 6.8z" fill="#F2F2F2" /><path d="M271.9 861.2v103.5c-2.8-1.5-5.7-3-8.5-4.6-7.3-4.1-14.6-8.3-21.8-12.8-2-1.2-4-2.5-5.9-3.7v-29.4c1.9-3.7 3.9-7.2 5.9-10.7 6.5-11.2 13.7-21.9 21.8-32 2.8-3.6 5.6-7 8.5-10.3z m103-71.8v216.4c-3.1-0.8-6.1-1.7-9-2.6l-1.6-0.5c-3-0.9-6-1.8-8.9-2.7-5.6-1.8-11.1-3.6-16.6-5.6V806.6c2.3-1.3 4.7-2.6 7.1-3.9 3.1-1.7 6.3-3.3 9.5-4.8 1.6-0.8 3.1-1.5 4.7-2.2 1.1-0.5 2.1-1 3.2-1.4l1-0.5c3.5-1.5 7.1-3 10.6-4.4z m103 79.8v154.2c-5.7-0.4-11.3-0.8-17-1.4-1.6-0.2-3.2-0.3-4.7-0.5-3-0.3-6-0.7-8.9-1l-5.5-0.7V839c1.4 1.5 2.9 3 4.4 4.5l1.1 1.1 2.9 2.8c1.3 1.3 2.8 2.7 4.3 4 0.6 0.6 1.2 1.1 1.8 1.7 0.6 0.5 1.3 1.1 2 1.8 2 1.7 4 3.4 6.1 5 1.6 1.3 3.3 2.5 4.9 3.7 2.8 1.9 5.6 3.8 8.6 5.6z m103.2-27.4V1020l-2.1 0.3c-3 0.4-6 0.7-8.9 1.1-1.9 0.2-3.8 0.4-5.6 0.6-5.3 0.5-10.7 1-16 1.4l-3.3 0.2V870.8c1.1-0.6 2.2-1.3 3.3-1.9 2.8-1.7 5.5-3.5 8.2-5.4 2.2-1.5 4.3-3.1 6.4-4.8 2.4-2 4.8-4.1 7.2-6.2 0.4-0.4 0.9-0.8 1.3-1.1 1.4-1.2 2.8-2.5 4.1-3.9 1.1-1.1 2.3-2.3 3.5-3.4 0.5-0.9 1.2-1.6 1.9-2.3z m103-36.8v189.9c-4.4 1.6-8.8 3.1-13.2 4.6l-6.6 2.1-2.3 0.7c-4.6 1.4-9.3 2.8-13.9 4.1v-218c3.9 1.5 7.9 3.1 11.7 4.8 0.8 0.3 1.5 0.6 2.3 1 3.1 1.3 6 2.7 8.9 4.1 2.9 1.4 5.7 2.9 8.6 4.4h0.1c1.4 0.6 2.9 1.4 4.4 2.3z m103 103.9v35.7c-0.9 0.6-1.7 1.1-2.6 1.6-7.1 4.5-14.4 8.8-21.8 12.9-3 1.7-5.9 3.3-8.9 4.9l-2.8 1.5V857.9l2.8 3.2c3.1 3.5 6 7.1 8.9 10.8 8 10.2 15.3 21 21.8 32.3 0.9 1.6 1.8 3.2 2.6 4.7z" fill="#79C4FF" /><path d="M410 775.8l102.9 137.6-115.3-66.8 15.9-39.8-27.1-22.8 23.6-8.2z" fill="#BEC4D3" /><path d="M513 913.5l-22.8-14.9-3.9-2.6-7.7-5-17.3-11.3-1.6-1.1-7.7-5-18.6-12.2-6-3.9-1.7-1.1-16.3-10.7-3.6-2.4 1.5-4.9 1.2-4 3.8-12.9 2.7-9.2 3.3-11.1-4.8-3.5-1.5-1.1-5.6-4.1-11.5-8.5-7.1-5.2-2.6-1.9-7.2-5.3 50.3-19.3 3 5.8 1.5 2.8 3.5 6.7 5.7 10.8 2.6 5 0.9 1.7 6.6 12.6 3.5 6.7 4.7 8.9 1.8 3.3 3.5 6.7 7.5 14.2 0.5 1.1 3 5.6 8.5 16.1 3.5 6.7 0.6 1.2 8 15.3 3.5 6.7 1.7 3.3 10.6 20z" fill="#FFFFFF" /><path d="M444.6 783.3L412 796.6l-5.6-4.1-11.5-8.5-7.1-5.2-2.6-1.9 46.2-18.9 1.5 2.8 3.5 6.7 5.6 10.8 2.6 5z m29 55.2l-46.2 18.9-1.7-1.1-16.3-10.7-3.6-2.4 1.5-4.9 1.2-4 51.9-21.2 1.8 3.3 3.5 6.7 7.5 14.2 0.4 1.2z m28.9 54.9l-12.3 5-3.9-2.6-7.7-5-17.3-11.3 27.9-11.4 8 15.3 3.5 6.7 1.8 3.3z" fill="#79C4FF" /><path d="M618.7 778.3L512.1 911.7 622.7 843l-11.1-37.9 18.7-22.8-11.6-4z" fill="#BEC4D3" /><path d="M512.1 911.7l22.8-14.9 3.9-2.6 7.7-5 17.3-11.3 1.6-1.1 7.7-5 18.5-12.1 6-3.9 1.7-1.1 16.3-10.7 3.6-2.4-1.5-4.9-1.2-4-3.8-12.9-2.7-9.2-3.3-11.1 4.8-3.5 1.5-1.1 5.6-4.1 11.5-8.5 7.1-5.2 2.6-1.9 7.2-5.3-50.3-19.3-3 5.8-1.5 2.8-3.5 6.7-5.7 10.8-2.6 5-0.9 1.7-6.6 12.6-3.5 6.7-4.7 8.9-1.7 3.3-3.5 6.7-7.4 14.2-0.6 1.1-3 5.6-8.5 16.1-3.5 6.7-0.6 1.2-8 15.3-3.5 6.7-1.7 3.3-10.6 19.9z" fill="#FFFFFF" /><path d="M580.5 781.6l32.6 13.3 5.6-4.1 11.5-8.5 7.1-5.2 2.6-1.9-46.1-18.9-1.5 2.8-3.5 6.7-5.7 10.8-2.6 5z m-29 55.2l46.2 18.9 1.7-1.1 16.3-10.7 3.6-2.4-1.5-4.9-1.2-4-51.9-21.2-1.7 3.3-3.5 6.7-7.4 14.2-0.6 1.2z m-28.9 54.9l12.3 5 3.9-2.6 7.7-5 17.3-11.3-27.9-11.4-8 15.3-3.5 6.7-1.8 3.3z" fill="#79C4FF" /></svg>