<?xml version="1.0" standalone="no"?><!DOCTYPE svg PUBLIC "-//W3C//DTD SVG 1.1//EN" "http://www.w3.org/Graphics/SVG/1.1/DTD/svg11.dtd"><svg class="icon" width="200px" height="200.00px" viewBox="0 0 1024 1024" version="1.1" xmlns="http://www.w3.org/2000/svg"><path d="M291.76 806.49h293.97v-397.5h-68.85V737.7H291.76v68.79z" fill="#DE5934" /><path d="M728.27 64.45H222.76V316.1h68.85V133.25h379.76v187.76h187.37v569.74H291.61V679.2h-68.85v280.35H927.6V256.7L728.27 64.45z" fill="#819292" /><path d="M660 418.61h129.57v67.07H660z m0 160h129.57v67.07H660z m0 160h129.57v67.07H660z" fill="#819292" /><path d="M151.95 615.56c-0.07 0.87-0.19 2.31 3.39 4.3a12.23 12.23 0 0 0 6.09 1.53c15.87 0 40.84-23.82 64.14-60-45 19.7-72.74 43.5-73.62 54.21z" fill="#DE5934" /><path d="M459.83 679.2V316.1H96.4v363.1h363.43z m-298.4-40.61A29.43 29.43 0 0 1 147 634.9c-11.56-6.42-12.59-15.75-12.18-20.75 2.17-26.28 54-58.32 105.09-77.06 13.8-25.5 24.75-52.34 31.16-76.33-12.73-18.59-22.78-35.43-29.14-48.88-8.81-18.64-10.9-31.17-6.57-39.43 1.75-3.33 6.18-8.92 16.29-8.92a38.47 38.47 0 0 1 9.47 1.33c11.81 3 26.93 11.73 31.88 36.34 3 15 1.89 33.84-3.34 56.18 14.31 20.36 31.19 41.94 48 61.42 38.92 1.53 65.37 17.37 76.62 46l0.22 0.56 0.14 0.58c2.76 11.46 2.23 18.81-1.72 23.82a13.46 13.46 0 0 1-10.83 5.07c-5.39 0-14-2.17-33.28-19.06-11.27-9.89-24.72-23.62-39.06-39.84-22.89 0.23-49.75 5.48-78 15.24-13.5 23.94-52.9 87.49-90.37 87.49z" fill="#DE5934" /><path d="M399.1 576.57a43.37 43.37 0 0 0-1-6.09c-7-17.28-21.48-28.16-43.13-32.48 24.05 25.7 38 35.67 44.16 38.58z m-83.78-57.21l-0.85-1h0.32q-15.89-19.1-30.61-39.13l-0.08 0.33-0.47-0.67a383.38 383.38 0 0 1-20.09 49.73l0.83-0.29-0.49 0.9a272.69 272.69 0 0 1 51.44-9.89z m-58.46-137.84a22.16 22.16 0 0 0-5.24-0.8 6.89 6.89 0 0 0-1.15 0.08c-0.31 1.49-0.69 7.57 7.14 24A304.67 304.67 0 0 0 276 437.11c3.44-23.49 2.21-50.17-19.14-55.59z" fill="#DE5934" /><path d="M329.77 535.86c14.34 16.22 27.79 29.95 39.06 39.84 19.24 16.89 27.89 19.06 33.28 19.06a13.46 13.46 0 0 0 10.83-5.07c3.95-5 4.48-12.35 1.72-23.82l-0.14-0.58-0.22-0.56c-11.25-28.58-37.7-44.42-76.62-46-16.86-19.48-33.73-41.05-48-61.42 5.18-22.31 6.32-41.16 3.32-56.12-4.95-24.61-20.07-33.34-31.88-36.34a38.51 38.51 0 0 0-9.47-1.33c-10.11 0-14.54 5.59-16.29 8.92-4.33 8.26-2.24 20.79 6.57 39.43 6.36 13.45 16.4 30.29 29.14 48.88-6.41 24-17.37 50.84-31.16 76.33-51.1 18.73-102.92 50.78-105.09 77.06-0.41 5 0.62 14.33 12.18 20.75a29.42 29.42 0 0 0 14.45 3.69c37.47 0 76.87-63.54 90.38-87.49 28.21-9.76 55.07-15 78-15.24z m68.3 34.61a43.37 43.37 0 0 1 1 6.09C393 573.66 379 563.7 354.94 538c21.65 4.32 36.11 15.19 43.12 32.48z m-236.64 50.92a12.22 12.22 0 0 1-6.09-1.53c-3.58-2-3.46-3.43-3.39-4.3 0.88-10.7 28.65-34.5 73.62-54.21-23.3 36.22-48.27 60.04-64.14 60.04z m96.19-216.55c-7.83-16.47-7.45-22.54-7.14-24a6.79 6.79 0 0 1 1.15-0.08 22.17 22.17 0 0 1 5.24 0.8c21.35 5.42 22.58 32.1 19.15 55.59a304.67 304.67 0 0 1-18.39-32.27z m5.92 123.8a383.52 383.52 0 0 0 20.09-49.73l0.47 0.67 0.08-0.33q14.71 20 30.61 39.13h-0.32l0.85 1a272.51 272.51 0 0 0-51.44 9.89l0.49-0.89-0.83 0.29z" fill="#FFFFFF" /></svg>