<?xml version="1.0" standalone="no"?><!DOCTYPE svg PUBLIC "-//W3C//DTD SVG 1.1//EN" "http://www.w3.org/Graphics/SVG/1.1/DTD/svg11.dtd"><svg class="icon" width="200px" height="200.00px" viewBox="0 0 1024 1024" version="1.1" xmlns="http://www.w3.org/2000/svg"><path fill="#333333" d="M773.06 397.84H549.39c-20.59 0-37.28-17-37.28-38s16.69-38 37.28-38h223.67c20.59 0 37.28 17 37.28 38s-16.69 38-37.28 38m0 152.09H623.94c-20.59 0-37.28-17-37.28-38s16.69-38 37.28-38h149.12c20.59 0 37.28 17 37.28 38s-16.69 38-37.28 38m0 152.09H623.94c-20.59 0-37.28-17-37.28-38s16.69-38 37.28-38h149.12c20.59 0 37.28 17 37.28 38s-16.69 38-37.28 38m-594.47-20.84l-2-5.93v-66.42c0-24.64 15.54-48.25 37.84-57.41a514.82 514.82 0 0 1 55.1-20.19 107 107 0 0 1-14.46-53.16v-49.82A106.11 106.11 0 0 1 325.72 328a101.13 101.13 0 0 1 33.62-6.2c57.56 0.17 104.16 47.75 104.27 106.46v49.81a106.61 106.61 0 0 1-13.49 51.33 555.56 555.56 0 0 1 62.51 22.43c15 6.35 26.84 20.08 32.62 36.12a60.63 60.63 0 0 1 4.14 20.87l-0.15 60.08c-2.09 28.15-25.07 49.91-52.75 49.92H229.55a54.09 54.09 0 0 1-50.92-37.64m706.18-549.51H139.34c-41.07 0-74.39 33.89-74.56 75.78v608.9c0 41.75 33.55 75.78 74.67 75.78h745.36c41.1 0 74.49-33.86 74.63-75.78v-608.9c-0.14-41.92-33.53-75.82-74.63-75.78"  /></svg>