<?xml version="1.0" standalone="no"?><!DOCTYPE svg PUBLIC "-//W3C//DTD SVG 1.1//EN" "http://www.w3.org/Graphics/SVG/1.1/DTD/svg11.dtd"><svg class="icon" width="200px" height="200.00px" viewBox="0 0 1024 1024" version="1.1" xmlns="http://www.w3.org/2000/svg"><path fill="#333333" d="M875.71 133.52H148.29c-46.38 0-83.95 39.09-83.95 87.33v582.27c0 48.23 37.57 87.36 83.95 87.36h727.42c46.35 0 83.95-39.13 83.95-87.36V220.85c-0.04-48.24-37.66-87.33-83.95-87.33z m14 580.49L714.07 470.35s-10.19-19.71-46-19.71c-40.67 0-52.89 19.1-52.89 19.1L461.33 716.8a33 33 0 0 1-28.89 16.56 38.69 38.69 0 0 1-31.75-16.56l-80.88-96.21S299.08 592 272.15 592s-49.1 31.6-49.1 31.6l-88.77 115.13V236.47c0-16.05 12.53-29.13 28-29.13h699.45c15.46 0 28 13.07 28 29.13V714zM469.94 395.56c0 57-44.35 103.13-99.07 103.13s-99.1-46.19-99.1-103.13 44.39-103.08 99.1-103.08 99.07 46.18 99.07 103.08z" /></svg>