<?xml version="1.0" standalone="no"?><!DOCTYPE svg PUBLIC "-//W3C//DTD SVG 1.1//EN" "http://www.w3.org/Graphics/SVG/1.1/DTD/svg11.dtd"><svg class="icon" width="200px" height="200.00px" viewBox="0 0 1024 1024" version="1.1" xmlns="http://www.w3.org/2000/svg"><path fill="#333333" d="M928 79.1H96c-53 0-96 44.7-96 99.9v666c0 55.2 43 99.9 96 99.9h832c53 0 96-44.8 96-99.9V179c0-55.2-43.1-99.9-96-99.9zM944 743L743.1 464.4s-11.7-22.5-52.6-22.5c-46.5 0-60.5 21.8-60.5 21.8L454 746.2c-6.8 11.8-19.4 19.1-33 18.9-14.5 0-28-7.1-36.3-18.9l-92.5-110s-23.7-32.7-54.5-32.7-56.2 36.1-56.2 36.1L80 771.3V196.9c0-18.4 14.3-33.3 32-33.3h800c17.7 0 32 14.9 32 33.3V743zM463.9 378.8c0 65.2-50.7 118-113.3 118s-113.3-52.8-113.3-118S288 260.9 350.6 260.9s113.3 52.8 113.3 117.9z" /></svg>