<?xml version="1.0" standalone="no"?><!DOCTYPE svg PUBLIC "-//W3C//DTD SVG 1.1//EN" "http://www.w3.org/Graphics/SVG/1.1/DTD/svg11.dtd"><svg class="icon" width="200px" height="200.00px" viewBox="0 0 1024 1024" version="1.1" xmlns="http://www.w3.org/2000/svg"><path d="M729.03 64.69H222.07v251.82h69.59V130.95H672.7v188.87h188.87v569.91H291.66V677.67h-69.59v281.65h705.77V263.49L729.03 64.69z" fill="#819292" /><path d="M659.45 419.22h129.22v66.27H659.45z m0 162.36h129.22v66.27H659.45z m0 155.73h129.22v66.27H659.45z" fill="#819292" /><path d="M291.66 803.58h294.9V406H517v328H291.66z" fill="#16CFD8" /><path d="M460.64 681V316.51H96.16V681z m-241.88-56.34h-59.64V366.21h59.64v162.36l59.64-59.64 59.6 59.64v-159h59.64v255.09H338L278.4 565l-59.64 59.64z" fill="#51B9ED" /><path d="M96.16 313.19h364.48v367.79H96.16z" fill="#16CFD8" /><path d="M255.21 382.78h49.7v49.7h-49.7z m49.7 46.39h49.7v49.7h-49.7z m-49.7 53h49.7v49.7h-49.7z m99.4-99.4h49.7v49.7h-49.7z m0 99.4h49.7v49.7h-49.7zM155.8 382.78h49.7v49.7h-49.7zM255.21 575h49.7v49.7h-49.7z m99.4 0h49.7v49.7h-49.7z m-198.81 0h49.7v49.7h-49.7z m49.7-145.79h49.7v49.7h-49.7zM304.91 525.25h49.7V575h-49.7z m-99.4 0h49.7V575h-49.7zM155.8 482.18h49.71v49.7H155.8v-49.7z" fill="#FFFFFF" /></svg>