<?xml version="1.0" standalone="no"?><!DOCTYPE svg PUBLIC "-//W3C//DTD SVG 1.1//EN" "http://www.w3.org/Graphics/SVG/1.1/DTD/svg11.dtd"><svg class="icon" width="200px" height="200.00px" viewBox="0 0 1024 1024" version="1.1" xmlns="http://www.w3.org/2000/svg"><path d="M291.21 808.27h292.73V412.42h-68.56v327.34H291.21v68.51z" fill="#BD3C20" /><path d="M725.88 69.3H222.51v250.61h68.56v-182.1h378.15V324.8H855.8v567.39H291.07V681.51h-68.56V960.7h701.85V260.76L725.88 69.3z" fill="#819292" /><path d="M657.93 422h129v66.8h-129z m0 159.31h129v66.8h-129z m0 159.31h129v66.8h-129z" fill="#819292" /><path d="M224.07 432.54h114.6v52.83h-114.6v-52.83z" fill="#BD3C20" /><path d="M458.57 681.51v-361.6H96.69v361.6z m-239.31-136.2v83.11h-60.33V372.59h188.73c28.12 0 51 24.35 51 54.27V491c0 29.93-22.88 54.27-51 54.27h-128.4z" fill="#BD3C20" /><path d="M347.66 545.31c28.12 0 51-24.35 51-54.27v-64.18c0-29.93-22.88-54.27-51-54.27H158.93v255.83h60.33v-83.11h128.4zM224.07 432.54h114.6v52.83h-114.6z" fill="#FFFFFF" /></svg>