<?xml version="1.0" standalone="no"?><!DOCTYPE svg PUBLIC "-//W3C//DTD SVG 1.1//EN" "http://www.w3.org/Graphics/SVG/1.1/DTD/svg11.dtd"><svg class="icon" width="200px" height="200.00px" viewBox="0 0 1024 1024" version="1.1" xmlns="http://www.w3.org/2000/svg"><path fill="#333333" d="M824.61 903.46c0 55.47-46.12 100.41-102.94 100.41H559.49l265.24-255.71v155.3z m-7.13-464.31L937.1 550 544.77 936.28 425.15 825.47zM515.67 964.87L339.58 1024l56.48-169.83zM206.85 251h360.47v-50.2H206.85z m0 150.5h360.47v-50.2H206.85z m-103.06 602.37C47 1003.87 0.84 958.93 0.84 903.46V245.54L249.06 0h472.61c56.82 0 102.94 44.95 102.94 100.41V361l-666.77 642.76h-54.05z m898.76-518.4l-36.35 35.8-119.62-110.82 36.35-35.8C911 347 957.23 346.29 986.1 373l15 13.84c28.87 26.88 29.56 71 1.5 98.58z"  /></svg>