<?xml version="1.0" standalone="no"?><!DOCTYPE svg PUBLIC "-//W3C//DTD SVG 1.1//EN" "http://www.w3.org/Graphics/SVG/1.1/DTD/svg11.dtd"><svg class="icon" width="200px" height="200.00px" viewBox="0 0 1024 1024" version="1.1" xmlns="http://www.w3.org/2000/svg"><path d="M512 0C229.2 0 0 229.2 0 512s229.2 512 512 512 512-229.3 512-512S794.8 0 512 0z" fill="#24BEE8" /><path d="M518.9 832.7c-29.6 0-53.5-24-53.5-53.6s24-53.6 53.6-53.5c29.6 0 53.5 24 53.5 53.6 0 14.2-5.6 27.8-15.7 37.9-10 9.9-23.7 15.6-37.9 15.6z m44.4-232l-0.8 60.3c0 9.5-12.6 22.4-22.3 28.3-8.1 4.9-21.7 6.3-31.1 6.3-19.7 0-43.1-16-43.1-35.8v-60.4c0-53.3 31.4-90.6 67.6-133 25.6-30 43.8-45.1 54.1-75.6 19.8-58-12.1-104.9-74.5-102.8-60.1 2.1-80 45.3-82.8 81.7-3.1 39.3-34.9 44.6-55.9 43.9-19.3-0.7-42.4-22.7-41.8-42.1 3.9-120.1 75.8-174.9 174.1-180 99.2-5.2 196.4 65.1 183.3 192.3-5.5 53.2-41.5 93.4-75 129 0 0.1-49.2 45.4-51.8 87.9z" fill="#FFFFFF" /></svg>