<?xml version="1.0" standalone="no"?><!DOCTYPE svg PUBLIC "-//W3C//DTD SVG 1.1//EN" "http://www.w3.org/Graphics/SVG/1.1/DTD/svg11.dtd"><svg class="icon" width="200px" height="200.00px" viewBox="0 0 1024 1024" version="1.1" xmlns="http://www.w3.org/2000/svg"><path fill="#333333" d="M512 0C229.2 0 0 229.2 0 512s229.2 512 512 512 512-229.3 512-512S794.8 0 512 0z m0 938.2C276.6 938.2 85.8 747.4 85.8 512S276.7 85.8 512 85.8 938.2 276.6 938.2 512 747.4 938.2 512 938.2z"  /><path fill="#333333" d="M518.2 800.8c-26.6 0-48.2-21.6-48.2-48.3 0-26.7 21.6-48.2 48.3-48.2 26.6 0 48.2 21.6 48.2 48.3 0 12.8-5.1 25.1-14.1 34.1-9.1 9.1-21.4 14.2-34.2 14.1z m40-208.9l-0.7 54.3c0 8.5-11.3 20.2-20.1 25.5-7.3 4.4-19.4 5.7-28 5.7-17.8 0-38.9-14.4-38.9-32.2v-54.5c0-48.1 28.3-81.6 60.9-119.8 23-27 39.4-40.7 48.8-68.1 17.9-52.2-10.9-94.5-67.1-92.6-54.1 1.9-72.1 40.8-74.6 73.6-2.7 35.4-31.5 40.2-50.3 39.5-17.4-0.6-38.2-20.5-37.7-37.9 3.5-108 68.3-157.4 156.8-162 89.3-4.7 176.9 58.6 165.1 173.2-4.9 48-37.4 84.2-67.5 116.2 0 0-44.4 40.8-46.7 79.1z"  /></svg>