<?xml version="1.0" standalone="no"?><!DOCTYPE svg PUBLIC "-//W3C//DTD SVG 1.1//EN" "http://www.w3.org/Graphics/SVG/1.1/DTD/svg11.dtd"><svg class="icon" width="200px" height="200.00px" viewBox="0 0 1024 1024" version="1.1" xmlns="http://www.w3.org/2000/svg"><path d="M512 959c246.75 0 446.77-200 446.77-446.77S758.73 65.48 512 65.48 65.21 265.5 65.21 512.25 265.24 959 512 959z" fill="#24BEE8" /><path d="M516.29 338.88c75.52 0 93.21 69.85 49.71 113.39-48.75 48.8-87 58.37-87 159.8h74.09c0.48-57.89 29.16-85.16 58.79-112 27.24-24.88 56.4-46.41 56.4-96.65 0-79.9-74.56-136.84-152-136.84-87.47 0-160.6 61.72-160.6 147.84h74.09c0-43.06 43-75.6 86.51-75.6" fill="#FFFFFF" /><path d="M479 661.36h74.09v74.16H479v-74.16z" fill="#FFFFFF" /></svg>