<?xml version="1.0" standalone="no"?><!DOCTYPE svg PUBLIC "-//W3C//DTD SVG 1.1//EN" "http://www.w3.org/Graphics/SVG/1.1/DTD/svg11.dtd"><svg class="icon" width="200px" height="200.00px" viewBox="0 0 1024 1024" version="1.1" xmlns="http://www.w3.org/2000/svg"><path fill="#333333" d="M512.25 64.45c-247.31 0-447.72 200.46-447.72 447.7S265 959.86 512.25 959.86s447.69-200.43 447.69-447.7S759.5 64.45 512.25 64.45z m0 811.46c-200.91 0-363.77-162.85-363.77-363.76S311.36 148.4 512.25 148.4 876 311.25 876 512.16 713.13 875.91 512.25 875.91z m-17.59-209.76a52.2 52.2 0 1 0 36.94 15.28 52.91 52.91 0 0 0-36.94-15.28zM489.3 251q-65.23 0-105.41 39.91c-26.78 26.61-42.39 63.29-43.26 97.09s70.51 26.78 73.15 10.1c2.8-17.67 14.49-46.25 28.12-59.18s30.61-19.42 50.87-19.42q31.56 0 50.17 18.64t18.64 44.77a60.88 60.88 0 0 1-10.49 34.51q-6.8 9.9-41.69 41.83t-46.51 57.47q-11.58 25.53-11.64 65.14c0 2.51 0.08 9.68 0.28 21.38h72.39q-0.59-37 5.54-51.4t31.28-38q48.69-45.63 63.6-72.14a113.21 113.21 0 0 0 14.83-56.21q0-53.65-40.57-94.08T489.36 251z"  /></svg>