<?xml version="1.0" standalone="no"?><!DOCTYPE svg PUBLIC "-//W3C//DTD SVG 1.1//EN" "http://www.w3.org/Graphics/SVG/1.1/DTD/svg11.dtd"><svg class="icon" width="200px" height="200.00px" viewBox="0 0 1024 1024" version="1.1" xmlns="http://www.w3.org/2000/svg"><path fill="#333333" d="M800.74 422.23L545.81 512l254.85 89.77q97.34 34.59 112.46 55.29c9.94 13.82 15 27.64 15 41.47q0 55.33-22.78 62.13a153.19 153.19 0 0 1-45.34 6.9c-15.27 0-30.36-3.45-45.46-10.36s-32.8-17.28-53-31.1l-234.4-193.36 53 290c5 13.82 7.5 26.52 7.5 38V885c0 27.64-7.5 47.25-22.68 58.67-15.18 11.57-32.8 17.28-53 17.28-15.44 0-32.11-4.58-50.16-13.82s-27-29.9-27-62.13a104.47 104.47 0 0 1 3.84-27.65c2.62-9.16 3.84-20.73 3.84-34.56l61.6-290-238.77 193.3c-15.45 9.24-32.11 18.41-50.17 27.65s-34.63 13.82-50 13.82-30.8-4.58-46.24-13.82-23.12-27.65-23.12-55.29q0-27.61 22.51-48.38c15-13.82 49.9-29.9 105-48.38L478.37 512l-254.94-89.77q-52.48-20.74-90-38T96 325.55q0-34.47 22.6-51.84c15.18-11.41 30.19-17.27 45.45-17.27q22.65 0 49.21 10.36 26.31 10.36 49.21 31.1l234.48 193.36-53-290c0-13.82-1.31-25.24-3.84-34.56a100.08 100.08 0 0 1-3.71-27.7c0-18.41 7.5-35.6 22.68-51.84 15.18-16 32.9-24.11 53-24.11 30.88 0 51.21 9.24 61.68 27.65 10.21 18.4 15.44 34.56 15.44 48.38v31.1a62.65 62.65 0 0 1-7.76 31.1l-61.6 290L758.6 297.91c20.5-18.41 38.4-29.91 53.91-34.56a161.66 161.66 0 0 1 46.24-6.91q30.76 0 50 20.73c12.82 13.82 19.46 30 19.46 48.38s-5.06 33.43-15 44.93Q898 387.71 800.74 422.23z"  /></svg>