<?xml version="1.0" standalone="no"?><!DOCTYPE svg PUBLIC "-//W3C//DTD SVG 1.1//EN" "http://www.w3.org/Graphics/SVG/1.1/DTD/svg11.dtd"><svg class="icon" width="200px" height="200.00px" viewBox="0 0 1024 1024" version="1.1" xmlns="http://www.w3.org/2000/svg"><path fill="#333333" d="M859.49 87.36H119.81A55 55 0 0 0 65 142.16v178.07h849.29V142.16a55 55 0 0 0-54.8-54.8z m-575.31 158.9c-21.92 0-41.09-19.18-41.09-41.09s19.18-41.09 41.09-41.09 41.09 19.18 41.09 41.09-19.17 41.09-41.09 41.09z m410.94 0c-21.92 0-41.09-19.18-41.09-41.09s19.18-41.09 41.09-41.09 41.09 19.18 41.09 41.09-19.21 41.09-41.09 41.09z m-191.77 498.6c0-137 109.58-246.56 246.56-246.56 63 0 120.54 24.66 164.37 63V375H65v506.84a55 55 0 0 0 54.79 54.79h473.96c-54.75-43.83-90.4-115.06-90.4-191.77z m-109.58 0H174.6v-54.79h219.17z m54.79-164.37h-274V525.7h274z"  /><path fill="#333333" d="M757.84 534.35c-112.07 0-201.14 89.08-201.14 201.14s89.08 201.14 201.14 201.14S959 847.56 959 735.49s-89.09-201.14-201.16-201.14zM815.31 793H671.64v-57.51h86.2V620.55h57.47z"  /></svg>