<?xml version="1.0" standalone="no"?><!DOCTYPE svg PUBLIC "-//W3C//DTD SVG 1.1//EN" "http://www.w3.org/Graphics/SVG/1.1/DTD/svg11.dtd"><svg class="icon" width="200px" height="200.00px" viewBox="0 0 1024 1024" version="1.1" xmlns="http://www.w3.org/2000/svg"><path fill="#333333" d="M936.06 832.9L703.83 605.68c39.94-55.72 63.58-123.41 63.58-196.5C767.41 220 610.09 66 416.71 66S66 220 66 409.18s157.32 343.19 350.7 343.19A354.28 354.28 0 0 0 593.8 705c0.42 0.41 0.67 0.9 1.13 1.31L830.2 936.49a75.9 75.9 0 0 0 105.86 0 72.13 72.13 0 0 0 0-103.59zM194.34 409.18c0-120 99.76-217.59 222.37-217.59s222.37 97.61 222.37 217.59-99.76 217.64-222.37 217.64-222.37-97.62-222.37-217.64z"  /></svg>