<?xml version="1.0" standalone="no"?><!DOCTYPE svg PUBLIC "-//W3C//DTD SVG 1.1//EN" "http://www.w3.org/Graphics/SVG/1.1/DTD/svg11.dtd"><svg class="icon" width="200px" height="200.00px" viewBox="0 0 1024 1024" version="1.1" xmlns="http://www.w3.org/2000/svg"><path fill="#333333" d="M1001.8 271.2L415.1 858.1c-28.2 29-74.6 29.7-103.7 1.5l-1.5-1.5c-1.3-0.8-1.7-2.1-2.5-3.8-1.7-0.4-2.5-1.3-4.2-1.7L21.5 570.5c-28.7-30.1-28.7-77.4 0-106.1 29.2-29.1 76.4-29.1 105.6 0l235.8 236 534.3-534.5c27.9-28.9 74-29.7 103-1.8l1.8 1.8c29.1 28.4 29.6 75 1.1 104.1-0.5 0.4-0.9 0.8-1.3 1.2z"  /></svg>