<?xml version="1.0" standalone="no"?><!DOCTYPE svg PUBLIC "-//W3C//DTD SVG 1.1//EN" "http://www.w3.org/Graphics/SVG/1.1/DTD/svg11.dtd"><svg class="icon" width="200px" height="200.00px" viewBox="0 0 1024 1024" version="1.1" xmlns="http://www.w3.org/2000/svg"><path fill="#333333" d="M737.507228 510.650165c0 121.684693-99.087536 220.772229-220.772229 220.772229S295.962771 632.234871 295.962771 510.650165s98.987548-220.772229 220.772228-220.772229 220.772229 98.987548 220.772229 220.772229m266.966418-142.482077c-5.399321-19.997484-23.697019-33.195824-43.794491-31.796001-7.399069 0.499937-14.898126-0.099987-22.197208-1.599798-24.296944-5.099359-45.194315-20.497422-57.192805-42.094705-16.29795-28.996353-15.198088-64.591875 2.799648-92.488366 11.098604-17.197837 9.098855-39.794994-4.899384-54.793108-26.096717-27.596529-55.493019-51.093573-86.389133-71.990944C745.106272 40.909254 692.912838 15.812411 637.019869 1.314235c-19.497547-4.999371-39.695007 4.599421-48.593888 23.097094-14.298201 29.896239-43.894478 48.89385-76.39039 48.793862h-0.299963c-32.395925 0.099987-61.992202-18.897623-76.390391-48.793862-8.898881-18.497673-29.196327-28.096466-48.593887-23.097094C330.958368 15.912398 278.664946 40.909254 230.970946 73.305179c-30.896114 20.897371-60.292416 44.394416-86.389133 71.990944-13.998239 14.998113-15.997988 37.595271-4.999371 54.793108 18.097723 27.896491 19.097598 63.492013 2.799648 92.488365-11.998491 21.697271-32.795875 36.995346-57.092819 41.994718-7.299082 1.599799-14.798139 2.199723-22.197207 1.799773-20.097472-1.599799-38.39517 11.798516-43.694504 31.796001-25.796755 94.188152-25.796755 193.475662 0 287.663814 5.399321 19.897497 23.697019 33.195824 43.694504 31.796001 7.499057-0.39995 14.898126 0.199975 22.197207 1.799773 27.896491 5.599296 51.19356 25.19683 62.192177 52.293422 10.898629 26.996604 7.998994 57.692743-7.799019 82.189661-11.098604 17.297824-9.098855 39.794994 4.999371 54.793108 26.096717 27.596529 55.493019 51.093573 86.389133 71.990944 47.793988 32.495912 99.887435 57.492768 155.880392 71.890957 19.497547 5.099359 39.695007-4.599421 48.593887-23.097095 14.298201-29.996227 43.994466-48.89385 76.490379-48.693874 32.695887 0 61.992202 18.697648 76.490378 48.793862 8.898881 18.497673 29.09634 28.096466 48.593887 23.097094 55.892969-14.398189 108.086404-39.395044 155.780404-71.890956 30.896114-20.997359 60.292416-44.394416 86.389133-72.090932 13.998239-14.998113 15.997988-37.595271 4.899384-54.793108-18.097723-27.896491-19.097598-63.492013-2.799648-92.488365 15.798013-28.596403 46.694126-45.594265 79.390014-43.694504 20.097472 1.199849 38.295183-11.998491 43.794491-31.796 25.796755-94.388127 25.796755-193.675637-0.099988-287.763802" /></svg>