<?xml version="1.0" standalone="no"?><!DOCTYPE svg PUBLIC "-//W3C//DTD SVG 1.1//EN" "http://www.w3.org/Graphics/SVG/1.1/DTD/svg11.dtd"><svg class="icon" width="200px" height="200.00px" viewBox="0 0 1024 1024" version="1.1" xmlns="http://www.w3.org/2000/svg"><path fill="#333333" d="M512 0C226.74 0 0 226.74 0 512s226.74 512 512 512 512-226.74 512-512S797.26 0 512 0z m65.83 395c0-14.63 14.63-36.57 36.57-36.57h51.2c14.63 0 36.57 14.63 36.57 36.57v65.8c0 14.63-14.63 36.57-36.57 36.57h-51.2c-14.63 0-36.57-14.63-36.57-36.57z m-256 0c0-14.63 14.63-36.57 36.57-36.57h51.2c14.63 0 36.57 14.63 36.57 36.57v65.8c0 14.63-14.63 36.57-36.57 36.57h-51.2c-14.63 0-36.57-14.63-36.57-36.57z m373 373C651 694.86 592.46 665.6 512 665.6S373 694.86 329.14 768H256c36.57-95.09 146.29-168.23 256-168.23S738.74 687.54 768 768z"  /></svg>