<?xml version="1.0" standalone="no"?><!DOCTYPE svg PUBLIC "-//W3C//DTD SVG 1.1//EN" "http://www.w3.org/Graphics/SVG/1.1/DTD/svg11.dtd"><svg class="icon" width="200px" height="200.00px" viewBox="0 0 1024 1024" version="1.1" xmlns="http://www.w3.org/2000/svg"><path d="M513.24 515.56m-390.88 0a390.88 390.88 0 1 0 781.76 0 390.88 390.88 0 1 0-781.76 0Z" fill="#E8E8E8" /><path d="M513.24 962.29c-119.32 0-231.51-46.47-315.88-130.84S66.51 634.89 66.51 515.56 113 284.06 197.35 199.68 393.91 68.84 513.24 68.84s231.51 46.47 315.88 130.84S960 396.24 960 515.56s-46.51 231.51-130.88 315.89-196.56 130.84-315.88 130.84z m0-781.77c-184.74 0-335 150.3-335 335s150.3 335 335 335 335-150.3 335-335-150.24-335-335-335z" fill="#B3B3B3" /></svg>