<?xml version="1.0" standalone="no"?><!DOCTYPE svg PUBLIC "-//W3C//DTD SVG 1.1//EN" "http://www.w3.org/Graphics/SVG/1.1/DTD/svg11.dtd"><svg class="icon" width="200px" height="200.00px" viewBox="0 0 1024 1024" version="1.1" xmlns="http://www.w3.org/2000/svg"><path d="M0 512c0 282.8 229.2 512 512 512s512-229.2 512-512S794.8 0 512 0 0 229.2 0 512z" fill="#E8E8E8" /><path d="M512 1024c-136.7 0-265.3-53.3-362-150S0 648.8 0 512s53.3-265.3 150-362S375.2 0 512 0s265.3 53.3 362 150 150 225.3 150 362-53.3 265.3-150 362-225.3 150-362 150z m0-896c-211.7 0-383.9 172.3-383.9 383.9s172.2 384 383.9 384S895.9 723.6 895.9 512 723.7 128 512 128z" fill="#B3B3B3" /></svg>