<?xml version="1.0" standalone="no"?><!DOCTYPE svg PUBLIC "-//W3C//DTD SVG 1.1//EN" "http://www.w3.org/Graphics/SVG/1.1/DTD/svg11.dtd"><svg class="icon" width="200px" height="200.00px" viewBox="0 0 1024 1024" version="1.1" xmlns="http://www.w3.org/2000/svg"><path d="M514 515m-390.47 0a390.47 390.47 0 1 0 780.94 0 390.47 390.47 0 1 0-780.94 0Z" fill="#E8E8E8" /><path d="M514 961.25C267.94 961.25 67.75 761.06 67.75 515S267.94 68.75 514 68.75 960.25 268.94 960.25 515 760.06 961.25 514 961.25z m0-780.94c-184.55 0-334.69 150.14-334.69 334.69S329.45 849.69 514 849.69 848.69 699.55 848.69 515 698.55 180.31 514 180.31z" fill="#B3B3B3" /><path d="M514 515m-223.13 0a223.13 223.13 0 1 0 446.26 0 223.13 223.13 0 1 0-446.26 0Z" fill="#B3B3B3" /></svg>