<svg id="图层_1" data-name="图层 1" xmlns="http://www.w3.org/2000/svg" viewBox="0 0 7.66 4.83"><defs><style>.cls-1{fill:#d8d8d8;}.cls-2{fill:#979797;}</style></defs><title>下拉1</title><g id="布局"><g id="导航"><path id="形状结合" class="cls-1" d="M1.35.65a.5.5,0,1,0-.71.71"/><path id="形状结合-2" data-name="形状结合" class="cls-1" d="M7,1.35A.5.5,0,1,0,6.3.65"/><path class="cls-2" d="M3.83,4.83a1,1,0,0,1-.71-.29L.29,1.71A1,1,0,1,1,1.71.29L3.83,2.41,6,.29a1,1,0,0,1,1.41,0,1,1,0,0,1,0,1.41L4.54,4.53A1,1,0,0,1,3.83,4.83Z"/></g></g></svg>