<?xml version="1.0" standalone="no"?><!DOCTYPE svg PUBLIC "-//W3C//DTD SVG 1.1//EN" "http://www.w3.org/Graphics/SVG/1.1/DTD/svg11.dtd"><svg class="icon" width="200px" height="200.00px" viewBox="0 0 1024 1024" version="1.1" xmlns="http://www.w3.org/2000/svg"><path fill="#333333" d="M923.87 338A448.29 448.29 0 1 0 959 512a446.24 446.24 0 0 0-35.13-174z m-174.8 411c-63.43 63.33-147.6 98.25-237.07 98.25-89.63 0-173.88-34.84-237.07-98.18A333.47 333.47 0 0 1 176.75 512c0-89.63 34.84-173.88 98.18-237.07s147.6-98.18 237.07-98.18c89.71 0 173.88 34.84 237.07 98.18s98.18 147.6 98.18 237.07c0 89.71-34.92 173.88-98.18 237.07z m-87.28-194.85H548.07V314.92a34.24 34.24 0 0 0-68.48 0v273.3a34.3 34.3 0 0 0 34.24 34.24h148a34.15 34.15 0 1 0 0-68.3z"  /></svg>