<?xml version="1.0" standalone="no"?><!DOCTYPE svg PUBLIC "-//W3C//DTD SVG 1.1//EN" "http://www.w3.org/Graphics/SVG/1.1/DTD/svg11.dtd"><svg class="icon" width="200px" height="200.00px" viewBox="0 0 1024 1024" version="1.1" xmlns="http://www.w3.org/2000/svg"><path d="M757.6 0H183.3v287.2h79.4V79.4h434.5v215.4h215.4v649.9h-650V702.8h-79.4V1024H988V222.9L757.6 0z" fill="#819292" /><path d="M682 404.3h147.4v75.6H682v-75.6z m0 185.2h147.4v75.6H682v-75.6z m0 181.3h147.4v75.6H682v-75.6z" fill="#819292" /><path d="M262.6 846.4h336.3V393h-79.4v374.1H262.6v79.3z" fill="#06AEA6" /><path d="M451.5 702.8V287.2H35.9v415.6h415.6z m-272-60.4h-68V347.6h68v185.2l68-68 68 68V351.4h68v290.9h-68l-68-68-68 68.1z" fill="#51B9ED" /><path d="M35.9 287.2h415.7v415.7H35.9V287.2z" fill="#06AEA6" /><path d="M372.2 426.3h-95.5v231.2h-71.5V426.3h-97.5v-74.8h264.5v74.8z" fill="#FFFFFF" /></svg>