<?xml version="1.0" standalone="no"?><!DOCTYPE svg PUBLIC "-//W3C//DTD SVG 1.1//EN" "http://www.w3.org/Graphics/SVG/1.1/DTD/svg11.dtd"><svg class="icon" width="200px" height="200.00px" viewBox="0 0 1024 1024" version="1.1" xmlns="http://www.w3.org/2000/svg"><path d="M727 63.82H224.24V315.2h69.46V133.28h380.37v188.53h188.54v568.91H293.7V679.03h-69.46v281.15h704.52V258.97L727 63.82z" fill="#819292" /><path d="M660.84 417.73h129v66.15h-129z m0 162.07h129V646h-129z m0 158.77h129v66.15h-129z" fill="#819292" /><path d="M293.7 804.72h294.38V407.81h-69.46v327.45H293.7z" fill="#06AEA6" /><path d="M459.08 679V315.2H95.24V679z m-238.15-52.89h-59.54v-258h59.54v162.08l59.54-59.54L340 530.19V371.43h59.54v254.68H340l-59.54-59.54-59.54 59.54z" fill="#51B9ED" /><path d="M95.24 315.2h363.84v363.84H95.24z" fill="#06AEA6" /><path d="M389.62 436.94h-83.57v202.4h-62.61v-202.4h-85.35v-65.51h231.53v65.51z" fill="#FFFFFF" /></svg>