<?xml version="1.0" standalone="no"?><!DOCTYPE svg PUBLIC "-//W3C//DTD SVG 1.1//EN" "http://www.w3.org/Graphics/SVG/1.1/DTD/svg11.dtd"><svg class="icon" width="200px" height="200.00px" viewBox="0 0 1024 1024" version="1.1" xmlns="http://www.w3.org/2000/svg"><path fill="#333333" d="M875.53 764.83a252.45 252.45 0 0 1 7 34.52 296.5 296.5 0 0 1 3 42.3 221.54 221.54 0 0 1-3.48 40.35q-3.51 19-10.53 28.69-5 6.81-25.58 13.13t-51.66 11.67q-31.1 5.35-69.22 10.21t-76.24 8.3q-38.12 3.4-74.23 4.86t-63.2 1.46q-27.09 0-62.7-1.94t-73.23-4.86q-37.62-2.92-74.73-6.81t-67.73-8.8q-30.6-4.86-52.16-9.24t-26.58-9.24q-9-6.81-14-43.27t4-94.81q5-33.06 27.59-50.57a180.32 180.32 0 0 1 52.15-27.7q29.59-10.21 62.2-18t56.68-23.34q19.06-11.67 29.59-22.37t15-21.39a57 57 0 0 0 4.53-22.35q0-11.67-1-26.25-2-21.39-14.55-33.06T348.88 512q-8-5.83-13.54-17t-10.54-22.87a237.44 237.44 0 0 1-9-28.2q-2-1.94-6-6.81-3-4.86-7-13.13a193.44 193.44 0 0 1-9-23.82 153.15 153.15 0 0 1-6.52-27.71q-1.5-12.16 0.5-20.91a50.27 50.27 0 0 1 5-18.48 580.86 580.86 0 0 1 4-68.07 503.2 503.2 0 0 1 13-61.26 170.72 170.72 0 0 1 29.09-59.32q18.06-24.31 39.12-40.35a178.59 178.59 0 0 1 43.64-24.8 211.23 211.23 0 0 1 45.64-12.16 302.73 302.73 0 0 1 44.14-3.4q23.07 1.94 37.62 5.35t23.57 8.27A62.09 62.09 0 0 1 588.13 89q6.52 6.81 13.54 13.61h19.06a63.71 63.71 0 0 1 17.56 2.39 49.23 49.23 0 0 1 17.05 9.24q8.53 6.81 18.56 19.45a200.31 200.31 0 0 1 34.1 63.74 453.2 453.2 0 0 1 16.05 65.64 648.43 648.43 0 0 1 6 71 49.79 49.79 0 0 1 3 11.67q1 6.81 1.5 16.53a133.52 133.52 0 0 1-1.5 24.31q-2 19.45-6 30.63t-9 17a30.54 30.54 0 0 1-11 9.72 237.43 237.43 0 0 1-9 28.2Q693 483.8 687.44 495t-13.54 17q-17.05 13.61-28.09 22.85t-15 31.6a93.63 93.63 0 0 0-2 27.23 79.9 79.9 0 0 0 7.52 27.71q6.52 14.1 21.07 26.74T698 670.5a512.43 512.43 0 0 0 50.66 16q27.59 7.29 53.17 16.53a182.53 182.53 0 0 1 45.64 23.82 76.69 76.69 0 0 1 28.06 37.98z m-322-32.09a14.07 14.07 0 0 0 0.5-12.16 43 43 0 0 0-7.52-12.16q-5-5.83-12-12.64h-46.19a86.13 86.13 0 0 0-11 12.64 44 44 0 0 0-6.52 10.7q-2.51 5.83 0.5 10.7 7 13.61 12 23.82t11 16q-2 8.75-6 24.8t-7.52 33.06q-3.51 17-6 32.09t-2.51 22.85q0 4.86 4.51 11.67a169.25 169.25 0 0 0 10.53 14.1 73 73 0 0 0 12.54 12.16q6.52 4.86 11.54 4.86t12-4.86A107 107 0 0 0 537 909.23a71 71 0 0 0 11-13.61q4.51-7.29 4.51-12.16 0-5.83-3-19.93T543 831.92q-3.51-17.5-7.52-34t-7-26.26q6-4.86 11.54-14.1t13.5-24.82z"  /></svg>