<?xml version="1.0" standalone="no"?><!DOCTYPE svg PUBLIC "-//W3C//DTD SVG 1.1//EN" "http://www.w3.org/Graphics/SVG/1.1/DTD/svg11.dtd"><svg class="icon" width="200px" height="200.00px" viewBox="0 0 1024 1024" version="1.1" xmlns="http://www.w3.org/2000/svg"><path d="M513.66 63.33C266.16 63.33 65.53 264 65.53 511.61c0 154.3 77.93 290.4 196.59 371a0.66 0.66 0 0 0 0.13 0.08c1.3 0.9 2.62 1.78 3.93 2.64q8.54 5.69 17.37 11c1.06 0.65 2.14 1.29 3.22 1.93 0.35 0.21 0.71 0.41 1.06 0.61 1.26 0.75 2.54 1.49 3.82 2.22l1.45 0.83c1.2 0.69 2.4 1.35 3.6 2 0.45 0.25 0.89 0.5 1.34 0.74 1.1 0.61 2.22 1.23 3.33 1.81s2.19 1.19 3.29 1.76l0.31 0.16c1.38 0.74 2.77 1.45 4.17 2.17 0.55 0.3 1.11 0.58 1.68 0.86 1.05 0.54 2.1 1.06 3.17 1.59 1.48 0.75 3 1.48 4.46 2.19 0.9 0.45 1.8 0.89 2.72 1.3s2.09 1 3.14 1.49q4.92 2.31 9.92 4.49c1.66 0.73 3.33 1.45 5 2.15l3.9 1.63c0.48 0.21 1 0.41 1.46 0.61l2.72 1.09c1 0.39 1.9 0.76 2.87 1.14 1.21 0.48 2.43 1 3.65 1.4 0.33 0.14 0.66 0.26 1 0.39l2.93 1.1c1.13 0.43 2.27 0.85 3.4 1.25l2.63 0.94c0.56 0.21 1.13 0.41 1.7 0.6 1.3 0.46 2.62 0.91 3.92 1.35l1.64 0.55c1.26 0.44 2.54 0.85 3.82 1.26 1.58 0.53 3.17 1 4.77 1.53s3.18 1 4.78 1.46q5.89 1.78 11.88 3.39c1.78 0.49 3.57 1 5.36 1.41 1.54 0.4 3.08 0.79 4.63 1.16 0.35 0.1 0.71 0.19 1.08 0.26 1.19 0.3 2.38 0.58 3.57 0.85l1.94 0.46 4.82 1.08 0.29 0.06c1.79 0.39 3.57 0.76 5.37 1.13s3.5 0.71 5.26 1l0.83 0.16 3.55 0.66c1.38 0.26 2.77 0.5 4.16 0.74l1 0.18 0.66 0.11 2.12 0.35c1.13 0.18 2.25 0.36 3.38 0.53 0.73 0.13 1.46 0.24 2.2 0.34q3.66 0.56 7.33 1l1.76 0.24 2.84 0.35c1.35 0.18 2.7 0.33 4.05 0.49s2.63 0.3 3.94 0.43c1.81 0.19 3.63 0.38 5.44 0.54q20.63 1.91 41.76 1.93 18.17 0 36-1.44c1.86-0.15 3.72-0.3 5.57-0.48l4.91-0.48 1.56-0.16c1.34-0.14 2.69-0.29 4-0.45l1.16-0.14q2-0.23 4-0.49l2.14-0.28 3-0.43c0.9-0.11 1.8-0.24 2.69-0.38l2.42-0.36c1.11-0.16 2.23-0.33 3.34-0.51 0.61-0.1 1.21-0.19 1.83-0.3 1.09-0.16 2.17-0.34 3.24-0.54l3.72-0.65 0.34-0.06h0.2c1.88-0.34 3.74-0.69 5.61-1.05q5.8-1.11 11.54-2.39c1.91-0.43 3.83-0.86 5.73-1.31s3.8-0.9 5.69-1.38l5.49-1.4 0.18-0.05c1.89-0.5 3.77-1 5.64-1.53q5.63-1.56 11.2-3.27c1.85-0.58 3.7-1.15 5.54-1.74s3.69-1.19 5.53-1.81c3.63-1.2 7.22-2.45 10.8-3.77l0.24-0.09c1.78-0.65 3.55-1.3 5.32-2s3.48-1.33 5.21-2l0.24-0.1c1.78-0.7 3.54-1.4 5.31-2.13s3.54-1.46 5.32-2.22l0.13-0.05q5.24-2.22 10.43-4.59t10.47-4.75c1.68-0.81 3.34-1.64 5-2.48l0.38-0.19c1.43-0.71 2.84-1.43 4.24-2.17l1.2-0.61c1.5-0.79 3-1.58 4.49-2.38q2.53-1.35 5-2.73c1.66-0.93 3.33-1.85 5-2.8s3.3-1.89 4.94-2.85q12.33-7.19 24.14-15.19a448.17 448.17 0 0 0 60-48.37c1-1 2-1.91 3-2.89 1.65-1.61 3.28-3.23 4.89-4.87s3.14-3.18 4.69-4.79a446.78 446.78 0 0 0 125.44-311C961.8 264 761.16 63.33 513.66 63.33z" fill="#FFD978" /><path d="M669.8 735.48a1.93 1.93 0 0 1-0.31 0.27c-31.9 28.35-71.82 46.06-116.3 48.13-2.88 0.13-5.81 0.22-8.73 0.22H486c-2.92 0-5.81-0.09-8.68-0.22q-3.5-0.13-7-0.45a165.5 165.5 0 0 1-18.93-2.62c-1.53-0.23-3.05-0.52-4.57-0.89a171.34 171.34 0 0 1-26.8-8 175 175 0 0 1-16.92-7.43 195.9 195.9 0 0 1-42-28.72c-0.13 0-0.22-0.18-0.31-0.27-2.7-2.41-5.35-4.86-7.93-7.43-48.06-47.5-75.63-120.25-69.55-198.42l7.31-94.39 2.12-26.84 1.9-24.93 1.59-20.43c8.58-110.91 95.77-194.61 195.33-194.61h47.36c99.55 0 186.74 83.69 195.38 194.59l1.15 14.78 11.78 151.8c6.43 82.36-24.54 158.7-77.44 205.84z m0 0" fill="#332115" /><path d="M450.96 591.73h124.38v182.18H450.96z" fill="#FFE1CC" /><path d="M628.28 773.92l-34.63 178.84a444.53 444.53 0 0 1-52.65 6.31q-13.55 0.83-27.32 0.83-14.57 0-28.9-0.93a446.09 446.09 0 0 1-46.61-5.41L392.7 774.91l45-27.65 13-8 60.94 34.68 64.36-34.7 12.08 8z" fill="#FFFFFF" /><path d="M511.64 526.4c31.1 17 78.72-112-2.81-104.67s2.81 104.67 2.81 104.67z m0 0M332.48 526.31c-30.64 17.87-81.69-109.82 0-104.7s0 104.7 0 104.7z m357.63 0c30.67 17.86 81.73-109.81 0-104.7s0 104.7 0 104.7z m0 0" fill="#FFE1CC" /><path d="M709.2 459.73C709.2 567.42 621.93 684 514.29 684s-194.9-116.55-194.9-224.28 87.26-195 194.9-195S709.2 352 709.2 459.72zM693.4 808" fill="#FFE1CC" /><path d="M305.59 398.43c1.92-5.11 5.74-9.28 9.89-12.83a72.72 72.72 0 0 1 51.87-17.14c-18.57 19.27-36.59 42-37.78 68.8-0.78 17.52 5.74 36-1.13 52.12A190.39 190.39 0 0 1 304.51 416c-0.65-5.9-1-12 1.08-17.58z m411.07 0c-1.93-5.11-5.75-9.28-9.89-12.83a72.7 72.7 0 0 0-51.86-17.13c18.57 19.27 36.59 42.05 37.77 68.8 0.78 17.52-5.75 36 1.13 52.12a190.38 190.38 0 0 0 24-73.39c0.65-5.9 1-12-1.08-17.58z m0 0" fill="#332115" /><path d="M574.5 671.23v17.83c-35.56 19.41-80.22 16.26-124.89 0.58v-19.39c5 0.13 1.76 0.27 2 0.35a154 154 0 0 0 62.17 13.4 149.94 149.94 0 0 0 60.72-12.75z m0 0" fill="#F4C7A8" /><path d="M531.78 203.48c17.3 13.73 33.33 38.27 24.78 60.29-20.45 29.84-59.07 28.27-91.18 37-25.08 6.9-48.17 21.5-73.22 28.57-29.42 8.3-61.75 5.46-88.11-11.67s-45.82-49.33-47.05-84.18c12.21 6.67 25 13.49 38.48 13.3 18.4-0.26 34.52-13.27 50.52-23.79 16.63-11 34.3-19.63 51.92-28.3 13.58-6.67 27.28-13.38 41.78-16.56 31.86-7 65.5 4 92.22 25.24z m0 0" fill="#332115" /><path d="M734.55 369.49c-8.64-110.89-95.84-194.23-195.39-194.23h-47.35c-99.55 0-186.79 83.38-195.43 194.23l-1.59 20.13c6.25 1.6 12.59 3.12 19 4.59q5 1.13 10.23 2.27 20.28 4.33 40.76 7.61 21.63 3.48 43.42 5.84a12.26 12.26 0 0 0 13.23-9.62l13.21-60.36s6 31.54 20 57.61a32.88 32.88 0 0 0 28.15 17.31q10.92 0.27 21.94 0.28a869.61 869.61 0 0 0 162.78-15q18.8-3.54 37-7.93l1.59-0.4q15-3.6 29.63-7.79z m0 0" fill="#332115" /><path d="M763.81 883.57q-11.81 8-24.14 15.19-2.46 1.45-4.94 2.85c-1.66 1-3.33 1.88-5 2.8s-3.34 1.83-5 2.73c-1.49 0.8-3 1.59-4.49 2.38l-1.2 0.61c-1.4 0.74-2.82 1.45-4.24 2.17l-0.38 0.19c-1.66 0.84-3.33 1.66-5 2.48q-5.16 2.52-10.39 4.89t-10.43 4.59l-0.13 0.05q-2.65 1.13-5.32 2.22c-1.76 0.73-3.53 1.43-5.31 2.13l-0.24 0.1c-1.73 0.68-3.47 1.34-5.21 2s-3.54 1.33-5.32 2l-0.24 0.09c-3.58 1.3-7.18 2.57-10.8 3.77-1.84 0.63-3.68 1.23-5.53 1.81l-5.54 1.74q-5.58 1.71-11.2 3.27c-1.88 0.51-3.75 1-5.64 1.53l-0.18 0.05-5.49 1.4c-1.89 0.48-3.79 0.93-5.69 1.38s-3.82 0.89-5.73 1.31c-3.83 0.85-7.67 1.64-11.54 2.39-1.86 0.36-3.73 0.71-5.61 1.05h-0.2l-0.34 0.06-3.72 0.65c-1.08 0.2-2.15 0.38-3.24 0.54-0.61 0.11-1.21 0.2-1.83 0.3-1.11 0.19-2.23 0.35-3.34 0.51l-2.42 0.36c-0.89 0.14-1.79 0.26-2.69 0.38l-3 0.43-2.14 0.28q-2 0.26-4 0.49l-1.16 0.14c-1.34 0.16-2.69 0.31-4 0.45l-1.56 0.16-4.91 0.48c-1.85 0.18-3.7 0.33-5.57 0.48q-17.82 1.45-36 1.44-21.12 0-41.76-1.93c-1.81-0.16-3.63-0.35-5.44-0.54-1.31-0.13-2.63-0.28-3.94-0.43s-2.7-0.31-4.05-0.49l-2.84-0.35-1.76-0.24c-2.45-0.33-4.89-0.66-7.33-1-0.74-0.1-1.48-0.21-2.2-0.34-1.13-0.16-2.25-0.35-3.38-0.53l-2.12-0.35-0.66-0.11-1-0.18c-1.39-0.24-2.78-0.48-4.16-0.74l-3.55-0.66-0.83-0.16c-1.75-0.33-3.52-0.68-5.26-1s-3.58-0.74-5.37-1.13l-0.29-0.06-4.82-1.08-1.94-0.46c-1.19-0.28-2.38-0.55-3.57-0.85-0.36-0.08-0.73-0.16-1.08-0.26-1.55-0.38-3.09-0.76-4.63-1.16-1.79-0.45-3.58-0.93-5.36-1.41q-6-1.6-11.88-3.39c-1.6-0.48-3.19-1-4.78-1.46s-3.19-1-4.77-1.53c-1.28-0.41-2.55-0.83-3.82-1.26l-1.64-0.55c-1.3-0.44-2.62-0.89-3.92-1.35-0.58-0.19-1.14-0.39-1.7-0.6l-2.63-0.94c-1.14-0.4-2.28-0.83-3.4-1.25l-2.93-1.1c-0.35-0.13-0.69-0.25-1-0.39-1.23-0.45-2.44-0.93-3.65-1.4-1-0.38-1.91-0.75-2.87-1.14l-2.72-1.09c-0.5-0.2-1-0.4-1.46-0.61l-3.9-1.63c-1.68-0.7-3.34-1.43-5-2.15q-5-2.18-9.92-4.49c-1.05-0.49-2.1-1-3.14-1.49s-1.81-0.85-2.72-1.3c-1.49-0.71-3-1.44-4.46-2.19-1.06-0.53-2.12-1.05-3.17-1.59-0.56-0.29-1.13-0.56-1.68-0.86-1.4-0.71-2.79-1.43-4.17-2.17l-0.31-0.16c-1.1-0.58-2.2-1.16-3.29-1.76s-2.23-1.2-3.33-1.81c-0.45-0.24-0.89-0.49-1.34-0.74-1.2-0.66-2.4-1.33-3.6-2l-1.45-0.83c-1.28-0.73-2.55-1.46-3.82-2.22-0.35-0.2-0.71-0.4-1.06-0.61-1.08-0.64-2.15-1.28-3.22-1.93q-8.82-5.28-17.37-11c-1.31-0.86-2.63-1.74-3.93-2.64a0.66 0.66 0 0 1-0.13-0.08L277 812.73l160.67-65.47 37 164.54 0.48-1.33 35.28 36.76 17.28-21.45 23.79-16.47 36.48-162 160.68 65.48z" fill="#292D2D" /><path d="M437.69 747.24l72.8 199.97-94.34-80.12 24.1-38.38h-33.86l-15.84-62.26 47.14-19.21z" fill="#BCBCBC" /><path d="M588.03 747.24l-77.54 199.97 99.08-80.12-24.1-38.38h33.86l15.84-62.26-47.14-19.21z" fill="#BCBCBC" /></svg>