<?xml version="1.0" standalone="no"?><!DOCTYPE svg PUBLIC "-//W3C//DTD SVG 1.1//EN" "http://www.w3.org/Graphics/SVG/1.1/DTD/svg11.dtd"><svg class="icon" width="200px" height="200.00px" viewBox="0 0 1024 1024" version="1.1" xmlns="http://www.w3.org/2000/svg"><path d="M512.2 62.79C265.23 62.79 65 263.05 65 510.11c0 154 77.77 289.78 196.17 370.26a444.45 444.45 0 0 0 222.17 76.14q14.31 0.92 28.84 0.92 13.73 0 27.26-0.82A446.69 446.69 0 0 0 821.67 833c1-0.95 2-1.91 3-2.88 1.65-1.61 3.27-3.22 4.88-4.86s3.13-3.17 4.68-4.78a445.83 445.83 0 0 0 125.16-310.37c0-247.06-200.21-447.32-447.19-447.32z" fill="#00B3C1" /><path d="M449.65 590.06h124.11v181.79H449.65z" fill="#FFE1CC" /><path d="M626.59 771.85L592 950.31a443.59 443.59 0 0 1-52.56 6.29q-13.52 0.82-27.26 0.82-14.54 0-28.84-0.92a445.13 445.13 0 0 1-46.51-5.4L391.5 772.84l44.87-27.59 13-8 60.81 34.61 64.19-34.61 12.05 8z" fill="#FFFFFF" /><path d="M483.37 956.51a444.45 444.45 0 0 1-222.17-76.14l14.8-69.79 160.33-65.33 46.76 207.68zM761.82 881.28a444.91 444.91 0 0 1-222.36 75.33l0.21-3.68 46.76-207.68 160.34 65.34z" fill="#292D2D" /><path d="M510.19 524.86c31 17 78.55-111.72-2.8-104.44s2.8 104.44 2.8 104.44z m0 0M331.42 524.77c-30.57 17.83-81.52-109.58 0-104.47s0 104.47 0 104.47z m356.87 0c30.6 17.82 81.56-109.57 0-104.47s0 104.47 0 104.47z m0 0" fill="#FFE1CC" /><path d="M707.33 458.34c0 107.45-87.08 223.8-194.49 223.8s-194.49-116.3-194.49-223.8 87.08-194.55 194.49-194.55 194.49 87.1 194.49 194.55z m-15.77 347.5" fill="#FFE1CC" /><path d="M545.71 251.6c8.25-30.48 38.72-48.21 68.85-46s58.94 21.65 80.34 46.66a120.23 120.23 0 0 1 17.25 25.53c14.86 30.68 12.77 136.31 0 165.45z m0 0" fill="#332115" /><path d="M547.29 192.7c17.26 13.7 33.26 38.19 24.73 60.16-20.41 29.77-58.94 28.21-91 37C456 296.71 433 311.29 408 318.34c-29.35 8.28-61.62 5.44-87.92-11.64s-45.72-49.29-47-84.06c12.19 6.65 24.91 13.46 38.39 13.27 18.37-0.25 34.45-13.23 50.39-23.74 16.6-10.93 34.23-19.59 51.81-28.24 13.55-6.65 27.23-13.35 41.69-16.52 31.79-7 65.36 4 92 25.19z m0 0" fill="#332115" /><path d="M718.24 406.5c-0.36-10.26-1.36-19.65-1.36-24.28-0.42-34.16-11.09-64-31.44-91.47C650.09 243.07 596.7 214 536.92 214H489.5c-53.38 0-104.23 24.58-140 63.75a180.77 180.77 0 0 0-43.1 84.92 198.63 198.63 0 0 0-3.89 49.33c0.57 13-2 37.88 14.38 28.52 10.19-5.8 20.33-26.87 29-35.83a213.64 213.64 0 0 1 36.63-30.48 178.32 178.32 0 0 1 89.18-28.82c51.11-2.33 99.61 16.45 143.51 41.07 25 14 48.12 21.73 65.72 45.16 4.4 5.86 8.84 12.39 15.75 14.86 20.12 7.23 22.31-18.3 21.58-40z m0 0" fill="#332115" /><path d="M304.58 397.17c1.92-5.1 5.73-9.26 9.87-12.8a72.57 72.57 0 0 1 51.76-17.1c-18.53 19.23-36.51 42-37.7 68.66-0.78 17.48 5.73 35.9-1.13 52a190 190 0 0 1-23.88-73.22c-0.65-5.88-1-12 1.08-17.54z m410.19 0c-1.92-5.1-5.74-9.26-9.87-12.8a72.55 72.55 0 0 0-51.75-17.09c18.53 19.23 36.51 42 37.69 68.66 0.78 17.48-5.74 35.9 1.13 52a190 190 0 0 0 23.92-73.23c0.65-5.88 1-12-1.08-17.54z m0 0" fill="#332115" /><path d="M574 669.39v17.79c-35.49 19.37-80.05 16.22-124.63 0.58v-19.35c5 0.13 1.76 0.27 2 0.35a153.68 153.68 0 0 0 62 13.35A149.62 149.62 0 0 0 574 669.39z m0 0" fill="#F4C7A8" /><path d="M436.4 745.24l46.76 207.68-68.25-88.09 24.04-38.3h-33.79l-15.8-62.12 47.04-19.17zM586.42 745.24l-46.77 207.68 68.26-88.09-24.04-38.3h33.78l15.81-62.13-47.04-19.16z" fill="#BCBCBC" /><path d="M494.46 788.737l15.84-15.84 15.84 15.84-15.84 15.839z" fill="#00B3C1" /><path d="M526.14 929.24l-15.84 15.84-15.84-15.84 15.84-152.49 15.84 152.49z" fill="#00B3C1" /></svg>