<?xml version="1.0" standalone="no"?><!DOCTYPE svg PUBLIC "-//W3C//DTD SVG 1.1//EN" "http://www.w3.org/Graphics/SVG/1.1/DTD/svg11.dtd"><svg class="icon" width="200px" height="200.00px" viewBox="0 0 1024 1024" version="1.1" xmlns="http://www.w3.org/2000/svg"><path d="M512 0C229.2 0 0 229.2 0 512c0 176.2 89 331.7 224.6 423.7l0.1 0.1 4.5 3c6.5 4.3 13.1 8.5 19.8 12.6 1.2 0.7 2.4 1.5 3.7 2.2 0.4 0.2 0.8 0.5 1.2 0.7 1.4 0.9 2.9 1.7 4.4 2.5l1.7 0.9c1.4 0.8 2.7 1.5 4.1 2.3 0.5 0.3 1 0.6 1.5 0.8 1.3 0.7 2.5 1.4 3.8 2.1 1.3 0.7 2.5 1.4 3.8 2l0.4 0.2c1.6 0.8 3.2 1.7 4.8 2.5 0.6 0.3 1.3 0.7 1.9 1l3.6 1.8c1.7 0.9 3.4 1.7 5.1 2.5 1 0.5 2.1 1 3.1 1.5 1.1 0.5 2.4 1.1 3.6 1.7 3.7 1.8 7.5 3.5 11.3 5.1 1.9 0.8 3.8 1.7 5.7 2.5l4.5 1.9c0.5 0.2 1.1 0.5 1.7 0.7l3.1 1.2c1.1 0.4 2.2 0.9 3.3 1.3 1.4 0.5 2.8 1.1 4.2 1.6 0.4 0.2 0.8 0.3 1.1 0.4l3.3 1.3c1.3 0.5 2.6 1 3.9 1.4l3 1.1c0.6 0.2 1.3 0.5 1.9 0.7l4.5 1.5 1.9 0.6c1.4 0.5 2.9 1 4.4 1.4 1.8 0.6 3.6 1.1 5.4 1.7 1.8 0.6 3.6 1.1 5.5 1.7 4.5 1.4 9 2.6 13.6 3.9 2 0.6 4.1 1.1 6.1 1.6 1.8 0.5 3.5 0.9 5.3 1.3l1.2 0.3c1.4 0.3 2.7 0.7 4.1 1l2.2 0.5 5.5 1.2 0.3 0.1c2 0.4 4.1 0.9 6.1 1.3 2.1 0.4 4 0.8 6 1.1l0.9 0.2 4.1 0.8c1.6 0.3 3.2 0.6 4.8 0.8l1.1 0.2 0.8 0.1 2.4 0.4 3.9 0.6c0.8 0.1 1.7 0.3 2.5 0.4 2.8 0.4 5.6 0.8 8.4 1.1l2 0.3 3.2 0.4c1.5 0.2 3.1 0.4 4.6 0.6 1.5 0.2 3 0.3 4.5 0.5 2.1 0.2 4.1 0.4 6.2 0.6 15.7 1.5 31.6 2.2 47.7 2.2 13.8 0 27.6-0.5 41.1-1.6 2.1-0.2 4.3-0.3 6.4-0.5l5.6-0.5 1.8-0.2c1.5-0.2 3.1-0.3 4.6-0.5l1.3-0.2c1.5-0.2 3-0.4 4.6-0.6l2.4-0.3 3.4-0.5c1-0.1 2.1-0.3 3.1-0.4l2.8-0.4c1.3-0.2 2.5-0.4 3.8-0.6l2.1-0.3c1.2-0.2 2.5-0.4 3.7-0.6l4.3-0.7 0.4-0.1h0.2c2.1-0.4 4.3-0.8 6.4-1.2 4.4-0.8 8.8-1.8 13.2-2.7 2.2-0.5 4.4-1 6.5-1.5 2.1-0.5 4.3-1 6.5-1.6l6.3-1.6 0.2-0.1c2.2-0.6 4.3-1.1 6.4-1.7 4.3-1.2 8.6-2.4 12.8-3.7 2.1-0.7 4.2-1.3 6.3-2l6.3-2.1c4.1-1.4 8.2-2.8 12.3-4.3l0.3-0.1c2-0.7 4.1-1.5 6.1-2.3 2-0.8 4-1.5 6-2.3l0.3-0.1c2-0.8 4-1.6 6.1-2.4 2-0.8 4-1.7 6.1-2.5l0.1-0.1c4-1.7 8-3.4 11.9-5.2 4-1.8 7.9-3.6 12-5.4 1.9-0.9 3.8-1.9 5.7-2.8l0.4-0.2c1.6-0.8 3.2-1.6 4.8-2.5l1.4-0.7 5.1-2.7c1.9-1 3.8-2.1 5.7-3.1 1.9-1.1 3.8-2.1 5.7-3.2 1.9-1.1 3.8-2.2 5.6-3.3 9.4-5.5 18.6-11.3 27.6-17.3 24.4-16.4 47.3-34.9 68.6-55.2 1.1-1.1 2.3-2.2 3.4-3.3 1.9-1.8 3.7-3.7 5.6-5.6 1.8-1.9 3.6-3.6 5.4-5.5 92.1-95.3 143.5-222.7 143.3-355.2C1024.1 229.2 794.9 0 512 0z" fill="#FFD978" /><path d="M690.5 767.7c-0.1 0.1-0.2 0.2-0.4 0.3-36.4 32.4-82.1 52.6-132.9 55-3.3 0.1-6.6 0.3-10 0.3h-66.8c-3.3 0-6.6-0.1-9.9-0.3-2.7-0.1-5.3-0.3-8-0.5-7.3-0.6-14.5-1.6-21.6-3-1.7-0.3-3.5-0.6-5.2-1-10.4-2.2-20.7-5.3-30.6-9.1-6.6-2.5-13-5.3-19.3-8.5-17.4-8.8-33.5-19.8-48-32.8-0.1 0-0.3-0.2-0.4-0.3-3.1-2.8-6.1-5.6-9.1-8.5-55-54.3-86.5-137.3-79.6-226.6l8.4-107.8 2.4-30.7 2.2-28.5 1.8-23.3c9.8-126.7 109.4-222.3 223.2-222.3h54.1c113.7 0 213.4 95.6 223.2 222.2l1.3 16.9 13.5 173.4c7.5 94-27.9 181.2-88.3 235.1z" fill="#332115" /><path d="M440.4 603.5h142.1v208.1H440.4V603.5z" fill="#FFE1CC" /><path d="M643.1 811.6l-39.6 204.3c-19.9 3.6-40 6-60.2 7.2-10.3 0.6-20.7 0.9-31.2 0.9-11.1 0-22.1-0.4-33-1.1-17.8-1.1-35.6-3.2-53.3-6.2l-52-204 51.4-31.6L440 772l69.6 39.6 73.5-39.6 13.8 9.1 46.2 30.5z" fill="#FFFFFF" /><path d="M509.7 528.9c35.5 19.4 89.9-127.9-3.2-119.5s3.2 119.5 3.2 119.5z m-204.7-0.1c-35 20.4-93.3-125.4 0-119.6 93.3 5.9 0 119.6 0 119.6z m408.7 0c35 20.4 93.4-125.4 0-119.6s0 119.6 0 119.6z" fill="#FFE1CC" /><path d="M735.5 452.7c0 123-99.7 256.1-222.7 256.1S290 575.8 290 452.7 389.7 230 512.7 230s222.8 99.7 222.8 222.7z" fill="#FFE1CC" /><path d="M274.3 382.7c2.2-5.8 6.6-10.6 11.3-14.7 16.5-14 37.7-21 59.3-19.6-21.2 22-41.8 48-43.2 78.6-0.9 20 6.6 41.1-1.3 59.5-14.7-25.8-24-54.3-27.3-83.8-0.8-6.6-1.2-13.6 1.2-20z m469.7 0c-2.2-5.8-6.6-10.6-11.3-14.7-16.5-14-37.7-21-59.3-19.6 21.2 22 41.8 48 43.2 78.6 0.9 20-6.6 41.1 1.3 59.5 14.8-25.8 24.1-54.3 27.4-83.8 0.8-6.6 1.2-13.6-1.3-20z" fill="#332115" /><path d="M582.6 694.3v20.4c-40.6 22.2-91.1 18.8-142.1 0.9v-22.3c0.8 0.4 1.3 0.7 1.7 0.9 22.4 10 46.6 14.7 71.1 14.8 23.8-0.1 47.5-5 69.3-14.7z" fill="#F4C7A8" /><path d="M532.8 160.1c19.8 15.7 38.1 43.7 28.3 68.9-23.4 34.1-67.5 32.3-104.2 42.3-28.7 7.9-55 24.6-83.7 32.6-33.6 9.5-70.6 6.2-100.7-13.3-30.1-19.6-52.4-56.3-53.8-96.1 14 7.6 28.6 15.4 44 15.2 21-0.3 39.4-15.2 57.7-27.2 19-12.6 39.2-22.4 59.3-32.3 15.5-7.6 31.2-15.3 47.7-18.9 36.3-8 74.7 4.6 105.4 28.8z" fill="#332115" /><path d="M764.5 349.7C754.6 223 655 127.8 541.2 127.8H487c-113.7 0-213.4 95.2-223.3 221.8l-1.8 23c7.1 1.8 14.4 3.6 21.7 5.2 3.8 0.9 7.7 1.7 11.7 2.6 15.4 3.3 31 6.2 46.6 8.7 16.5 2.6 33 4.9 49.6 6.7 7.1 0.7 13.6-4 15.1-11l15.1-68.9s6.9 36 22.9 65.8c6.4 11.9 18.7 19.4 32.2 19.8 8.3 0.2 16.7 0.3 25.1 0.3 62.4 0.1 124.7-5.6 186-17.1 14.3-2.7 28.4-5.7 42.3-9.1l1.8-0.5c11.4-2.7 22.7-5.7 33.9-8.9l-1.4-16.5z" fill="#332115" /><path d="M797.9 936.8c-9 6.1-18.2 11.9-27.6 17.3-1.9 1.1-3.8 2.2-5.6 3.3-1.9 1.1-3.8 2.1-5.7 3.2s-3.8 2.1-5.7 3.1l-5.1 2.7-1.4 0.7c-1.6 0.8-3.2 1.7-4.8 2.5l-0.4 0.2c-1.9 1-3.8 1.9-5.7 2.8-3.9 1.9-7.9 3.8-11.9 5.6-4 1.8-8 3.6-11.9 5.2l-0.1 0.1c-2 0.9-4 1.7-6.1 2.5-2 0.8-4 1.6-6.1 2.4l-0.3 0.1c-2 0.8-4 1.5-6 2.3s-4 1.5-6.1 2.3l-0.3 0.1c-4.1 1.5-8.2 2.9-12.3 4.3l-6.3 2.1-6.3 2c-4.3 1.3-8.5 2.5-12.8 3.7-2.1 0.6-4.3 1.1-6.4 1.7l-0.2 0.1-6.3 1.6c-2.2 0.5-4.3 1.1-6.5 1.6s-4.4 1-6.5 1.5c-4.4 1-8.8 1.9-13.2 2.7-2.1 0.4-4.3 0.8-6.4 1.2h-0.2l-0.4 0.1-4.3 0.7c-1.2 0.2-2.5 0.4-3.7 0.6l-2.1 0.3c-1.3 0.2-2.5 0.4-3.8 0.6l-2.8 0.4c-1 0.2-2 0.3-3.1 0.4l-3.4 0.5-2.4 0.3c-1.5 0.2-3 0.4-4.6 0.6l-1.3 0.2c-1.5 0.2-3.1 0.4-4.6 0.5l-1.8 0.2-5.6 0.5c-2.1 0.2-4.2 0.4-6.4 0.5-13.6 1.1-27.3 1.7-41.1 1.6-16.1 0-32-0.7-47.7-2.2-2.1-0.2-4.1-0.4-6.2-0.6-1.5-0.1-3-0.3-4.5-0.5s-3.1-0.4-4.6-0.6l-3.2-0.4-2-0.3c-2.8-0.4-5.6-0.8-8.4-1.1-0.8-0.1-1.7-0.2-2.5-0.4l-3.9-0.6-2.4-0.4-0.8-0.1-1.1-0.2c-1.6-0.3-3.2-0.5-4.8-0.8l-4.1-0.8-0.9-0.2c-2-0.4-4-0.8-6-1.1-2-0.4-4.1-0.8-6.1-1.3l-0.3-0.1-5.5-1.2-2.2-0.5c-1.4-0.3-2.7-0.6-4.1-1l-1.2-0.3c-1.8-0.4-3.5-0.9-5.3-1.3-2-0.5-4.1-1.1-6.1-1.6-4.6-1.2-9.1-2.5-13.6-3.9-1.8-0.5-3.6-1.1-5.5-1.7-1.8-0.5-3.6-1.1-5.4-1.7-1.5-0.5-2.9-0.9-4.4-1.4l-1.9-0.6-4.5-1.5c-0.7-0.2-1.3-0.4-1.9-0.7l-3-1.1c-1.3-0.5-2.6-0.9-3.9-1.4l-3.3-1.3c-0.4-0.1-0.8-0.3-1.1-0.4-1.4-0.5-2.8-1.1-4.2-1.6-1.1-0.4-2.2-0.9-3.3-1.3l-3.1-1.2c-0.6-0.2-1.1-0.5-1.7-0.7l-4.5-1.9c-1.9-0.8-3.8-1.6-5.7-2.5-3.8-1.7-7.6-3.4-11.3-5.1-1.2-0.6-2.4-1.1-3.6-1.7-1.2-0.6-2.1-1-3.1-1.5-1.7-0.8-3.4-1.6-5.1-2.5l-3.6-1.8c-0.6-0.3-1.3-0.6-1.9-1-1.6-0.8-3.2-1.6-4.8-2.5l-0.4-0.2c-1.3-0.7-2.5-1.3-3.8-2-1.2-0.7-2.5-1.4-3.8-2.1-0.5-0.3-1-0.6-1.5-0.8-1.4-0.8-2.7-1.5-4.1-2.3l-1.7-0.9c-1.5-0.8-2.9-1.7-4.4-2.5-0.4-0.2-0.8-0.5-1.2-0.7-1.2-0.7-2.5-1.5-3.7-2.2-6.7-4-13.3-8.2-19.8-12.6l-4.5-3c-0.1 0-0.1-0.1-0.1-0.1l16.9-79.9L425.4 781l42.3 187.9 0.5-1.5 40.3 42 19.7-24.5 27.2-18.8 41.7-185L780.6 856l17.3 80.8z" fill="#292D2D" /><path d="M425.2 781.1l83.2 228.4L400.6 918l27.5-43.8h-38.7l-18.1-71.1 53.9-22zM597.1 781.1l-88.6 228.4L621.7 918l-27.6-43.8h38.7l18.1-71.1-53.8-22z" fill="#BCBCBC" /></svg>