<?xml version="1.0" standalone="no"?><!DOCTYPE svg PUBLIC "-//W3C//DTD SVG 1.1//EN" "http://www.w3.org/Graphics/SVG/1.1/DTD/svg11.dtd"><svg class="icon" width="200px" height="200.00px" viewBox="0 0 1024 1024" version="1.1" xmlns="http://www.w3.org/2000/svg"><path fill="#333333" d="M524 511.6l22.7-22.7c3.3-3.3 3.3-8.7 0-12s-8.7-3.3-12 0L512 499.6 489.3 477c-3.3-3.3-8.7-3.3-12 0s-3.3 8.7 0 12l22.7 22.7-22.7 22.7c-3.3 3.3-3.3 8.7 0 12s8.7 3.3 12 0l22.7-22.7 22.7 22.7c3.3 3.3 8.7 3.3 12 0s3.3-8.7 0-12L524 511.6zM640.9 503.9c79.4-46.3 133-133.9 133-234.4C773.9 120.6 656.7 0 511.9 0s-262 120.6-262 269.5c0 100.5 53.6 188.1 133 234.4C185.3 561.6 40.4 748.2 40.4 970.1c0 29.7 23.4 53.9 52.4 53.9 0.1 0 0.3-0.1 0.4-0.1v0.1h837.5v-0.1c0.1 0 0.3 0.1 0.4 0.1 28.9 0 52.4-24.2 52.4-53.9 0-221.9-145-408.5-342.6-466.2z" /></svg>