<?xml version="1.0" standalone="no"?><!DOCTYPE svg PUBLIC "-//W3C//DTD SVG 1.1//EN" "http://www.w3.org/Graphics/SVG/1.1/DTD/svg11.dtd"><svg class="icon" width="200px" height="200.00px" viewBox="0 0 1024 1024" version="1.1" xmlns="http://www.w3.org/2000/svg"><path fill="#333333" d="M64 512a448.08 448.08 0 1 1 34.12 171.51A449.51 449.51 0 0 1 64 512z m621.55-108.37c0-151.77-108.41-173.45-173.45-173.45s-173.45 21.68-173.45 173.45c0 137.32 94 231.27 94 231.27l7.22 7.23v14.45c0 21.68-14.45 65-72.27 72.27-50.59 7.23-86.72 28.91-115.63 57.82 65 65 159 108.41 260.18 108.41s195.13-43.37 260.18-108.41c-21.69-36.14-65-57.82-115.64-57.82-57.82-7.22-72.27-50.59-72.27-72.27v-7.23l7.23-7.22c0-7.23 94-101.18 94-238.5z"  /></svg>