<?xml version="1.0" standalone="no"?><!DOCTYPE svg PUBLIC "-//W3C//DTD SVG 1.1//EN" "http://www.w3.org/Graphics/SVG/1.1/DTD/svg11.dtd"><svg class="icon" width="200px" height="200.00px" viewBox="0 0 1024 1024" version="1.1" xmlns="http://www.w3.org/2000/svg"><path fill="#333333" d="M872.5 1023.5h79c40 0 72.4-32.5 72.4-72.5V391.8H0.2V951c0 40 32.4 72.5 72.4 72.5H872.5zM874.1 1023.5H150v-256c0-27.1 22.2-49.3 49.3-49.3h625.3c27.1 0 49.3 22.2 49.3 49.3v256h0.2zM706.8 718.2H317.2V509.5c0-28 23-51 51-51h287.6c28 0 51 23 51 51v208.7zM20.5 458.5c-27.3-27.2-27.3-71.4-0.1-98.7l0.1-0.1 442-339.2c27.4-27.3 71.7-27.3 99 0l441.9 339.1c27.3 27.2 27.4 71.3 0.2 98.6l-0.2 0.2M594.5 490h-32v51.7h-101V490h-32c-20.8 0-37.7 16.8-37.8 37.6v164.8c0.1 20.8 17 37.6 37.8 37.6h165c20.8 0 37.6-16.9 37.7-37.6V527.6c0-20.8-16.9-37.6-37.7-37.6M430.5 783.9h-32v51.7h-101v-51.7h-32c-20.8 0-37.7 16.8-37.8 37.6v164.8c0.1 20.8 16.9 37.6 37.7 37.7h165.1c20.8 0 37.6-16.9 37.7-37.6V821.6c0-20.8-16.9-37.6-37.7-37.7M758.6 783.9h-32v51.7h-101v-51.7h-32c-20.8 0-37.7 16.8-37.8 37.6v164.8c0.1 20.8 17 37.6 37.8 37.7h165c20.8 0 37.6-16.9 37.7-37.6V821.6c-0.1-20.8-17-37.6-37.7-37.7" /></svg>