<?xml version="1.0" standalone="no"?><!DOCTYPE svg PUBLIC "-//W3C//DTD SVG 1.1//EN" "http://www.w3.org/Graphics/SVG/1.1/DTD/svg11.dtd"><svg class="icon" width="200px" height="200.00px" viewBox="0 0 1024 1024" version="1.1" xmlns="http://www.w3.org/2000/svg"><path d="M512 0C229.2 0 0 229.2 0 512s229.2 512 512 512 512-229.3 512-512S794.8 0 512 0z" fill="#F99B52" /><path d="M512 832.7c-29.6 0-53.5-24-53.5-53.6s24-53.6 53.6-53.5c29.6 0 53.5 24 53.5 53.6 0 14.2-5.6 27.8-15.7 37.9-10.1 9.9-23.7 15.6-37.9 15.6zM561.7 258.5v369.7c0 33.2-16.6 49.7-49.7 49.7s-49.7-16.6-49.7-49.7V258.5c0-33.2 16.6-49.7 49.7-49.7 33.1-0.1 49.7 16.5 49.7 49.7z" fill="#FFFFFF" /></svg>