<?xml version="1.0" standalone="no"?><!DOCTYPE svg PUBLIC "-//W3C//DTD SVG 1.1//EN" "http://www.w3.org/Graphics/SVG/1.1/DTD/svg11.dtd"><svg class="icon" width="200px" height="200.00px" viewBox="0 0 1024 1024" version="1.1" xmlns="http://www.w3.org/2000/svg"><path d="M512 948.45C760 948.45 961.07 753 961.07 512S760 75.55 512 75.55 62.93 271 62.93 512 264 948.45 512 948.45z" fill="#999999" /><path d="M464.07 242.17m19.57 0l60.94 0q19.57 0 19.57 19.57l0 341.76q0 19.57-19.57 19.57l-60.94 0q-19.57 0-19.57-19.57l0-341.76q0-19.57 19.57-19.57Z" fill="#FFFFFF" /><path d="M464.07 717.46m26.82 0l46.44 0q26.82 0 26.82 26.82l0 43.63q0 26.82-26.82 26.82l-46.44 0q-26.82 0-26.82-26.82l0-43.63q0-26.82 26.82-26.82Z" fill="#FFFFFF" /></svg>