<?xml version="1.0" standalone="no"?><!DOCTYPE svg PUBLIC "-//W3C//DTD SVG 1.1//EN" "http://www.w3.org/Graphics/SVG/1.1/DTD/svg11.dtd"><svg class="icon" width="200px" height="200.00px" viewBox="0 0 1024 1024" version="1.1" xmlns="http://www.w3.org/2000/svg"><path fill="#333333" d="M512 64.22c-247.28 0-447.68 200.44-447.68 447.66S264.74 959.55 512 959.55s447.65-200.41 447.65-447.66S759.23 64.22 512 64.22z m0 811.39c-200.89 0-363.74-162.84-363.74-363.73S311.13 148.16 512 148.16 875.71 311 875.71 511.89 712.87 875.61 512 875.61z m1.16-115.3a45.87 45.87 0 1 1 45.91-45.87 45.9 45.9 0 0 1-45.91 45.87z m-7.46-130.42a38.49 38.49 0 0 1-38.47-38.43V304.09a38.47 38.47 0 0 1 76.93 0v287.37a38.49 38.49 0 0 1-38.46 38.43z"  /></svg>