<?xml version="1.0" standalone="no"?><!DOCTYPE svg PUBLIC "-//W3C//DTD SVG 1.1//EN" "http://www.w3.org/Graphics/SVG/1.1/DTD/svg11.dtd"><svg class="icon" width="200px" height="200.00px" viewBox="0 0 1024 1024" version="1.1" xmlns="http://www.w3.org/2000/svg"><path d="M728.65 63.8h-506.4v252.01h68.98V132.69h380.42v188.05h187.71V891.3H291.23V679.44h-68.98V960.2h706.08V256.33L728.65 63.8z" fill="#819292" /><path d="M660.3 418.48h129.76v67.17H660.3z m0 160.21h129.76v67.17H660.3z m0 160.2h129.76v67.17H660.3z" fill="#819292" /><path d="M291.37 806.92h294.49V408.84h-68.98v329.18H291.37v68.9z" fill="#287CB0" /><path d="M459.73 679.44V315.81H95.67v363.63zM219 626.06l-0.34-0.34v0.74h-60.37V368.79h60.35V529l58.46-58.39 0.26 0.26 1.12-1.12 58.28 58.21V368.79h60.35V625.6h-60.35v-0.6l-0.16 0.16-58.38-58.31L219 626.06z" fill="#287CB0" /><path d="M336.6 625.2l0.16-0.17v0.57h60.35V368.79h-60.35v159.14l-58.28-58.22-1.12 1.12-0.26-0.25-58.46 58.39V368.79h-60.35v257.67h60.35v-0.74l0.34 0.34 59.24-59.17 58.38 58.31z" fill="#FFFFFF" /></svg>