<?xml version="1.0" standalone="no"?><!DOCTYPE svg PUBLIC "-//W3C//DTD SVG 1.1//EN" "http://www.w3.org/Graphics/SVG/1.1/DTD/svg11.dtd"><svg class="icon" width="200px" height="200.00px" viewBox="0 0 1024 1024" version="1.1" xmlns="http://www.w3.org/2000/svg"><path fill="#333333" d="M398.117 174.995l112.239-112.24 112.239 112.24-112.24 112.239zM229.757 343.362l112.239-112.24 112.239 112.24L341.995 455.6zM61.397 511.719l112.239-112.24 112.239 112.24-112.24 112.239zM566.474 343.355l112.239-112.24 112.239 112.24-112.24 112.239zM398.114 511.722l112.239-112.24 112.239 112.24-112.24 112.239zM229.754 680.079l112.239-112.24 112.239 112.24-112.24 112.239zM734.83 511.715l112.24-112.24 112.239 112.24-112.24 112.239zM566.48 680.082l112.24-112.24 112.239 112.24-112.24 112.239zM398.12 848.439l112.24-112.24 112.239 112.24-112.24 112.239z"  /></svg>