<?xml version="1.0" standalone="no"?><!DOCTYPE svg PUBLIC "-//W3C//DTD SVG 1.1//EN" "http://www.w3.org/Graphics/SVG/1.1/DTD/svg11.dtd"><svg class="icon" width="200px" height="200.00px" viewBox="0 0 1024 1024" version="1.1" xmlns="http://www.w3.org/2000/svg"><path fill="#333333" d="M511.91 63.63c-247.38 0-447.85 200.52-447.85 447.84S264.55 959.3 511.91 959.3s447.82-200.48 447.82-447.83S759.24 63.63 511.91 63.63z m0 811.71c-201 0-363.88-162.9-363.88-363.87S311 147.6 511.91 147.6s363.85 162.9 363.85 363.87-162.9 363.86-363.85 363.86z m-63.34-349.66L322.39 399.5c-23.27-23.27-28-56.41-10.54-73.86s50.6-12.75 73.88 10.53l126.18 126.18 126.18-126.18c23.27-23.28 56.41-28 73.88-10.53s12.73 50.59-10.54 73.86L575.24 525.68l126.17 126.17c23.28 23.29 28 56.43 10.54 73.89s-50.6 12.74-73.88-10.55L511.91 589 385.74 715.19c-23.29 23.29-56.43 28-73.88 10.55-17.47-17.46-12.74-50.6 10.54-73.89z"  /></svg>