<?xml version="1.0" standalone="no"?><!DOCTYPE svg PUBLIC "-//W3C//DTD SVG 1.1//EN" "http://www.w3.org/Graphics/SVG/1.1/DTD/svg11.dtd"><svg class="icon" width="200px" height="200.00px" viewBox="0 0 1024 1024" version="1.1" xmlns="http://www.w3.org/2000/svg"><path fill="#333333" d="M512 0C229.2 0 0 229.2 0 512s229.2 512 512 512 512-229.3 512-512S794.8 0 512 0z m0 938.2C276.6 938.2 85.8 747.4 85.8 512S276.7 85.8 512 85.8 938.2 276.6 938.2 512 747.4 938.2 512 938.2z"  /><path fill="#333333" d="M582.3 512L715 379.1c19.4-19.4 19.4-50.9 0-70.3s-50.9-19.4-70.3 0L512 441.7 379.2 308.8c-19.4-19.4-50.9-19.4-70.3 0s-19.4 50.9 0 70.3L441.7 512 309 644.9c-19.4 19.4-19.4 50.9 0 70.3s50.9 19.4 70.3 0L512 582.3l132.8 132.9c19.4 19.4 50.9 19.4 70.3 0s19.4-50.9 0-70.3L582.3 512z"  /></svg>