<?xml version="1.0" standalone="no"?><!DOCTYPE svg PUBLIC "-//W3C//DTD SVG 1.1//EN" "http://www.w3.org/Graphics/SVG/1.1/DTD/svg11.dtd"><svg class="icon" width="200px" height="200.00px" viewBox="0 0 1024 1024" version="1.1" xmlns="http://www.w3.org/2000/svg"><path d="M512 0C229.2 0 0 229.2 0 512s229.2 512 512 512 512-229.3 512-512S794.8 0 512 0z" fill="#EC6A69" /><path d="M582.3 511.6L715 378.9c19.4-19.4 19.4-50.9 0-70.3s-50.9-19.4-70.3 0L512 441.4 379.2 308.6c-19.4-19.4-50.9-19.4-70.3 0s-19.4 50.9 0 70.3l132.8 132.8L309 644.4c-19.4 19.4-19.4 50.9 0 70.3s50.9 19.4 70.3 0L512 581.9l132.8 132.8c19.4 19.4 50.9 19.4 70.3 0s19.4-50.9 0-70.3L582.3 511.6z" fill="#FFFFFF" /></svg>