<?xml version="1.0" standalone="no"?><!DOCTYPE svg PUBLIC "-//W3C//DTD SVG 1.1//EN" "http://www.w3.org/Graphics/SVG/1.1/DTD/svg11.dtd"><svg class="icon" width="200px" height="200.00px" viewBox="0 0 1024 1024" version="1.1" xmlns="http://www.w3.org/2000/svg"><path fill="#333333" d="M485.24 207.33c0 45.1-35.09 81.64-78.39 81.64s-78.38-36.55-78.38-81.64 35.07-81.56 78.38-81.56 78.39 36.53 78.39 81.56z m332.12 251.9l-139-192.69S670.28 251 642 251c-32.16 0-41.85 15.08-41.85 15.08L478.39 461.5a26 26 0 0 1-22.83 13.05 30.73 30.73 0 0 1-25.11-13.05l-64-76.11s-16.43-22.55-37.74-22.55-38.88 25-38.88 25l-70.21 91.1V81.5c0-12.73 9.89-23 22.19-23h553.43c12.24 0 22.19 10.31 22.19 23zM806.3 0H230.72C194 0 164.3 30.92 164.3 69.17V529.9c0 38.19 29.74 69.17 66.42 69.17H806.3c36.66 0 66.4-31 66.4-69.17V69.17C872.7 30.92 842.89 0 806.3 0zM869.43 869.92V884c0 9-0.52 17.26-1.06 25.24h122.47V1024h-25.25v-90.58H865.45c-6.65 38.79-20.73 68.81-42.51 90.06l-19.38-17q39.83-38.25 40.64-122.46V786h25.23v59.72h72v-67.45h24.71v67.48h56v24.17zM565 991.93h172.67V810.51H565z m197.38-203.81v235.36h-24.71v-9.36H565v9.31h-24.71V788.12zM632.47 905.79a369.45 369.45 0 0 1 58.45 22.58l-11.75 18.06A290.13 290.13 0 0 0 621 922.26z m-27.09 35.87a624.28 624.28 0 0 1 100.94 26.78l-8.23 20.23a683.72 683.72 0 0 0-102.28-28.15z m51.53-71.46c10.9-6.91 19.67-14.62 26-23.12H628c-0.54 0.54-1.07 0.8-1.07 1.31a153.94 153.94 0 0 0 29.98 21.81z m-34-56.32l22.32 2.92a126.49 126.49 0 0 1-5.32 12h68.28v17c-6.65 13-17 24.44-30.82 34.53 16.47 7.44 35.06 13.29 56 18.06l-13.06 18.86c-24.7-6.63-46-14.6-64-24.17-20.19 10.1-44.9 18.28-74.12 25L571.4 897.8c25.51-4.25 47.29-9.84 64.82-17.26a158.38 158.38 0 0 1-22.32-18.28 202.32 202.32 0 0 1-24.43 18.28l-13.82-18.28C599 849 614.68 832.7 622.91 813.88z m-336-23.65h193.34v24.71h-93.5v15.93c-0.54 14.88-1.59 28.72-3.19 42h117.68v24.44H421v85.27c0 8.51 4 13.05 12.22 13.05h30q8 0 11.95-5.58c2.93-3.72 5-15.94 6.11-36.13L505 961.6c-2.13 27.9-6.37 44.64-12.22 49.95-5.31 5.05-13.55 7.7-24.7 7.7h-42.5c-19.67 0-29.5-10.62-29.5-31.33v-90.57h-16.51c-4.78 22.84-11.42 42.49-20.19 59.24q-24.69 43.42-79.69 66.94L265.62 1001c36.65-16.74 61.34-38 74.39-63.5a196.67 196.67 0 0 0 13.27-40.1H269.6v-24.5h88.19c1.59-13.28 2.61-27.1 3.19-42v-15.96h-74.12zM57.08 957.06h129.1v-15.14H57.08z m0 35.6h129.1V977H57.08z m154.61-71.78v102.55h-25.51v-9.31H57.08v9.31H31.57v-102.5z m-51.21-60.51a135.35 135.35 0 0 1-21.78 56.84l-17.54-18.27c11.16-16.47 17.27-36.13 17.8-58.73v-43.86c34.54-3.2 60.57-9 78.1-17.27l16.47 18.59c-19.39 8.51-43.3 14.62-71.45 17.8v22.84h76.71v22.06h-25.51v54.73h-24.17v-54.73z m-40.12 12.22V893l-36.12 3.18v18.6H60.79v-16.69c-16.73 1.06-34 2.39-52.06 3.46l-2.92-21.78c19.39-0.81 37.72-1.61 55-2.62v-17H14.3L9 839.66a158 158 0 0 0 17.8-25.51h-25v-22.31h35.62c2.13-5.33 3.91-10.64 6.11-16l25 4c-1.6 4-2.92 8-4.52 12h61.34v22.3H53.54a255.89 255.89 0 0 1-15.42 25.24H60.7v-15.66h23.38v15.66h38.79v20.73h-38.7v15.4c12.75-1 24.71-1.87 36.13-2.92z" /></svg>