<?xml version="1.0" standalone="no"?><!DOCTYPE svg PUBLIC "-//W3C//DTD SVG 1.1//EN" "http://www.w3.org/Graphics/SVG/1.1/DTD/svg11.dtd"><svg class="icon" width="200px" height="200.00px" viewBox="0 0 1024 1024" version="1.1" xmlns="http://www.w3.org/2000/svg"><path fill="#333333" d="M496.82 158.85c0 34.56-26.88 62.55-60.06 62.55s-60.05-28-60.05-62.55 26.87-62.49 60.05-62.49 60.06 27.99 60.06 62.49z m254.47 193L644.8 204.22s-6.2-11.92-27.88-11.92c-24.64 0-32.06 11.55-32.06 11.55l-93.29 149.74a19.91 19.91 0 0 1-17.49 10 23.53 23.53 0 0 1-19.24-10l-49-58.31S393.25 278 376.92 278s-29.79 19.14-29.79 19.14l-53.79 69.8V62.44c0-9.75 7.58-17.65 17-17.65h424c9.38 0 17 7.9 17 17.65zM742.81 0h-441c-28.1 0-50.89 23.69-50.89 53v353c0 29.26 22.79 53 50.89 53h441c28.09 0 50.88-23.75 50.88-53V53c0-29.31-22.84-53-50.88-53zM791.18 666.52v10.79c0 6.92-0.4 13.23-0.81 19.34h93.83v87.92h-19.34v-69.4h-76.73c-5.09 29.72-15.88 52.72-32.57 69l-14.85-13q30.52-29.31 31.14-93.83v-75.1h19.33V648h55.16v-51.7h18.93V648h42.94v18.52zM557.93 760h132.3V621h-132.3z m151.23-156.16v180.33h-18.93V777h-132.3v7.13H539V603.84zM609.63 694a282.53 282.53 0 0 1 44.78 17.3l-9 13.84a222.12 222.12 0 0 0-44.57-18.52z m-20.76 27.48A478.67 478.67 0 0 1 666.21 742l-6.31 15.5a524.11 524.11 0 0 0-78.36-21.57z m39.48-54.75c8.35-5.29 15.07-11.2 19.95-17.71h-42.13c-0.41 0.41-0.82 0.61-0.82 1a117.93 117.93 0 0 0 23 16.71z m-26.05-43.15l17.1 2.24a97 97 0 0 1-4.07 9.16h52.31v13c-5.09 10-13 18.73-23.61 26.46 12.62 5.7 26.86 10.18 42.94 13.84l-10 14.45c-18.93-5.08-35.21-11.19-49-18.52-15.47 7.74-34.4 14-56.79 19.13l-8.34-15.46c19.54-3.26 36.23-7.54 49.66-13.23a121.49 121.49 0 0 1-17.1-14 154 154 0 0 1-18.72 14l-10.59-14C584 650.45 596 638 602.3 623.58z m-257.47-18.12H493v18.93h-71.64v12.21c-0.41 11.4-1.22 22-2.44 32.16h90.16v18.73h-61.46v65.33c0 6.52 3.05 10 9.36 10h23q6.11 0 9.16-4.28c2.24-2.85 3.86-12.21 4.68-27.68l18.11 5.9c-1.63 21.38-4.88 34.2-9.36 38.27-4.07 3.87-10.38 5.9-18.93 5.9h-32.56c-15.07 0-22.6-8.14-22.6-24v-69.4h-12.62c-3.66 17.5-8.75 32.56-15.47 45.39q-18.92 33.27-61.06 51.29l-10.78-17.3c28.08-12.83 47-29.11 57-48.65a151.37 151.37 0 0 0 10.17-30.73H331.6v-18.77h67.57c1.22-10.17 2-20.76 2.45-32.16v-12.21h-56.79zM168.77 733.28h98.92v-11.6h-98.92z m0 27.28h98.92v-12h-98.92z m118.46-55v78.57h-19.54V777h-98.92v7.13h-19.54V705.6zM248 659.2a103.72 103.72 0 0 1-16.69 43.55l-13.44-14c8.55-12.62 13.23-27.68 13.64-45v-33.6c26.46-2.45 46.41-6.92 59.84-13.23l12.62 14.24c-14.86 6.52-33.18 11.2-54.75 13.64v17.5H308v16.9h-19.55v41.93h-18.52V659.2z m-30.74 9.36v15.67l-27.68 2.44v14.25h-17.96V688.1c-12.82 0.81-26.05 1.83-39.89 2.65l-2.24-16.69c14.86-0.62 28.9-1.23 42.13-2V659H136l-4.07-15.67a120.71 120.71 0 0 0 13.64-19.54h-19.13v-17.1h27.27c1.63-4.08 3-8.15 4.68-12.22l19.13 3.06c-1.22 3.05-2.23 6.1-3.46 9.16h47v17.09h-55a196.15 196.15 0 0 1-11.81 19.34h17.3v-12h17.91v12h29.72V659h-29.65v11.8c9.77-0.8 18.93-1.43 27.68-2.24zM930.88 889.26q-14.05 0-22.6 9.16c-5.7 6.1-8.95 14.25-10 24.63h65.74c-2.02-22.6-13.2-33.79-33.14-33.79z m-0.41-13.64c16.89 0 29.71 5.7 38.26 17.1 7.74 10.18 11.81 24.63 12.21 42.95h-83c0.82 11.8 3.87 21 9.57 27.47s13.64 9.77 23.61 9.77c8.55 0 15.67-2.24 21-6.51 4.48-3.66 7.94-9.16 10.59-16.49h16.28c-2.44 10.18-7.12 18.32-14.25 24.83-8.75 7.74-19.94 11.81-33.58 11.81-15.06 0-27.27-5.09-36.23-14.86C885.49 961.51 881 948.08 881 931c0-15.46 4.27-28.49 13.23-38.87 8.96-11.01 20.97-16.51 36.24-16.51z m-71.44 0a37.56 37.56 0 0 1 14.45 2.45v16.28a53 53 0 0 0-15.67-2.24c-8.15 0-15.07 3.46-20.56 10.79-5.7 6.92-8.35 15.26-8.35 25v55.8h-16.08V878.47h16.08v18.32a38.35 38.35 0 0 1 11-14.45 29.24 29.24 0 0 1 19.1-6.72z m-160.18 2.85h16.28v64.32c0 10 2 17.5 6.31 22.39s11.19 7.53 20.76 7.53c6.92 0 13.23-2.85 18.72-8.14q8.55-8.55 10.38-22v-64.1h16.29V983.7H771.3v-16.28c-8.54 12.62-19.94 19.13-34.19 19.13-25.65 0-38.26-14.45-38.26-42.95z m-44.17-34v34h26.05v13.64h-26.05v67c0 3.87 0.61 6.72 2.24 8.35 1.42 1.63 4.07 2.64 7.73 2.64h13.43v13.6h-15.87c-8.55 0-14.86-2.24-18.52-6.72-3.46-4.07-5.09-10-5.09-17.91v-67h-21.17v-13.6h21.17V851.2z m-94 31.14c13 0 23.41 3.06 31.35 9.16 8.14 6.31 13 15.88 14.86 28.7h-16.12q-2.14-12.21-9.77-18.32c-5.29-4.07-12-5.9-20.36-5.9-10.17 0-18.31 3.87-24.22 11.6q-8.53 11.29-8.54 30.53c0 12.82 2.64 23 8.34 30.33 5.5 7.33 13.64 11.19 24.22 11.19 17.91 0 28.29-9.16 30.74-27.27h16.28c-2.44 13.43-7.53 23.81-15.67 30.73-7.94 6.72-18.32 10.18-31.35 10.18-15.87 0-28.09-5.29-36.84-15.88-8.34-10-12.41-23-12.41-39.07s4.07-29.11 12.41-39.29c8.96-11.18 21.4-16.68 37.04-16.68z m-92.2 2.85h16.29V983.7h-16.33z m8.14-39.69a11.69 11.69 0 0 1 8.76 3.46 10.53 10.53 0 0 1 3.66 8.55 11.83 11.83 0 0 1-3.66 8.75 12.81 12.81 0 0 1-17.51 0 11.66 11.66 0 0 1-3.46-8.75c0-3.66 1-6.51 3.46-8.55a11.67 11.67 0 0 1 8.71-3.45z m-84.46 50.28c-10.59 0-18.93 4.07-24.63 12.41-5.29 7.33-7.94 17.1-7.94 28.9v2c0 12.21 2.85 22 9 29.51a27.62 27.62 0 0 0 23 11.2c11.4 0 19.94-4.07 25.85-11.81q7.93-11 7.93-29.92c0-12.41-2.64-22.39-7.53-29.71-5.98-8.5-14.53-12.57-25.72-12.57z m2-13.44c15.06 0 27.07 5.5 35.83 16.9 7.93 10.17 12 23 12 38.87 0 15.47-4.07 28.29-11.8 38.47-8.55 11-20.15 16.69-35.21 16.69s-26.67-7.33-34.81-22V1024h-16.29V878.47h15.27v17.3c7.53-13.43 19.13-20.15 35-20.15z m-190.3 13.64c-11.2 0-19.95 4.27-26 12.82-5.7 7.74-8.35 17.3-8.35 29.11 0 11.6 2.65 21.17 8.35 28.9 6.1 8.55 14.85 12.82 26 12.82q16.49 0 26.25-12.82c5.5-7.73 8.35-17.5 8.35-28.9 0-11.81-2.85-21.37-8.35-29.11q-9.77-12.82-26.26-12.81z m0-13.64c15.67 0 28.29 5.29 37.65 16.29 9 10.38 13.44 23.4 13.44 39.28 0 15.67-4.48 28.7-13.23 38.87q-14.36 16.49-37.86 16.49c-15.88 0-28.29-5.5-37.66-16.49-8.95-10.17-13.43-23.2-13.43-38.87 0-15.88 4.48-28.9 13.43-39.28 9.36-10.99 21.8-16.28 37.65-16.28z m-111.54 0c26.05 0 39.28 14.45 39.28 43.36v64.73h-16.29v-63.5c0-20.56-9.36-30.74-27.68-30.74a25.85 25.85 0 0 0-18.93 7.94c-5.7 5.7-8.75 13.23-9.36 22.8v63.5H43.06V878.47h16.28v15.47a36.9 36.9 0 0 1 14-13.43 37.45 37.45 0 0 1 18.97-4.89z" /></svg>