<?xml version="1.0" standalone="no"?><!DOCTYPE svg PUBLIC "-//W3C//DTD SVG 1.1//EN" "http://www.w3.org/Graphics/SVG/1.1/DTD/svg11.dtd"><svg class="icon" width="200px" height="200.00px" viewBox="0 0 1024 1024" version="1.1" xmlns="http://www.w3.org/2000/svg"><path fill="#333333" d="M942.61 0H81.39A81.39 81.39 0 0 0 0 81.39v861.22A81.39 81.39 0 0 0 81.39 1024h861.22a81.39 81.39 0 0 0 81.39-81.39V81.39A81.39 81.39 0 0 0 942.61 0z m-21 921.6H102.4V102.4h819.2zM271.67 755.39h93.12V289.98H178.61v93.06h93.06v372.35zM737.01 755.39h93.12V289.98H643.96v93.06h93.05v372.35zM457.78 383.1h93.12v92.99h-93.12zM457.78 569.21h93.12v93.06h-93.12z" /></svg>