<?xml version="1.0" standalone="no"?><!DOCTYPE svg PUBLIC "-//W3C//DTD SVG 1.1//EN" "http://www.w3.org/Graphics/SVG/1.1/DTD/svg11.dtd"><svg class="icon" width="200px" height="200.00px" viewBox="0 0 1024 1024" version="1.1" xmlns="http://www.w3.org/2000/svg"><path fill="#333333" d="M971.5 0H762.2v74.6c0 17.4-17.4 34.8-34.8 34.8S692.6 92 692.6 74.6V0H353.7v74.6c0 17.4-17.4 34.8-34.8 34.8S284.1 92 284.1 74.6V0H47.3C21.2 0 0 21.2 0 47.1v189h1023.8V47.2c2.5-24.8-19.9-47.2-52.3-47.2zM0.1 974.3c0 27.3 32.3 47.2 57.3 47.2h373.7v-37.3c0-97 57.3-183.9 144.5-223.7-29.9-27.3-47.3-69.5-47.3-109.3 0-84.5 67.3-149.1 149.5-149.1 84.7 0 149.5 67.1 149.5 149.1 0 44.7-17.4 84.5-47.3 109.3 87.1 39.8 144.4 126.7 144.4 223.7v39.8c4.9-4.9 52.3 0 52.3 0 34.8-9.9 47.3-44.7 47.3-47.2V313.1H0.1m142 159.1H416c17.4 0 29.9 12.5 29.9 29.8 0 17.4-12.5 29.8-29.9 29.8H142.1c-17.4 0-29.9-12.5-29.9-29.8-4.9-17.3 12.5-29.8 29.9-29.8z m0 149.1h199.3c17.4 0 29.9 12.5 29.9 29.8 0 17.4-12.5 29.8-29.9 29.8H142.1c-17.4 0-29.9-12.5-29.9-29.8-4.9-14.8 12.5-29.8 29.9-29.8z m0 151.7h129.5c17.4 0 29.9 12.5 29.9 29.8 0 17.4-12.5 29.8-29.9 29.8H142.1c-17.4 0-29.9-12.5-29.9-29.8-4.9-17.5 12.5-29.8 29.9-29.8z" /></svg>