<?xml version="1.0" standalone="no"?><!DOCTYPE svg PUBLIC "-//W3C//DTD SVG 1.1//EN" "http://www.w3.org/Graphics/SVG/1.1/DTD/svg11.dtd"><svg t="1535682318412" class="icon" style="" viewBox="0 0 1024 1024" version="1.1" xmlns="http://www.w3.org/2000/svg" p-id="3581" xmlns:xlink="http://www.w3.org/1999/xlink" width="200" height="200"><defs><style type="text/css"></style></defs><path d="M970.455326 0H761.684401v74.569214c0 17.395671-17.407108 34.791342-34.802779 34.791342s-34.791342-17.395671-34.791342-34.791342V0H354.069863v74.569214c0 17.395671-17.395671 34.791342-34.791342 34.791342s-34.802779-17.395671-34.802778-34.791342V0H48.35896A47.189046 47.189046 0 0 0 1.147041 47.223356v188.893426h1021.506734V47.223356C1025.135604 22.370764 1002.764839 0 970.455326 0zM1.261411 974.294815c0 27.33442 32.309514 47.211919 57.18498 47.21192h372.846069v-37.27317c0-96.928541 57.18498-183.918333 144.163335-223.696205-29.827686-27.33442-47.223356-69.582684-47.223357-109.349119 0-84.507963 67.100856-149.126991 149.115554-149.126991 84.507963 0 149.126991 67.100856 149.126991 149.126991 0 44.730091-17.395671 84.496526-47.223356 109.349119 86.932607 39.800746 144.10615 126.721916 144.106149 223.696205v39.766435c4.963656-4.975093 52.187013 0 52.187013 0 34.802779-9.93875 47.223356-44.741528 47.223356-47.223356V313.122077H1.261411M142.93148 472.233565h273.344204c17.407108 0 29.827686 12.432015 29.827686 29.827685s-12.420578 29.827686-29.827686 29.827686h-273.344204c-17.395671 0-29.827686-12.432015-29.827686-29.827686-4.963656-17.384234 12.432015-29.827686 29.827686-29.827685z m0 149.126991h198.832175c17.395671 0 29.827686 12.420578 29.827686 29.827685s-12.432015 29.816249-29.827686 29.816249H142.93148c-17.395671 0-29.827686-12.420578-29.827686-29.816249-4.963656-14.913843 12.432015-29.827686 29.827686-29.827685z m0 151.608819h129.238055c17.395671 0 29.827686 12.432015 29.827685 29.827685s-12.432015 29.827686-29.827685 29.827686h-129.238055c-17.395671 0-29.827686-12.432015-29.827686-29.827686-4.963656-17.395671 12.432015-29.827686 29.827686-29.827685z" p-id="3582"></path></svg>